<?xml version="1.0" encoding="UTF-8"?>
<svg viewBox="0 0 382 330" xmlns="http://www.w3.org/2000/svg">
 <defs>
  <radialGradient id="a" cx="268.68" cy="743.24" r="189" gradientTransform="matrix(.02138 1.7905 -.85781 .01024 829.81 363.68)" gradientUnits="userSpaceOnUse">
   <stop stop-color="#ff0" offset="0"/>
   <stop stop-color="#fd3301" offset="1"/>
  </radialGradient>
 </defs>
 <g transform="translate(0 -722.36)">
  <path d="m3.9286 725.06h378v324.27h-378z" fill="url(#a)" opacity=".9561"/>
  <g transform="matrix(.14403 0 0 .13894 65.65 825.79)" stroke="#3a083a" stroke-width="3.6">
   <path d="m1074.3-170.5c-120.45 78.269-245.45 129.15-388.56 71.438 29.888 224.66-108.53 378.11-274.28 520-2.7606 1.0179-5.5179 1.979-8.25 2.9375l56.812-80.094c9.4858-43.396-41.343-78.169-82.844-114.28l-14.312 68.562s-31.953-6.601-45.688 0c-10.993 5.2834-22.875 28.594-22.875 28.594l-51.438-48.594c0.76324 48.571-0.0333 97.147 22.875 145.72 7.5724 14.119 74.405 4.954 116.25 7.0625-225.56 68.427-353.1-67.347-504.81-152.78-34.423 96.693-138.36 188.05-271.44 277.16l-14.281 5.7188c172.76-64.831 219.72 11.859 274.28 80 193.13-124.08 245.86-8.6547 314.28 80-7.3966-136.34 377.94-17.935 385.72 45.719 1.7342 14.186 1.9178-404.6 185.72-311.44 1.9171-345.66 104.94-266.64 177.12-317.16 5.3189-153.32 96.932-205.96 145.72-308.56z"/>
   <path d="m297.14 395.22-2.8572-48.571c24.762 5.7143 40 20.952 45.714 45.714z" fill="#ffc022"/>
   <path d="m412.76 345.93-40.636-26.76c-7.4322 24.302-1.8547 45.117 16.733 62.447z" fill="#ffc022"/>
  </g>
  <g transform="matrix(.06037 .01618 -.01618 .06037 93.929 778.51)" stroke="#3a083a" stroke-width="3.6">
   <path d="m1074.3-170.5c-120.45 78.269-245.45 129.15-388.56 71.438 29.888 224.66-108.53 378.11-274.28 520-2.7606 1.0179-5.5179 1.979-8.25 2.9375l56.812-80.094c9.4858-43.396-41.343-78.169-82.844-114.28l-14.312 68.562s-31.953-6.601-45.688 0c-10.993 5.2834-22.875 28.594-22.875 28.594l-51.438-48.594c0.76324 48.571-0.0333 97.147 22.875 145.72 7.5724 14.119 74.405 4.954 116.25 7.0625-225.56 68.427-353.1-67.347-504.81-152.78-34.423 96.693-138.36 188.05-271.44 277.16l-14.281 5.7188c172.76-64.831 219.72 11.859 274.28 80 193.13-124.08 245.86-8.6547 314.28 80-7.3966-136.34 377.94-17.935 385.72 45.719 1.7342 14.186 1.9178-404.6 185.72-311.44 1.9171-345.66 104.94-266.64 177.12-317.16 5.3189-153.32 96.932-205.96 145.72-308.56z"/>
   <path d="m297.14 395.22-2.8572-48.571c24.762 5.7143 40 20.952 45.714 45.714z" fill="#ffc022"/>
   <path d="m412.76 345.93-40.636-26.76c-7.4322 24.302-1.8547 45.117 16.733 62.447z" fill="#ffc022"/>
  </g>
  <g transform="matrix(.06037 .01618 -.01618 .06037 303.03 863.36)" stroke="#3a083a" stroke-width="3.6">
   <path d="m1074.3-170.5c-120.45 78.269-245.45 129.15-388.56 71.438 29.888 224.66-108.53 378.11-274.28 520-2.7606 1.0179-5.5179 1.979-8.25 2.9375l56.812-80.094c9.4858-43.396-41.343-78.169-82.844-114.28l-14.312 68.562s-31.953-6.601-45.688 0c-10.993 5.2834-22.875 28.594-22.875 28.594l-51.438-48.594c0.76324 48.571-0.0333 97.147 22.875 145.72 7.5724 14.119 74.405 4.954 116.25 7.0625-225.56 68.427-353.1-67.347-504.81-152.78-34.423 96.693-138.36 188.05-271.44 277.16l-14.281 5.7188c172.76-64.831 219.72 11.859 274.28 80 193.13-124.08 245.86-8.6547 314.28 80-7.3966-136.34 377.94-17.935 385.72 45.719 1.7342 14.186 1.9178-404.6 185.72-311.44 1.9171-345.66 104.94-266.64 177.12-317.16 5.3189-153.32 96.932-205.96 145.72-308.56z"/>
   <path d="m297.14 395.22-2.8572-48.571c24.762 5.7143 40 20.952 45.714 45.714z" fill="#ffc022"/>
   <path d="m412.76 345.93-40.636-26.76c-7.4322 24.302-1.8547 45.117 16.733 62.447z" fill="#ffc022"/>
  </g>
  <g transform="matrix(.03125 .05413 -.05413 .03125 155.92 945.55)" stroke="#3a083a" stroke-width="3.6">
   <path d="m1074.3-170.5c-120.45 78.269-245.45 129.15-388.56 71.438 29.888 224.66-108.53 378.11-274.28 520-2.7606 1.0179-5.5179 1.979-8.25 2.9375l56.812-80.094c9.4858-43.396-41.343-78.169-82.844-114.28l-14.312 68.562s-31.953-6.601-45.688 0c-10.993 5.2834-22.875 28.594-22.875 28.594l-51.438-48.594c0.76324 48.571-0.0333 97.147 22.875 145.72 7.5724 14.119 74.405 4.954 116.25 7.0625-225.56 68.427-353.1-67.347-504.81-152.78-34.423 96.693-138.36 188.05-271.44 277.16l-14.281 5.7188c172.76-64.831 219.72 11.859 274.28 80 193.13-124.08 245.86-8.6547 314.28 80-7.3966-136.34 377.94-17.935 385.72 45.719 1.7342 14.186 1.9178-404.6 185.72-311.44 1.9171-345.66 104.94-266.64 177.12-317.16 5.3189-153.32 96.932-205.96 145.72-308.56z"/>
   <path d="m297.14 395.22-2.8572-48.571c24.762 5.7143 40 20.952 45.714 45.714z" fill="#ffc022"/>
   <path d="m412.76 345.93-40.636-26.76c-7.4322 24.302-1.8547 45.117 16.733 62.447z" fill="#ffc022"/>
  </g>
  <g transform="matrix(-.125 0 0 .125 320.87 927.43)" stroke="#3a083a" stroke-width="3.6">
   <path d="m1074.3-170.5c-120.45 78.269-245.45 129.15-388.56 71.438 29.888 224.66-108.53 378.11-274.28 520-2.7606 1.0179-5.5179 1.979-8.25 2.9375l56.812-80.094c9.4858-43.396-41.343-78.169-82.844-114.28l-14.312 68.562s-31.953-6.601-45.688 0c-10.993 5.2834-22.875 28.594-22.875 28.594l-51.438-48.594c0.76324 48.571-0.0333 97.147 22.875 145.72 7.5724 14.119 74.405 4.954 116.25 7.0625-225.56 68.427-353.1-67.347-504.81-152.78-34.423 96.693-138.36 188.05-271.44 277.16l-14.281 5.7188c172.76-64.831 219.72 11.859 274.28 80 193.13-124.08 245.86-8.6547 314.28 80-7.3966-136.34 377.94-17.935 385.72 45.719 1.7342 14.186 1.9178-404.6 185.72-311.44 1.9171-345.66 104.94-266.64 177.12-317.16 5.3189-153.32 96.932-205.96 145.72-308.56z"/>
   <path d="m297.14 395.22-2.8572-48.571c24.762 5.7143 40 20.952 45.714 45.714z" fill="#ffc022"/>
   <path d="m412.76 345.93-40.636-26.76c-7.4322 24.302-1.8547 45.117 16.733 62.447z" fill="#ffc022"/>
  </g>
 </g>
</svg>
