<?xml version="1.0" encoding="UTF-8"?>
<svg enable-background="new -8.5 -14.5 1232.1 1459" version="1.1" viewBox="-8.5 -14.5 1232.1 1459" xmlns="http://www.w3.org/2000/svg">
 <g stroke-width=".5">
  <path d="m596.6 36.5c15.5 0 41 1.6 38.4 2.2-0.6 0.4-1.8 1.1-2.4 1.5 5 4.8 11.4 7.6 17.3 10.9 8.7 4.7 18.9 6.7 28.8 5.6 7.8-1 15.6-2.4 23.1-4.6-0.6-1-1.2-2-1.8-3.1 0.7 0.1 2.1 0.3 2.8 0.4 9.6 2.6 19.6 3.3 29.4 4.9 6.5 1 17.7 3 16.9 3.4 3.2 0.6 8.7 2 8.3 2.2-0.7 0.2-2 0.7-2.6 1 3.5 8.8 9 16.7 11.3 26 3.5 12.5 2 26.2-3.7 37.8-5 8.2-12.9 14.6-21.9 17.9-3.6 1.4-7.1 3.1-10.3 5.5-18.1-4.4-36.5-7.8-54.4-12.9-14.2-4.1-28.8-6.9-43-10.9-10.8-2.9-21.8-4.8-32.7-7.3-10.6-2.5-21.5-3.5-32.1-5.8-13.2-2.8-26.7-3.9-40.1-4.2-6.5-0.7-13.3 1-19.6-1.4 5.4-3.8 10.5-7.4 15.4-11.9 5.9-5.9 12.4-11.1 18.3-16.8 5.9-5.8 11.5-11.9 17.9-17.2 9-7.5 18.8-14.1 29.3-19.5 1.4-0.7 2.8-1.5 4.3-2.1 0.7-0.5 2.3-1.6 3.1-1.6z" fill="#AF7837" stroke="#AF7837"/>
  <path d="m632.6 40.2c0.6-0.4 1.8-1.1 2.4-1.5 9.7-0.3 19.5 0.2 29.1 2.4 12 2.5 23.8 6.6 36.1 7.9 0.6 1 1.2 2 1.8 3.1-7.5 2.2-15.3 3.6-23.1 4.6-9.9 1.2-20.1-0.8-28.8-5.6-6.2-3.3-12.6-6.1-17.5-10.9z" fill="#A16E32" stroke="#A16E32"/>
  <path d="m754.9 60.8c0.7-0.2 2-0.7 2.6-1 10.5 4.7 18.9 13.6 25.9 22.5 7.3 9.3 13.6 19.5 18.6 30.3 4.1 8.9 8 18.5 9.3 28.2 1.5 11.1 4.5 22.2 6.6 33.2 0.6 3.4 0.8 6.8 0.9 10.3-5.3-2.2-10-5.4-14.9-8.3-22.7-13.6-48.3-21-73.6-28 3.1-2.3 6.6-4.1 10.3-5.5 9-3.4 16.9-9.7 21.9-17.9 5.7-11.6 7.2-25.3 3.7-37.8-2.3-9.3-7.8-17.2-11.3-26z" fill="#A16E32" stroke="#A16E32"/>
  <path d="m490.8 107.9c5.9-0.8 11.9-0.5 17.6-2.5 6.3 2.3 13.1 0.7 19.6 1.4 13.5 0.3 26.9 1.5 40.1 4.2 10.6 2.4 21.5 3.4 32.1 5.8 10.9 2.5 21.9 4.5 32.7 7.3 14.3 3.9 28.8 6.8 43 10.9 17.9 5.1 36.3 8.5 54.4 12.9 25.3 7 50.9 14.4 73.6 28 4.9 2.9 9.6 6.1 14.9 8.3-0.1-3.4-0.3-6.9-0.9-10.3 0.8 3.9 1.8 7.8 3.8 11.2 4.4 4.1 9.3 6.7 14.4 10l17.1 11.1c3.6 1.8 7 4.6 10.4 6.8 3.6 2.3 7.2 4.7 10.8 7 7 4.5 13.7 9.2 20.5 14 8.1 6 16.8 11.1 25.1 16.9 9.4 5.7 16.6 14.1 25.9 20.1 5.8 5.2 11.9 10.1 17.2 15.8 2.9 3 5.9 6 9 8.8 4.7 7.3 10.8 13.9 13.8 22.3 1.3 3.6 0.9 7.5 0.8 11.2-2.9-13.9-11.4-25.7-21.3-35.6-12.3-12.9-26.5-23.8-41.3-33.8-12.7-9.2-26.1-17.3-39-26-29.4-19.1-58.7-38.5-89.4-55.5-32.9-16.9-68.8-26.7-104.7-34.4-9.2-2.1-18.2-5.1-27.2-7.8-10.8-3.2-21.8-6.1-32.7-9.2-11.4-3.3-23-5.5-34.5-8.5-16.6-3.5-33.5-6.6-50.6-6.8-43.5-1.1-86.4 7.8-128.2 19-12.8 3-21.6 13.7-30.6 22.5-14.8 14.3-27.7 30.3-43.2 43.8-7.8 7.4-16.4 13.9-25.6 19.4-11.5 6.9-25.2 9.1-36.4 16.6-13.5 8.8-26.6 19.6-33.6 34.4-1.8 3.7-2.8 7.7-3 11.8-0.1 2 0 4.1 0.2 6.1 0.2 1.9 1.1 4 1 5.9-4.3-0.7-2.4-15.2-2.3-18.1 0.2-5.6 2.8-10.7 5.3-15.6 5-10.1 14.1-17.1 22.6-24.2 5.1-4 10.6-7.5 16.2-10.8 7.3-4.2 15.9-5.6 23.3-9.7 11.1-5.6 19.5-14.3 29.1-21.9 4.8-3.8 8.8-8.8 12.9-13.5 4.3-4.9 8.4-10 12.3-15.2 2.8-3.7 6.7-6.8 9.8-10.5 7.2-8.6 16.5-15.1 25.6-21.4 5.7-3.9 12.6-4.8 18.9-7.1 11.5-4.7 23.9-7 35.9-9.9 11.3-2.7 23-3.5 34.6-5.2z" fill="#C78B43" stroke="#C78B43"/>
  <path d="m417.8 130.7c41.8-11.2 84.8-20.1 128.2-19 17.1 0.1 33.9 3.2 50.6 6.8 11.5 3 23.1 5.2 34.5 8.5 10.9 3.1 21.8 6 32.7 9.2 9 2.7 18 5.6 27.2 7.8 36 7.7 71.9 17.6 104.7 34.4 30.7 17 60 36.4 89.4 55.5 12.9 8.8 26.3 16.8 39 26 14.7 10 28.9 20.9 41.3 33.8 9.8 9.9 18.3 21.7 21.3 35.6 0.4 9.3-3 18.3-8.9 25.3-10.5 12.5-23.6 22.5-33.8 35.3-4.2 4.8-8.4 9.8-11.1 15.6-2.3 4.8-4.3 10.4-9.3 13-16.8 9.5-36.7 10.2-55.5 9.9-17.8 0.4-35.4-1.9-52.9-4.2 1.7-10.8 3.5-21.6 4.3-32.5 0.2 1.8 0.5 3.6 0.7 5.4 11-0.5 22.7-0.9 32.5-6.5 8.4-5.3 14.8-13.5 18.6-22.6 4.2-8.8 5.6-19.3 2.5-28.7-2.7-7.3-8.8-12.5-13.7-18.3-5.5-6.5-11.6-12.4-17.6-18.4-11.8-12.1-25.7-21.8-39.3-31.7-6.6-4.7-13.5-9-20.5-13.1v2.4c-4-3-7.9-6-12-8.8-2.3-1.6-4.7-3.2-7.2-4.6-17.4-9.3-35.4-17.6-54.5-22.8-15.5-4.8-31.3-8.2-47.2-11.4-15.2-2-30.3-3.9-45.6-4.9-22-1.1-44.1 0.1-65.9 2.9-21.8 2.4-43.2 7.8-64.2 14.1-10.1 2.8-19.6 7.3-28.7 12.3-12.9 6.9-23.8 17.9-29.5 31.5-5.5 12.1-9.2 24.9-10.9 38.1-0.6 6.6-5.4 11.3-8.9 16.6-7.9-1.5-15.9-2.3-23.9-2.9-11.3-1.6-22.7-2.6-34-3.8-10.4 0-20.6-2.2-31-2.1-9.1 0-18-1.6-27-2.1-10.4-1.2-20.4-4.6-30.1-8.4-6.4-2.5-10.4-8.2-15.1-12.8-2.2-7.9-2.1-16.5 1.6-23.9 7-14.8 20.2-25.6 33.6-34.4 11.2-7.6 24.9-9.7 36.4-16.6 9.2-5.5 17.8-12 25.6-19.4 15.6-13.4 28.5-29.5 43.2-43.8 8.8-8.6 17.5-19.3 30.4-22.3z" fill="#8F6028" stroke="#8F6028"/>
  <path d="m550.1 210.8c21.8-2.9 43.9-4.1 65.9-2.9 15.3 0.9 30.4 2.9 45.6 4.9 15.9 3.2 31.7 6.6 47.2 11.4 19.1 5.1 37.1 13.4 54.5 22.8 2.7 6.1 3.8 12.8 5.5 19.3 1.7 6.9 3.2 13.9 4.3 20.9-10.7-9.6-23.3-17-36.5-22.6-22.2-9.6-45.9-15.6-69.5-20.4-18.8-3.9-38-5.7-57.1-7.2-11.3-1.5-22.6-1.2-33.9-2.1-14.4-0.5-28.7-0.1-43 0.9-9.8 0.8-19.7 1.1-29.4 2.8-23.1 3.8-46 10.6-66.2 22.7-3.5 2-6.9 4.4-9.6 7.4 5.7-13.6 16.6-24.5 29.5-31.5 9.1-5 18.6-9.5 28.7-12.3 20.8-6.3 42.2-11.7 64-14.1z" fill="#DABD79" stroke="#DABD79"/>
  <path d="m533 235.8c14.3-1.1 28.7-1.5 43-0.9 11.3 0.9 22.6 0.6 33.9 2.1 19.1 1.5 38.3 3.3 57.1 7.2 23.7 4.8 47.3 10.8 69.5 20.4 13.2 5.6 25.8 13 36.5 22.6l0.6 3.9h-2.3c-2.6-1.7-5.3-4.4-8.8-3.5-2 1.5-3.1 4-3 6.4 0.5 2.3 2.3 4 3.9 5.6 3.5 3.3 7.1 6.3 10.6 9.5-3.6 2.2-7.4 4-11 6.1-4.5 2.4-3.5 9.8 0.4 12.3 4 1 7.3-2.1 10.4-4 0.6 0.4 1.9 1.1 2.5 1.4-0.8 14.4-2.5 28.7-3.1 43.1-0.1 4.3-0.9 8.6-1.9 12.8-2.8-2.3-5.6-4.7-8.6-6.6-1.9-1.2-4-2.1-6.1-3.1-2.1 2.3-6.1 5.4-3.6 8.8 3.7 4.8 8.3 8.9 11.8 13.9-4.1 2.3-8.5 3.9-12.8 5.8-5.5 2.2-4.8 12.3 0.9 13.6 6.1-0.2 11.1-4.2 16.4-6.8-2.6 23.1-9.6 46-21.7 65.9-4.1-5.2-7.2-11.4-12.9-15.1-4.1-3-10.4 3.4-7.4 7.5 3.1 5.2 7.2 9.8 9.3 15.5-3.9 0.9-7.9 1.6-11.7 2.9-5.1 1.2-6.4 9.5-1.9 12.1 1.8 0.3 3.7 0.1 5.6 0.1h3.3c-5.5 6.4-10.9 13.1-17.5 18.4-6.5 5.3-12.6 11.2-20.4 14.6-18.3 2.4-36.8 4.2-55.3 4.8-21.8 0.9-44 8.3-59.5 24 8.3 3.5 17.3 4.6 25.7 7.8 7.1 2.4 13.6 6.2 20 10 3.5 11.3 6.9 22.7 9.8 34.3 1.7 7.7 3 15.4 4.7 23.1-0.7-0.1-2.1-0.2-2.8-0.3s-2-0.4-2.6-0.5-1.7-0.4-2.2-0.5c-3.6-0.8-7.1-1.8-10.7-2.6-9.9-2.6-20.5-3-30.5-0.7-7.5 1.8-15 3.5-22.6 3.9-6.6 0.4-12.9-2.3-18.8-4.8-10.2-4.9-18.8-12.5-28.6-18.3-1.4-0.9-2.8-1.7-4.3-2.6-1.5-0.8-3-1.7-4.5-2.5l-0.6-0.3c-5.5-3.5-11.5-5.9-17.6-8.2-4.1-1.5-8.5-2.3-12.8-3-13.6-2.7-27.6-0.7-41.4-1.8 2.5-1.5 5.1-3 7.8-4 8.1-3 16.2-6.2 24.3-9.1 6.8-2.5 13.6-4.6 20.4-7 12.9-4.2 26.5-6.2 40-6.9-11.8-7.1-23.1-15.1-34.5-22.9-12.8-10.1-25.7-20-37.4-31.4-13.8-13.2-26.6-27.7-35-44.9-8.3-15.8-11.8-33.6-13.7-51.2-0.4-10.3-0.4-20.6-0.5-30.9 4.3 4.9 10.7 7 16.9 8.2 4.1 0.8 8.3 2.1 12.4 1 6-1.8 11.5-5.5 14.9-10.8 6.3-9.1 8.5-20.4 9.3-31.3 0.4-8.6 0.7-17.6-3.2-25.5-2-3.9-4-8.6-8.3-10.5-3.3-1.6-6.8-2.8-10.2-4.2-4.4-2-8.9-4.7-13.9-3.9-4.5 0.9-8.2 3.9-12.1 6.1-0.1-1.4-0.1-2.8-0.1-4.2 1.7-13.2 5.4-26 10.9-38.1 2.8-3 6.1-5.4 9.6-7.4 20.2-12.1 43.1-18.9 66.2-22.7 10.1-1.7 20-1.9 29.8-2.7m90.8 73c-13.7 8.4-22.9 23.3-25.1 39.1-1.6 9.7 0.9 19.6 5.1 28.3 3.5 6.9 9.7 12.1 16.5 15.5 4.7 2.4 9.4 5.1 14.6 6.4 13.8 5 30.2 1.9 41.4-7.6 11.5-9.9 16.2-25.6 16.2-40.3 0.4-10.6-3.6-21.1-10.5-29.1-4.9-5.9-11.7-9.7-18.3-13.4-6.2-2.6-12.5-5.5-19.3-5.9-7.4-0.3-14.5 3-20.6 7m-23.6 92.2c0.2 2.7 0.7 5.4 1.1 8.1-6.4 1.7-12.7 3.8-19.4 4.5-1.2-3.5-2-7.4-4.6-10.2-1-1.4-4.2-1.7-4.1 0.6 0.1 4 1.9 7.6 2.6 11.5-12.5 3.4-25.5 4.2-38.3 5.9-0.9-4.9 0-10.5-3.5-14.5-1.2 1.2-2.5 2.2-3.4 3.6-0.6 3.6-0.5 7.4-0.8 11-11 0-22 0.7-32.9-0.6 0.4-4.2 3.3-8.9 1-12.8-5.5 1.5-6 8.1-8.3 12.5-7-1.2-14-2.4-20.9-4.3 1.1-4.3 4.5-7.7 5-12.2-6-0.3-7.8 6.3-10.7 10.3-3.4-0.7-6.9-0.9-10.4-0.5 0 5.1 4.7 7.4 7.9 10.4 1 4.8-0.7 10.1 2.3 14.4 1.1-0.1 2.1-0.2 3.2-0.3 0.2-3.9 0.4-7.9 0.7-11.8 7.5 1.6 15 3.3 22.6 4 0.6 2.9 1 6 2.2 8.7 0.5 1.1 1.4 2.4 2.9 2.3 2.2-3 1.6-6.9 1.8-10.3 11.6 1 23.3 1.3 34.9 1.1 1.1 4.1 1.5 9.9 6.6 10.9 0.7-3.8 0.7-7.7 0.6-11.6 13.1 0.3 26.1-1.7 39.1-3.5 0.7 2.9 1.1 6 2.6 8.6 6.3-0.4 0.5-10.1 6.4-11.3 6.3-2.1 12.6-4.5 18.6-7.5 0.3 3.4 0.5 7.1 2.8 9.9 1.9-3 1.5-6.6 1.7-10-0.1-3.4 3.7-5.5 3.7-8.9-2-1.3-4.5-1.4-6.7-1.7-1.1-2.9-2.3-6.7-6.3-6.3z" fill="#FDDF99" stroke="#FDDF99"/>
  <path d="m763.3 246.9c2.5 1.4 4.9 3 7.2 4.6-1.2 1.8-0.6 4 0.1 5.9 4.7 13.6 8.8 27.5 11.5 41.7-1.1-1.8-2.1-3.8-3.7-5.2-2.2-1.3-4.8-1.8-7-2.9h2.3l-0.6-3.9c-1.1-7-2.6-14-4.3-20.9-1.7-6.5-2.8-13.1-5.5-19.3z" fill="#AF8C3F" stroke="#AF8C3F"/>
  <path d="m770.5 257.4c-0.6-1.9-1.3-4-0.1-5.9 4.1 2.8 8.1 5.8 12 8.8 8.3 6 15.6 13.3 21.8 21.4 7.2 8.8 13.5 19.1 14.9 30.6 0.7 10.9 0.1 21.8 0.9 32.7 0.6 15.6 0.6 31.2-0.8 46.7-0.8 10.9-2.7 21.7-4.3 32.5-2.3 14.1-6.3 27.9-11.8 41-4.7 10.1-9 20.3-13.6 30.5-3.1 6.2-6 12.5-9.4 18.6-6.7 11.5-18 20.7-31.2 23.5-1.1 0.3-2.3 0.5-3.4 0.8-15.1 4-30 9-44.8 13.9-6.9 2.1-13.7 4.2-20.3 6.8-8.3 3.4-17.2 5.2-25.4 8.9-0.1 4.8-0.5 9.9 1.5 14.4 1.9 4.3 4.7 8.5 8.4 11.5 5.3 4.1 11.7 6.6 18 9 8.8 3 17.9 5.4 27.2 6.5 2.7 0.4 5.3 1.2 7.8 2.1-7 5.9-15.7 9.4-24 13.1-8.8 3.4-17.9 6.1-27.2 8-4.7 0.3-9.5 0.7-14.2 0.9-2.4-0.3-4.7-0.7-7-1.1 1.5-0.2 3.1-0.3 4.6-0.5 4.9-9.1 2.8-19.9-1.8-28.7-4-7.4-8.4-14.7-14.3-20.7-0.1 0.8-0.2 2.4-0.2 3.2-2-6-3.4-12.2-6.1-17.9-1.6-3.5-2.9-7.2-3.9-10.9 2.6-0.8 5.3-1.6 8-2.4 3-0.6 6.2-1 9.1-1.9 14.4-5.1 28.6-10.7 42.9-16.1 3.2-1.3 6-3.1 8.9-4.9 6.9-4 13.9-7.7 20.9-11.5 3.2-0.3 6.5-0.8 9.3-2.4 7.3-3.8 14.4-8 20.6-13.5 2.1-1.5 1.8-4.3 1.6-6.6 0.9 2.5 1.5 5.4 3.5 7.3 1.7 1.3 4.2 0.6 5.3-1.2 3.4-4.7 2-10.8 0.8-15.9 0.7 1 1.4 1.9 2.1 2.9 2.1-2.8 4.1-5.7 5.7-8.8-0.4-0.1-1.1-0.3-1.5-0.4 3.1-2.4 3.7-6.3 3.2-10 1 0.6 1.9 1.3 2.9 2 8.4-16.6 13.7-34.8 16.9-53.1 2.2-0.6 5.5-0.6 6.1-3.4 2.6-7.7-3.2-14.4-6.9-20.6 3-3.1 7-5.5 8.9-9.5 1.2-3-1.5-5.4-3.2-7.6 1.5-1.5 1.8-3.7 1.9-5.7 1-13.9 1.2-28-0.5-41.8 2.2 1 4.3 1.9 6.5 2.9 1.5-2.4 3.5-5 3-8.1-0.5-6.4-5.9-10.7-7.6-16.6 2.2-3.4 6.1-5.7 7.3-9.7 0.8-2.9-1-7.5-4.6-6.5-4.5 1.4-7.9 5-11.9 7.4-0.3-0.6-0.9-1.9-1.2-2.6-2.5-13.9-6.6-27.8-11.3-41.4z" fill="#DABD79" stroke="#DABD79"/>
  <path d="m782.5 257.9c7 4.1 13.9 8.4 20.5 13.1 13.6 9.9 27.5 19.6 39.3 31.7 6 6 12.2 11.9 17.6 18.4 4.9 5.8 11 11 13.7 18.3 3.2 9.4 1.8 19.8-2.5 28.7-3.8 9.1-10.2 17.2-18.6 22.6-9.8 5.5-21.5 5.9-32.5 6.5-0.3-1.8-0.5-3.6-0.7-5.4 1.4-15.5 1.4-31.1 0.8-46.7-0.8-10.9-0.2-21.8-0.9-32.7-1.4-11.5-7.7-21.8-14.9-30.6-6.2-8.1-13.5-15.4-21.8-21.4v-2.5z" fill="#775120" stroke="#775120"/>
  <path d="m762.6 287.5c3.4-1 6.1 1.8 8.8 3.5 2.2 1.2 4.8 1.6 7 2.9 1.6 1.4 2.6 3.4 3.7 5.2 0.3 0.7 0.9 2 1.2 2.6 4-2.4 7.4-6 11.9-7.4 3.6-1 5.4 3.6 4.6 6.5-1.2 4-5 6.3-7.3 9.7 1.7 5.9 7.2 10.2 7.6 16.6 0.5 3.1-1.5 5.6-3 8.1-2.2-1-4.3-1.9-6.5-2.9-1-2.9-2.3-5.6-3.6-8.4-0.7-1.3-1.5-2.5-2.5-3.6-3.8-0.4-7.5 1.2-10.6 3.2-3.1 1.9-6.4 5-10.4 4-4-2.5-5-9.9-0.4-12.3 3.6-2.2 7.4-3.9 11-6.1-3.5-3.3-7.1-6.3-10.6-9.5-1.6-1.6-3.4-3.3-3.9-5.6-0.1-2.5 1-5 3-6.5z" fill="#A5802D" stroke="#A5802D"/>
  <path d="m623.8 308.8c6.2-4 13.2-7.3 20.7-7.2 6.8 0.4 13.1 3.4 19.3 5.9-0.4 0.3-1.2 1-1.6 1.4 10 9.6 17.8 22.4 18.4 36.5 0.5 12.7-4.9 24.8-12.4 34.7-5.1 6.4-11.4 12.3-19.5 14.6-5.4 1.7-11.1 1.1-16.6 0.8 1 0.8 2 1.7 3 2.5-5.2-1.2-9.9-4-14.6-6.4-6.8-3.4-13-8.5-16.5-15.5-4.2-8.7-6.7-18.6-5.1-28.3 1.9-15.8 11.2-30.6 24.9-39m28.9 11c-5.9 3.1-12 6.4-16.3 11.6-2.4 1.5-4.9 2.8-7.4 4.2-1.6-2.3-3.1-4.8-4.1-7.4-1.1-2.6-2-6-5-7.1-2.9 0.6-5.5 2.6-6.5 5.4-2.3 6.2-1.1 13 1.2 19 0.8 2.6 2.6 5.5 1 8.1-3 6.2-6.4 12.7-5.5 19.8-0.4 2 0.1 4.6 2.2 5.4 2.6 0.7 4.8-1.1 6.5-2.9 3.3-3.7 5.6-8.1 8.3-12.2 2.6 1.4 5.1 3 7.3 4.9 5.4 4.6 12 7.5 18.9 9.3 3 1 6.1-0.1 8.5-1.9-2.9-5.5-9.1-7.4-13.5-11.4-4.8-4.3-9.2-9.3-11.4-15.4 7.3-8.8 16.1-16.1 23.9-24.5 1.8-1.7 2-4.1 2.1-6.4-3.5-0.3-7.1-0.3-10.2 1.5z" fill="#FCA46F" stroke="#FCA46F"/>
  <path d="m416.9 311c3.9-2.3 7.6-5.3 12.1-6.1 5-0.8 9.5 1.9 13.9 3.9-0.4 0.2-1.1 0.5-1.5 0.6 6.9 12.9 10.6 27.9 8.7 42.6-1.1 10.1-5.1 19.8-11.4 27.8-3.1 3.9-7.5 6.5-10.7 10.4-6.2-1.2-12.6-3.3-16.9-8.2-1-1.1-2-2.3-2.9-3.5-3.9-6.7-6.2-14.2-6.7-21.9-0.7-11.3 0.4-23.3 6.4-33.2 3.5-5.2 8.3-10 8.9-16.6 0 1.4 0 2.8 0.1 4.2m17.2 11c-6.1 1.4-8.7 7.8-14 10.4-1.9-3.6-1.8-8.1-5.1-10.9-3.5 4-4.4 9.5-4.5 14.6 0.2 4.7 1.3 9.4 0.7 14.1-2.4 5.1-4.4 10.5-4.6 16.1-0.1 1.9 0.5 4.2 2.5 5 4.3-1.1 4.9-6.1 7-9.3 1-0.3 2-0.6 3-1 3.5 3.5 6.3 7.7 10 11 2.1 1.9 5.1 1.7 7.8 1.9 0-2.2 0.2-4.6-1.2-6.4-4-6-8.9-11.7-10.9-18.7 0-2.5 1.3-4.7 2-7 3.8-4.6 7.5-9.2 11-14.1 1.4-2 2-4.4 2.5-6.7-2.2-0.4-4.6-0.8-6.2 1z" fill="#FCA46F" stroke="#FCA46F"/>
  <path d="m662.1 308.9c0.4-0.4 1.2-1 1.6-1.4 6.6 3.7 13.4 7.4 18.3 13.4 6.8 8 10.8 18.5 10.5 29.1 0 14.7-4.7 30.5-16.2 40.3-11.1 9.6-27.6 12.7-41.4 7.6-1-0.8-2-1.7-3-2.5 5.5 0.3 11.2 0.9 16.6-0.8 8-2.3 14.4-8.2 19.5-14.6 7.5-9.9 13-22 12.4-34.7-0.4-14-8.3-26.8-18.3-36.4z" fill="#CF7F4C" stroke="#CF7F4C"/>
  <path d="m441.4 309.4c0.4-0.1 1.1-0.5 1.5-0.6 3.4 1.5 6.9 2.7 10.2 4.2 4.3 1.9 6.3 6.6 8.3 10.5 3.9 7.9 3.6 17 3.2 25.5-0.8 10.9-3 22.1-9.3 31.3-3.4 5.3-8.9 9-14.9 10.8-4.1 1.1-8.4-0.2-12.4-1 3.2-3.9 7.6-6.5 10.7-10.4 6.2-8 10.3-17.7 11.4-27.8 1.9-14.6-1.7-29.5-8.7-42.5z" fill="#CF7F4D" stroke="#CF7F4D"/>
  <path d="m652.7 319.8c3.1-1.8 6.7-1.8 10.1-1.5 0 2.3-0.3 4.8-2.1 6.4-7.7 8.4-16.6 15.7-23.9 24.5-3.5 4.6-6.6 9.5-9.8 14.4-2.7 4.1-5 8.5-8.3 12.2-1.6 1.7-3.9 3.6-6.5 2.9-2.1-0.8-2.7-3.4-2.2-5.4 2.6-9.7 5.6-19.5 11.4-27.7 3.9-5.8 10.5-8.8 14.8-14.2 4.5-5.3 10.6-8.5 16.5-11.6z" fill="#FCC9A9" stroke="#FCC9A9"/>
  <path d="m434.1 322c1.6-1.8 4-1.3 6.1-1-0.5 2.3-1.1 4.7-2.5 6.7-3.5 4.8-7.2 9.5-11 14.1-3.6 4.3-4.5 10-7.3 14.7-1.1 1.9-2.2 3.6-3.3 5.5-2.1 3.2-2.8 8.2-7 9.3-2-0.8-2.6-3.1-2.5-5 0.2-5.7 2.3-11 4.6-16.1 2-4.7 3.6-9.8 7.4-13.5 5-5.1 10.4-9.8 15.5-14.7z" fill="#FCC8A7" stroke="#FCC8A7"/>
  <path d="m774 323.5c3.1-2 6.8-3.6 10.6-3.2 1 1 1.8 2.3 2.5 3.6-0.9-0.2-1.8-0.4-2.6-0.6-1 8.7-0.8 17.6-1.9 26.3-1.1 8.8-2 17.7-3.7 26.4-0.6 2.9-0.8 5.9 0.5 8.6-0.6 0.5-1.1 0.9-1.7 1.4-6.1-2.4-10.7-7-14.8-11.9 3.1 1.9 5.8 4.3 8.6 6.6 1-4.2 1.8-8.4 1.9-12.8 0.6-14.4 2.2-28.7 3.1-43.1-0.7-0.2-1.9-0.9-2.5-1.3z" fill="#AF8B38" stroke="#AF8B38"/>
  <path d="m613.4 326.4c1-2.8 3.6-4.8 6.5-5.4 3 1.1 3.9 4.5 5 7.1 1 2.7 2.5 5.1 4.1 7.4 2.5-1.3 5-2.7 7.4-4.2-4.4 5.4-10.9 8.5-14.8 14.2-5.9 8.2-8.9 18.1-11.4 27.7-0.9-7.1 2.5-13.6 5.5-19.8 1.6-2.7-0.2-5.5-1-8.1-2.4-5.9-3.5-12.7-1.3-18.9z" fill="#FCBB94" stroke="#FCBB94"/>
  <path d="m410.5 336c0.1-5.1 1-10.6 4.5-14.6 3.3 2.8 3.1 7.4 5.1 10.9 5.4-2.5 8-8.9 14-10.4-5.1 4.9-10.4 9.7-15.5 14.6-3.8 3.7-5.4 8.8-7.4 13.5 0.7-4.6-0.4-9.3-0.7-14z" fill="#FCBA91" stroke="#FCBA91"/>
  <path d="m784.4 323.3c0.9 0.2 1.7 0.4 2.6 0.6 1.3 2.7 2.6 5.5 3.6 8.4 1.6 13.9 1.4 27.9 0.5 41.8-0.2 2-0.4 4.2-1.9 5.7-3.6 0.9-7 2.3-9.8 4.8-1.4-2.7-1.1-5.8-0.5-8.6 1.7-8.7 2.6-17.6 3.7-26.4 1-8.7 0.8-17.6 1.8-26.3z" fill="#FBDD98" stroke="#FBDD98"/>
  <path d="m419.3 356.4c2.9-4.7 3.7-10.4 7.3-14.7-0.8 2.3-2.1 4.5-2 7 2.1 7 6.9 12.7 10.9 18.7 1.4 1.8 1.2 4.2 1.2 6.4-2.6-0.2-5.6 0-7.8-1.9-3.8-3.3-6.5-7.5-10-11-1 0.3-2 0.6-3 1 1.2-1.9 2.4-3.6 3.4-5.5z" fill="#FDBB93" stroke="#FDBB93"/>
  <path d="m627.2 363.7c3.1-4.9 6.2-9.8 9.8-14.4 2.2 6.1 6.6 11.1 11.4 15.4 4.4 4 10.6 5.9 13.5 11.4-2.5 1.8-5.5 2.8-8.5 1.9-6.8-1.8-13.5-4.7-18.9-9.3-2.3-2-4.7-3.7-7.3-5z" fill="#FCBB95" stroke="#FCBB95"/>
  <path d="m753.2 379.8c-2.5-3.4 1.5-6.5 3.6-8.8 2 1 4.2 1.9 6.1 3.1 4.2 4.8 8.7 9.5 14.8 11.9 0.5-0.5 1.1-1 1.7-1.4 2.8-2.5 6.3-3.9 9.8-4.8 1.7 2.1 4.4 4.5 3.2 7.6-2 4-5.9 6.4-8.9 9.5 3.7 6.2 9.4 12.9 6.9 20.6-0.7 2.8-3.9 2.8-6.1 3.4-3.6-4.9-6-10.7-10.3-15.1-2.1 10.5-3.1 21.1-5.3 31.6-2.6 11.5-6.6 22.7-12.5 32.9 2.8 0.2 5.7 0.5 8.3 1.7 0.6 3.7-0.1 7.5-3.2 10-2.4 1.3-4.8 2.7-7.1 4.1 0.2 0.6 0.6 1.7 0.8 2.2 1.3 5.2 2.6 11.2-0.8 15.9-1.1 1.8-3.6 2.5-5.3 1.2-2-1.9-2.6-4.8-3.5-7.3-0.4-1.3-0.8-2.6-1.3-3.9-0.4-1.2-0.8-2.5-1.2-3.7-1.3-3.8-3.5-7.2-6-10.3-2.2-5.7-6.2-10.3-9.3-15.5-3-4.1 3.3-10.5 7.4-7.5 5.7 3.6 8.8 9.9 12.9 15.1 12.1-20 19.1-42.8 21.7-65.9-5.3 2.7-10.3 6.6-16.4 6.8-5.7-1.3-6.4-11.5-0.9-13.6 4.3-1.9 8.7-3.4 12.8-5.8-3.6-5.1-8.2-9.2-11.9-14z" fill="#A5812E" stroke="#A5812E"/>
  <path d="m600.2 401c3.9-0.4 5.2 3.4 6.5 6.3 2.3 0.4 4.7 0.4 6.7 1.7-0.1 3.4-3.8 5.5-3.7 8.9-0.2 3.4 0.2 7-1.7 10-2.3-2.8-2.4-6.5-2.8-9.9-6 3-12.3 5.3-18.6 7.5-5.9 1.1-0.1 10.8-6.4 11.3-1.5-2.7-1.9-5.7-2.6-8.6-13 1.8-25.9 3.9-39.1 3.5 0 3.9 0.1 7.8-0.6 11.6-5.1-1-5.5-6.8-6.6-10.9-11.7 0.2-23.3 0-34.9-1.1-0.2 3.5 0.3 7.3-1.8 10.3-1.4 0.1-2.3-1.2-2.9-2.3-1.2-2.8-1.6-5.8-2.2-8.7-7.6-0.8-15.1-2.4-22.6-4-0.3 3.9-0.5 7.9-0.7 11.8-1.1 0.1-2.1 0.2-3.2 0.3-3-4.3-1.3-9.7-2.3-14.4-3.2-3-7.9-5.3-7.9-10.4 3.5-0.4 6.9-0.1 10.4 0.5 2.8-4 4.6-10.5 10.7-10.3-0.5 4.5-3.9 7.9-5 12.2 6.9 1.9 13.9 3.1 20.9 4.3 2.3-4.3 2.8-11 8.3-12.5 2.3 3.9-0.6 8.6-1 12.8 10.9 1.3 21.9 0.5 32.9 0.6 0.3-3.7 0.1-7.4 0.8-11 0.9-1.4 2.2-2.5 3.4-3.6 3.5 4 2.7 9.6 3.5 14.5 12.8-1.6 25.7-2.5 38.3-5.9-0.7-3.9-2.4-7.6-2.6-11.5-0.2-2.4 3-2.1 4.1-0.6 2.5 2.8 3.3 6.7 4.6 10.2 6.6-0.6 13-2.8 19.4-4.5-0.6-2.6-1-5.4-1.3-8.1z" fill="#A5772F" stroke="#A5772F"/>
  <path d="m773.9 405.7c4.3 4.4 6.7 10.2 10.3 15.1-3.3 18.3-8.5 36.5-16.9 53.1-1-0.7-1.9-1.4-2.9-2-2.6-1.2-5.5-1.5-8.3-1.7 5.9-10.2 9.8-21.5 12.5-32.9 2.1-10.5 3.2-21.1 5.3-31.6z" fill="#FBDD98" stroke="#FBDD98"/>
  <path d="m725 483c3.8-1.3 7.8-1.9 11.7-2.9 2.5 3.1 4.8 6.5 6 10.3-3.8 3.6-9 4.2-14 4.8-1.9 0-3.8 0.2-5.6-0.1-4.4-2.6-3.2-10.9 1.9-12.1z" fill="#99772A" stroke="#99772A"/>
  <path d="m754.1 486c2.3-1.4 4.7-2.8 7.1-4.1 0.4 0.1 1.2 0.3 1.5 0.4-1.6 3.1-3.6 6-5.7 8.8-0.7-1-1.5-1.9-2.1-2.9-0.2-0.5-0.6-1.6-0.8-2.2z" fill="#F9DB97" stroke="#F9DB97"/>
  <path d="m728.8 495.2c5-0.6 10.2-1.2 14-4.8 0.4 1.2 0.8 2.4 1.2 3.7-0.6-0.7-1.2-1.5-1.8-2.2-8.5 10.4-17.3 20.9-28.5 28.5-7 3.8-14 7.5-20.9 11.5-0.6 0-1.7-0.1-2.3-0.1 0.1-0.5 0.2-1.5 0.2-1.9 1.2-0.5 2.3-1.1 3.5-1.6 7.8-3.4 13.9-9.3 20.4-14.6 6.6-5.3 12-12 17.5-18.4-0.8 0-2.5 0-3.3-0.1z" fill="#AE8B3A" stroke="#AE8B3A"/>
  <path d="m742.2 492c0.6 0.7 1.2 1.4 1.8 2.2 0.5 1.3 0.9 2.6 1.3 3.9 0.2 2.3 0.5 5-1.6 6.6-6.2 5.4-13.4 9.7-20.6 13.5-2.9 1.6-6.1 2-9.3 2.4 11.2-7.7 19.9-18.2 28.4-28.6z" fill="#FADC98" stroke="#FADC98"/>
  <path d="m639 533.1c18.5-0.6 36.9-2.5 55.3-4.8-1.2 0.5-2.3 1.1-3.5 1.6-7.2 3.1-14.3 6.2-21.4 9.5-7 3.3-14.6 4.5-21.7 7.3-6.8 2.6-14 3.7-20.7 6.4-2.4 0.8-4.7 1.6-7 2.3 1 6.7 3.2 13.1 5.2 19.5-6.4-3.8-12.9-7.6-20-10-8.4-3.2-17.4-4.3-25.7-7.8 15.5-15.7 37.7-23.1 59.5-24z" fill="#DABD79" stroke="#DABD79"/>
  <path d="m669.4 539.4c7-3.4 14.2-6.4 21.4-9.5-0.1 0.5-0.2 1.5-0.2 1.9 0.6 0 1.7 0.1 2.3 0.1-2.9 1.8-5.8 3.6-8.9 4.9-14.3 5.4-28.5 10.9-42.9 16.1-3 1-6.1 1.3-9.1 1.9 2.1-1.1 4.2-2.2 6.3-3.4-3.7 0.6-7.5 1-11.2 1.5 6.7-2.6 13.9-3.8 20.7-6.4 7-2.5 14.6-3.8 21.6-7.1z" fill="#CEB16D" stroke="#CEB16D"/>
  <path d="m626.9 553c3.7-0.6 7.5-1 11.2-1.5-2.1 1.1-4.2 2.3-6.3 3.4-2.7 0.8-5.3 1.6-8 2.4 1 3.7 2.3 7.4 3.9 10.9 2.6 5.8 4 12 6.1 17.9 5.3 15.2 7.1 31.3 11.7 46.6 2.3 0.4 4.7 0.8 7 1.1l0.8 0.1c-3.2-0.2-6.3-0.1-9.5-0.5-2.4-0.4-4.8-0.9-7.2-1.4 0.7 0.1 2.1 0.2 2.8 0.3-1.7-7.7-3-15.4-4.7-23.1-2.8-11.5-6.2-22.9-9.8-34.3-2.1-6.4-4.3-12.8-5.2-19.5 2.5-0.8 4.9-1.6 7.2-2.4z" fill="#AF8C3B" stroke="#AF8C3B"/>
  <path d="m634.1 582.9c5.9 6 10.3 13.3 14.3 20.7 4.6 8.7 6.7 19.6 1.8 28.7-1.5 0.1-3.1 0.3-4.6 0.5-4.7-15.3-6.5-31.4-11.7-46.6 0-0.9 0.1-2.5 0.2-3.3z" fill="#FBDC99" stroke="#FBDC99"/>
  <path d="m480.9 592c4.3 0.7 8.6 1.5 12.8 3-3.7-0.2-5.6 3.2-6.5 6.3-4.1 11.6-2.1 24.5 1.6 36 8 20.6 18.5 40 28.3 59.7 16.4 31.9 33.9 63.3 51.1 94.9 7.5 12.9 14.6 26 22 39 7.2 13.1 14.9 25.9 21.9 39.1 13.2 22.6 24 46.5 34.5 70.5 4.3 10.8 9 21.4 12.7 32.4-1.7-1.7-3.8-2.7-6.2-2.9 1-0.5 2-1.1 3-1.7-1.9-5.6-4.3-11.1-6.9-16.5-2.9-6.5-5-13.3-8.7-19.4-2.5-4.8-4.7-9.8-7.2-14.6-1.4-3.2-2.9-6.4-4.5-9.5-5.4-10.3-10.3-20.9-16.5-30.7-1.2-2.9-2.5-5.6-4-8.3-2.9-4.4-4.1-11.5-10.3-12.3-8.1-1.5-16.3-2.5-24.2-4.7 9.2 0.4 18 3 27.1 4.1-3.5-6.2-6.2-14.6-14.1-16.2 1.7 0.1 3.3 0 5 0.1-4-8.5-9.1-16.4-13.9-24.4-2.5-4.5-4.8-9.1-7.4-13.5-4.3-7.6-8.4-15.3-12.9-22.8-1.1-1.9-2.2-3.8-3.2-5.7-6.2-12.4-12.9-24.6-19.9-36.6-10.7-21.2-22.5-41.8-32.5-63.3-1.8-3.6-3.9-7-5.6-10.7-2.4-5.6-4.9-11.2-7.9-16.5-2-4-3.8-8.2-5.1-12.6-0.9-2.8-1.7-5.6-2.4-8.4-0.3-1.5-0.6-3-0.8-4.5-0.2-2.5-0.4-5-0.5-7.5-0.1-1.8-0.3-3.6-0.4-5.4-1.6 0.1-3.3 0.1-4.9 0.2 2.1-0.9 4.8-1.6 5.8-4 1.5-3.5 2.4-7.2 3.6-10.8-0.8-0.7-1.8-1.3-2.9-1.8z" fill="#BE7D35" stroke="#BE7D35"/>
  <path d="m487.2 601.3c0.9-3.1 2.8-6.5 6.5-6.3 6.1 2.3 12.1 4.7 17.6 8.2-2.1-0.5-4.1-0.8-6.2-1.2 2 16.3 8.1 31.6 14.3 46.7 7 16.4 14 32.8 22.6 48.3 17.1 32.5 34.6 64.8 51.7 97.3 6.1 12.4 13.4 24.1 19.7 36.3 11.6 20.8 22.8 41.8 34.4 62.6 6.5 11.4 11.7 23.4 18.1 34.8 5.3 10.3 9.6 21.1 14.4 31.6 3.6 7.9 6 16.3 8.4 24.7 2.4 9 3.8 18.6 1.2 27.8-1.7 2.1-4.1 5.4-7.2 3.9-4-1.9-8-4.3-10.9-7.8-2.8-5.8-1.8-12.7-4.6-18.5-1.2-1.5-4.4-3.9-5.7-1.4-1.7 4.3-2.3 9-4.5 13-0.6-3.3-1.7-6.5-1.4-9.8 0.4-3.7 2.8-6.7 4.8-9.7 0.9-3.1-0.1-6.2-1.1-9.1-3.7-11-8.4-21.6-12.7-32.4-10.5-24-21.3-47.8-34.5-70.5-7-13.2-14.7-26-21.9-39.1-7.4-13-14.5-26.1-22-39-17.2-31.5-34.6-62.9-51.1-94.9-9.8-19.8-20.3-39.2-28.3-59.7-3.7-11.3-5.7-24.2-1.6-35.8z" fill="#946027" stroke="#946027"/>
  <path d="m216.6 603.7c1.5-2.5 2.6-5.8 5.6-6.9 7.7-1 15.4 1.2 23 2.2-1.9 3.3-3.1 7.4-6.4 9.6-7.8 1.3-15.5-1.8-23.2-2.9l1-2z" fill="#E54029" stroke="#E54029"/>
  <path d="m245.1 599.1c8.5 0.1 17 0.6 25.3 2.9-2.1 2.7-4.1 5.4-5.8 8.3 6.1 3.6 13.4 2.3 20.2 2.8 6.9 1.8 14.1 2.3 21.3 2.2 0.3-0.5 0.9-1.5 1.2-2 1.6-2.7 2.6-5.7 3.6-8.7 6.5 1.1 13 1.1 19.5 1.9-1 3.3-1.9 6.6-2.4 10 14.3 0.1 28.5 0.8 42.8 0.5 0.8-2.8 1.6-5.6 2.5-8.3 5.6 0.2 11.2 0.3 16.7 0.3 12-0.2 24 0.8 36 0.4 7.8-0.3 15.6 0 23.4-0.3-1.9 2.7-3.7 5.5-5.5 8.4 8.7 0.2 17.3-1.1 25.8-3 3-0.3 3.4-3.7 4.3-5.9h0.7c1.6-0.1 3.3-0.1 4.9-0.2 0.1 1.8 0.3 3.6 0.4 5.4-1.8-0.4-3.8-1.6-5.5-0.3-2.7 1.6-2.9 5-3.8 7.7 3.2 0.6 6.5 0.6 9.8 0.1 0.2 1.5 0.4 3 0.8 4.5-3.1 0.6-6.4 0.9-9.2 2.4-1.6 2.6-0.5 5.8 0.6 8.4 0.8 2.1 2.9 3.6 5.2 3.1 2.9-0.4 4.3-3.3 5.8-5.5 1.2 4.4 3 8.5 5.1 12.6-0.2 4.2-1.1 8.3-2.4 12.3-0.4-1.6-0.9-3.1-1.4-4.6-0.4-1.2-0.8-2.3-1.2-3.5-7.6-0.6-14.7 2.9-21 6.9 0.6 1 1.1 1.9 1.7 2.9 1.3 0.3 2.6 0.6 3.9 0.9-4.6 1.8-9.2 3.4-13.7 5.2-3.4-3.4-8.4-4.6-12.9-2.9-9.8 3.7-19.9 7-29.9 10.1 1.2 3.3 4.4 4.8 7.5 5.8-6.6 2.1-13.1 4.5-19.6 6.8-0.7-1.8-1.3-4-3.3-4.6-5-2.1-10.4 0.4-15 2.3-7 3.1-14.9 3.9-21.6 7.8 3.4 2.5 7.5 3.9 11.8 3.6-7.5 2.4-15 5.2-22.4 7.8-3.2-1.5-6.4-3-9.8-4 5.4-3.2 11.5-5 17.2-7.6-4.4-4.1-9.6-7.5-15.2-9.7-3-1.2-6.2 0.1-9.1 0.9-3.8 1.3-7.8 2.1-11.3 4-1 1.4-1 3.7 0.6 4.7 3.9 3.1 8.5 5.2 12.9 7.3-13.1 4.6-26.8 8.3-38.9 15.3 3.9 3.6 8.9 5.5 13.8 7.2-4.5 2.6-9 5.4-13.1 8.5-6.1-2.4-12.3-5.5-19.1-5-5.9 2-10.2 6.9-14.8 10.9-1.4-0.3-2.8-0.7-4.1-1-7.3-2.7-14.5-5.9-21.3-9.7 5.8-3.8 12.2-6.6 17.7-10.9-5.8-4.8-12.5-8.6-17-14.7-3.2-3.8-4.7-8.6-7.9-12.4-4-1-8 0.5-11.9 1.3-4.9 1.3-10.8 1.2-14.4 5.4-1.7-3.8-3-7.8-4.5-11.7-1.1 0.2-2.3 0.3-3.4 0.5l-0.6-0.4c1.4-0.9 2.8-1.8 4.3-2.7-0.5-3.4-1.3-6.8-2.4-10 8.9 0.5 17.6-1.5 26.3-2.6 1.5-0.5 4.1-0.2 4.4-2.3 0.9-4.5 0.8-9.2 1.4-13.8 0.8-7.9 2.8-15.6 3.4-23.5-8.5-2.5-17.4-2.5-26.2-3 0.7-2 1.5-4 2.3-6 2.2-4.3 5-8.2 7.2-12.4 7.7 1.1 15.4 4.2 23.2 2.9 3-2.6 4.3-6.7 6.1-10m-7.4 14.5c-1.7 4.2-2.7 8.5-3.8 12.9 5.3 0.9 10.6 2.1 16.1 2.6 2.5 0.2 5.1 0.4 7.5-0.7 2.1-3 2.9-6.6 4.1-9.9 0.7-2.3 2-5.1 0-7.1-4.7-1-9.6-0.8-14.3-1.7-3.4-0.7-8.4 0-9.6 3.9m151.5 5.1c11.6 0.1 23.2 0.6 34.8 0.5 2.5-0.1 5.1 0 7.5-0.8 2.4-1.8 4-4.5 5.8-6.9-5.6-1.7-11.5-0.6-17.3-0.8-8.7 0.2-17.4-0.4-26 0.1-4.2-0.1-4.3 4.9-4.8 7.9m-80.6-4.2c-3.6 5.3-5.9 11.6-5.3 18.1 5.9 0.6 11.8 0.6 17.7 0.4 1.9-5.9 4.9-11.5 5.2-17.7-5.9-0.8-11.8-1.2-17.6-0.8m63.7 2.8c-1.5 2.7-3.1 5.6-3.1 8.7 0 2.3-0.3 5.5 2.1 6.8 4.4 0.9 8.9 0.2 13.3-0.1 1.4-4.4 2.5-8.9 3.3-13.5-4.9-2.5-10.4-2.2-15.6-1.9m60.1 3.1c-2.3 2.2-2.3 5.6-2.4 8.6 3.4 0.2 6.9-0.1 10-1.6 0.1 2.5 0.3 5 0.5 7.4 4.6 1 9.1-0.5 13.3-2.1 5.1-1.9 10.8-1.8 15.7-4.3 1.4-1.4 1.8-3.5 2.6-5.3-10.6-0.3-20.8 2.8-31.3 3.9 0.9-2.1 2.7-4.8 1.3-7-2.4-2.9-7.5-2.5-9.7 0.4m-46.4 13c0.1 3.9 0.9 7.7 2.2 11.4 3.8 0.2 7.7 0.3 11.5-0.5 6.4-1.4 12.9-2.1 19.3-3.3 3.1-0.6 6.5-0.9 9.1-2.9 1.5-1.8 1.8-4.4 1.4-6.7-1.3-3.4-5.7-2.3-8.4-1.8-11.5 2.9-23.7-0.1-35.1 3.8m-127.7-1.1c-1.9 4.3-2 9-2.5 13.6-0.2 4.5-0.8 9.2 0.6 13.5 0.5 2.1 2.9 1.7 4.5 1.9 6.4 0.2 12.7-1.7 19-2.2 7.3-0.4 14.4-2.5 21.8-2.4-0.2-7.8 0.1-15.7 0.2-23.5-6.7-0.2-13.2-2.1-19.9-2-6.4 0-12.7-0.7-19.1-0.6-1.7 0.2-4.1-0.4-4.6 1.7m63.9 1c-1 6.5-1 13.1-0.8 19.6 7.3 0.8 14.5-0.3 21.5-1.7 9.3-0.4 18.4-2.6 27.8-2.7 1.6-5.1-0.3-10.2-1.2-15.2-15.7 0-31.5 0.1-47.3 0m109.3 4.4c-3.1 2.8-1.3 7.4-1.1 11 3.9 0.8 7.9 1.8 11.8 0.5 1.8-0.7 4.2-1.2 4.7-3.3-0.8-2.8-2.6-5.2-4.6-7.3-2.5-3.4-7.3-1.9-10.8-0.9m18.4 10c0.4 1.2 0.8 2.4 1.2 3.7-3.7 0.6-7.4 1.5-10.8 3.1-1.2 0.4-1.5 2-0.7 2.9 1.4 3.7 6 4.2 9.5 4.5 4.2 0.3 7.9-2.3 10.1-5.7-1.9-1.8-3.7-3.5-5.5-5.3 5-0.9 9.7-3.2 14.6-4.8 3-1.1 6.8-1.5 8-5-3-0.5-6.1-0.5-9 0.3-5.9 1.7-12.6 1.9-17.4 6.3m27.5-4.4c0 1.8 0.4 3.6 0.7 5.4 2.6 0 5.3 0 7.9 0.1 0.4-2 0.8-4.3-1-5.8-1.6-2.8-6.1-2.7-7.6 0.3m-102.2 4.1c-1.9 0.3-3.3 2.4-2.6 4.2 1 3.2 2.6 6.1 3.8 9.2 6.3 0.9 12.7-0.1 18.7-2-1.3-4.9-3.7-10-7.8-13.1-4-0.6-8.1 0.6-12.1 1.7m39.8 7.4c-6.2 1.2-12.9 1.6-18.3 5.1 1.6 2.1 3.1 5.5 6.3 5 4.9-0.4 9.5-2.3 14.2-3.5 6.1-2 12.5-2.7 18.6-4.9 0-1.7-0.1-3.5-0.1-5.2-7.2-0.9-13.7 2.5-20.7 3.5m-108.8 0.7c-2.3 0.2-4.3 2.3-4 4.6 0.3 4.5 2.6 8.5 4.2 12.7 7.3 0.6 14.6-0.6 21.7-2.1-1.6-4.3-3.2-8.7-4.9-13-0.7-1.4-1.5-3.4-3.3-3.5-4.6 0-9.2 0.6-13.7 1.3m-77.1 9.9c-2.1 4.7-1.8 10-1.2 15 0.3 2.3 1.7 5.1 4.4 5 4.6-0.3 9-1.9 13.6-2.6 4-0.9 8.3-1.1 11.9-3 2.2-2.7 0.3-6.5 0-9.6-0.9-2.8-1-7.7-4.9-7.8-8 0.3-15.8 2.8-23.8 3m132.5-0.6c-10.7 0.8-20.9 4.3-31.6 4.9 1 4.2 4.7 7 8.1 9.3 2.7 2.1 6.1 0.9 9 0.1 11.2-3.3 22.7-5.5 33.8-8.9-0.1-2.8-1.2-6-4.1-7-5.1-1.1-10.2 1.1-15.2 1.6m35 1.5c-4.2 0.9-9.3 0.5-12.3 4 0.2 4.2 3.7 7.9 7.8 8.7 5.9 1.6 11.6-1.5 16.9-3.6-0.3-1.9-0.5-4.1-2.3-5.2-2.8-2.1-6.2-4.8-10.1-3.9m-93 7.6c-14.3 1.5-28.3 4.9-42.6 5.5 0.6 4.5 2.6 8.7 5.4 12.2 3.3 4 6.2 8.7 10.9 11.2 4.6 0 8.5-3.2 12.8-4.6 8.9-2.8 17.3-6.7 26.1-9.7-1.1-4.5-4.9-7.5-7.4-11.2-1.5-1.5-2.8-3.9-5.2-3.4m-37 34.7c-3.6 1.5-9.1 2.9-8.6 7.9 5.1 1.1 9.6 3.9 14.3 6 5.9 2.3 11-2.2 16.2-4.3 2.3-0.6 2.8-3.1 3.6-4.9-4.8-2.7-9.2-6.1-14.2-8.2-4 0-7.6 2.2-11.3 3.5z" fill="#A1602F" stroke="#A1602F"/>
  <path d="m505.1 602c2.1 0.4 4.2 0.7 6.2 1.2l0.6 0.3c0.1 3 0.3 6 1 8.9 0.6 1.9 1.3 3.8 2 5.7 1.7 4.6 3.1 9.3 4.8 13.9 6.6 17.3 14.7 34 22.5 50.8 5.8 10.8 11.6 21.6 17.3 32.5 0.7 1.3 1.5 2.7 2.2 4 3.6 6.7 7.3 13.5 10.8 20.3 4.2 7.8 8.1 15.8 12.2 23.7 2.4 4.7 5.3 9.1 7.9 13.7 5.5 10.8 11 21.6 17.3 32 2.2 4.4 4.6 8.7 8 12.3 6.1 7.2 11.3 15.1 17.1 22.5 1 1.4 1.9 2.8 2.9 4.2-2.4-0.2-4.8-0.3-7.2-0.4 2 4.5 3.9 9 6.9 13 1.7 2.3 5 1.8 7.5 2 14.4 0.1 28.7 0.2 43.1-0.3v0.9c-2.2-0.1-4.5-0.2-6.7-0.2-11.9 0.3-23.7-0.5-35.6 0.2h-5.7c2.6 5.9 4.5 12.2 7.9 17.8 3.7 5.8 7.1 11.8 9.9 18.1 2.8 5.4 6.8 10.1 9.5 15.6 2.8 5.1 4.7 10.6 6.8 16 4.2 9.3 9.1 18.3 12.1 28.1 0.4 5.2 0.8 11.4 5.7 14.5 1 3.8 2 7.8 4.8 10.6-0.6 7.7 0.7 15.4-0.1 23-0.1 3.1-2.6 5.3-4.6 7.4-0.8-0.7-1.6-1.5-2.3-2.2 2.5-9.1 1.2-18.8-1.2-27.8-2.3-8.4-4.7-16.8-8.4-24.7-4.8-10.5-9.1-21.3-14.4-31.6-6.4-11.4-11.6-23.4-18.1-34.8-11.7-20.8-22.9-41.8-34.4-62.6-6.3-12.3-13.6-24-19.7-36.3-17.1-32.5-34.7-64.8-51.7-97.3-8.7-15.6-15.7-32-22.6-48.3-6.2-15.1-12.3-30.5-14.3-46.7z" fill="#744A1D" stroke="#744A1D"/>
  <path d="m264.6 610.3c1.8-2.9 3.7-5.7 5.8-8.3 6.8 1 13.8 0.5 20.6 1.2 6.6 0.5 13.4-0.2 19.9 1.5-1 3-2 6-3.6 8.7-7.5-0.3-15-0.6-22.5-0.2-6.8-0.6-14.1 0.7-20.2-2.9z" fill="#E44029" stroke="#E44029"/>
  <path d="m511.9 603.5c1.5 0.8 3 1.6 4.5 2.5-0.2 2.2-0.4 4.5-0.6 6.7-1-0.1-1.9-0.2-2.9-0.3-0.7-2.9-0.9-5.9-1-8.9z" fill="#E8472F" stroke="#E8472F"/>
  <path d="m516.3 605.9c1.4 0.8 2.9 1.7 4.3 2.6 0.5 3.1 1.7 6.1 3.7 8.6-3.2 0.4-6.4 0.7-9.6 1-0.7-1.9-1.4-3.8-2-5.7 1 0.1 1.9 0.2 2.9 0.3 0.3-2.3 0.5-4.5 0.7-6.8z" fill="#AC6131" stroke="#AC6131"/>
  <path d="m330.4 606.5c14.3 0.5 28.6 1.8 42.9 2.1-0.9 2.8-1.7 5.5-2.5 8.3-14.3 0.3-28.5-0.3-42.8-0.5 0.5-3.3 1.3-6.7 2.4-9.9z" fill="#E5412A" stroke="#E5412A"/>
  <path d="m237.7 613.6c1.2-3.9 6.2-4.6 9.7-3.9 4.7 0.9 9.6 0.7 14.3 1.7 2 2 0.6 4.9 0 7.1-1.2 3.3-2.1 6.9-4.1 9.9-2.3 1.1-5 0.9-7.5 0.7-5.4-0.6-10.7-1.7-16.1-2.6 1-4.3 2-8.7 3.7-12.9z" fill="#7F7034" stroke="#7F7034"/>
  <path d="m449.4 609c8.2-0.5 16.4-0.3 24.6-0.6-0.9 2.2-1.3 5.6-4.3 5.9-8.4 2-17.1 3.2-25.8 3 1.7-2.8 3.6-5.6 5.5-8.3z" fill="#E34128" stroke="#E34128"/>
  <path d="m524.3 617.1c-2-2.5-3.2-5.5-3.7-8.6 9.7 5.8 18.3 13.4 28.6 18.3-5-0.4-10-0.1-15 0.1-0.5 0-1.4 0.1-1.9 0.1-2.5-3.4-5.3-6.6-8-9.9z" fill="#7C5326" stroke="#7C5326"/>
  <path d="m389.2 618.7c0.5-3.1 0.6-8 4.8-7.9 8.6-0.6 17.3 0 26-0.1 5.8 0.2 11.7-0.8 17.3 0.8-1.8 2.4-3.4 5.1-5.8 6.9-2.4 0.8-5 0.7-7.5 0.8-11.6 0.1-23.2-0.4-34.8-0.5z" fill="#E73F29" stroke="#E73F29"/>
  <path d="m150.8 616.5c4.6-2.1 9.3-3.8 14.3-4.3 14.7-1.5 29.6 0.6 43.3 6.1-0.9 2-1.6 4-2.3 6-0.6 1.6-1.2 3.2-1.7 4.8-0.1-0.7-0.4-2-0.6-2.6-10.1-4.8-21-7.6-32.1-8.9-7-1-14-0.7-20.9-1.1z" fill="#DCB54D" stroke="#DCB54D"/>
  <path d="m474.4 613.3c1.6-1.3 3.7-0.1 5.5 0.3 0.1 2.5 0.3 5 0.5 7.5-3.2 0.6-6.5 0.5-9.8-0.1 0.9-2.7 1.2-6 3.8-7.7z" fill="#806F32" stroke="#806F32"/>
  <path d="m189.2 598.7c-10.7-2-21.5-1.4-32.3-1.4-7.6 0.1-15.1 1.6-22.7 2.5-13.7 1.9-26.5 7.6-38.9 13.4-2.5 1.1-4.7 2.6-6.7 4.4 4.9 0 9.8-1.2 14.6-2.2 6.4-1 13-0.5 19.4-0.1 5.7-0.2 11.4 0.4 16.9 2.3 10.1 1.1 20.6 0.4 30 4.7-3.4 1-6.9 1.8-10.4 2.2-9.9 1.2-19.7 3.7-28.9 7.6-14.9 5.8-28.8 13.9-41.3 23.8-8.2 5.4-14.3 13-21.1 20-6.7 7.8-12.5 16.4-17.8 25.3-3.8 5.7-6.2 12.3-10.3 17.8-3 6.2-5.4 12.8-5.2 19.7 0.8-0.9 1.6-1.8 2.4-2.8 2.3-5 4.2-10.2 7-15 13.3-25 31.8-48.1 56.4-62.7 30.6-18.1 66.9-24.1 102.1-24 0.6-1.8 1.3-3.5 1.9-5.3-0.1-0.7-0.4-2-0.6-2.6-10.1-4.8-21-7.6-32.1-8.9-6.9-0.9-13.9-0.6-20.9-1 4.5-2.1 9.3-3.8 14.3-4.3 14.7-1.5 29.6 0.6 43.3 6.1 2.2-4.3 5-8.2 7.2-12.4 0.3-0.5 0.8-1.6 1.1-2.1-9.2-1.5-18.1-4.4-27.4-5z" fill="#FCD464" stroke="#FCD464"/>
  <path d="m284.7 613.1c7.5-0.4 15-0.1 22.5 0.2-0.3 0.5-0.9 1.5-1.2 2-7.1 0.1-14.3-0.3-21.3-2.2z" fill="#BE512A" stroke="#BE512A"/>
  <path d="m308.6 614.5c5.9-0.4 11.7-0.1 17.5 0.8-0.3 6.3-3.3 11.8-5.2 17.7-5.9 0.2-11.8 0.2-17.7-0.4-0.5-6.5 1.7-12.8 5.4-18.1z" fill="#7F6F34" stroke="#7F6F34"/>
  <path d="m122.6 615.3c5.7-0.2 11.4 0.4 16.9 2.3-17.8 3.4-32.6 14.5-46.5 25.4-3.4 2.8-6.9 5.6-10.6 8.1-3.1 0.5-6.3 0.7-9.1 2.2-5.7 2.9-10.2 7.5-15.7 10.7 1.3-7.2 7.2-12.3 12-17.5 6.6-5.4 12.9-11.2 20.3-15.5 7.2-4.2 14.5-8.3 22.6-10.4 3.7-1.1 7.4-2.5 10.1-5.3z" fill="#DBB450" stroke="#DBB450"/>
  <path d="m372.3 617.3c5.3-0.3 10.8-0.6 15.6 1.9-0.8 4.6-1.9 9.1-3.3 13.5-4.4 0.3-8.9 1-13.3 0.1-2.4-1.3-2.2-4.5-2.1-6.8 0-3.2 1.5-6 3.1-8.7z" fill="#7E6F33" stroke="#7E6F33"/>
  <path d="m514.8 618.1c3.2-0.3 6.4-0.6 9.6-1 2.7 3.3 5.5 6.5 8 10-3.8 0.3-7.7 0.9-11.5 1.6l-1.2 3.3c-1.8-4.6-3.2-9.3-4.9-13.9z" fill="#846F34" stroke="#846F34"/>
  <path d="m92.9 643c14-10.9 28.7-22 46.5-25.4 10.1 1.1 20.6 0.4 30 4.7-3.4 1-6.9 1.8-10.4 2.2-9.9 1.2-19.7 3.7-28.9 7.6-14.9 5.8-28.8 13.9-41.3 23.8-8.2 5.4-14.3 13-21.1 20-6.7 7.8-12.5 16.4-17.8 25.3-3.9 5.7-6.2 12.3-10.3 17.8 2.6-7.9 5.9-15.4 9.5-22.9 2.1-4.4 4.4-8.8 6.9-13 7-12.1 17-21.9 26.3-32.1 3.7-2.4 7.2-5.2 10.6-8z" fill="#FCEC8D" stroke="#FCEC8D"/>
  <path d="m432.4 620.4c2.3-2.8 7.3-3.3 9.7-0.3 1.4 2.3-0.4 4.9-1.3 7l-0.8 0.3c-3.1 1.5-6.6 1.8-10 1.6 0.1-3 0-6.4 2.4-8.6z" fill="#826C33" stroke="#826C33"/>
  <path d="m440.7 627c10.4-1.2 20.7-4.3 31.3-3.9-0.8 1.8-1.2 3.9-2.6 5.3-4.9 2.5-10.6 2.4-15.7 4.3-4.3 1.6-8.8 3-13.3 2.1-0.2-2.5-0.4-5-0.5-7.4l0.8-0.4z" fill="#E24029" stroke="#E24029"/>
  <path d="m206 624.2c8.8 0.5 17.7 0.6 26.2 3-0.6 7.9-2.6 15.6-3.4 23.5-0.6 4.6-0.5 9.3-1.4 13.8-0.2 2.1-2.9 1.8-4.4 2.3-8.7 1.1-17.5 3.1-26.3 2.6l-1.6-0.4c0.7 0.1 2 0.2 2.6 0.2-0.1-11.8 1.2-23.8 4.7-35.1 0.6-1.8 1.3-3.5 1.9-5.3 0.5-1.4 1.1-3 1.7-4.6z" fill="#E64029" stroke="#E64029"/>
  <path d="m666.8 632.8c9.3-2 18.3-4.6 27.2-8 4.4 0.4 8.8 1.3 13.2 1.8-4.4-0.1-8 2.3-10.7 5.5 3.7 1.5 7.5 2.7 11.5 2.9 6 0.4 11.9 1.6 17.9 1.8-0.2 1.9-0.3 3.8-0.5 5.7 2.1 0.2 4.3 0.4 6.5 0.4-1.9 3.7-3.8 7.4-5.5 11.2 7.3 3.4 15.6 2.4 23.3 4 4.3 0.7 8.7 1.8 13.1 0.8 4-2.7 5.9-7.5 8.2-11.6-8.9-2.2-18-3.6-27.1-4.3-2.2-0.1-4.5-0.7-6.3-2-0.5-1.3-0.9-2.6-1.3-3.9-3.2-0.3-6.3-0.4-9.5-0.3 1.9-2.5 3.7-5 5.5-7.7 7.6 0.2 15.3-0.2 22.9 1.5-3.9 0.1-8 0.1-11.4 2.1-2.1 1.3-3.1 3.6-4.3 5.7 7.2 0.7 14.4 0.5 21.5 1.6 6 0.9 12.1 1.3 18.2 1.1-2.2 1.2-4.3 2.5-6.5 3.7 1 1.4 1.7 3.3 3.5 3.8 5.1 1.4 10.4 1.9 15.7 1.9 3.8 0.1 7-2.4 9.9-4.6-1.7-1.3-3.5-2.7-5.7-2.9-5.4-0.9-10.8-1.4-16.2-2.2 1.5-2.2 3-4.3 4.6-6.5 6.5 1.3 13.2 0.6 19.7 1.7 2.6 0.4 5.3 0.9 7.9 1.2-2.8 2.1-5.3 4.4-7.5 7.1 13.8 1.8 27.5 4.4 41.4 4.9 6 0.7 9.6-4.6 14-7.6 11.1 1.5 22.3 1.4 33.5 1.7 1.2 0.4 2.5 0.8 3.7 1.2-4.6 0-9.4-0.5-13.8 0.9-3.5 1.1-6 4-7.9 7 10.8 0.3 21.5 3 32.3 2.4-1.8 2.7-3.4 5.5-5 8.3 6.9 2.2 14.3 2.7 21.6 2.2 5.2-0.4 6.8-6.1 8.7-10.1-8-1.2-16.1-0.8-24.2-0.4 2.4-2.9 4.2-6.2 5.5-9.7 8.6 0 17.2-0.3 25.8 0.1-1.8 3-3.6 6-5.4 9.1 7.5 0.9 15-0.1 22.5 0.7-0.6 1-1.1 2-1.6 3-1.7 3.6-3.3 7.3-4.7 11-6.1-1.9-12.6-1.8-18.9-2.6-1.9-0.1-4.3-0.7-5.7 1.1-3 3.4-4.4 7.8-6.5 11.8-1.9 4.1-4.6 8-4.9 12.7 0.6 2.1 3 2.4 4.8 2.8 7.5 1.1 15 2.6 22.6 3-1.5 9.1-2.5 18.3-3.4 27.4-8.9-2.4-17.4-5.8-26.3-8.1-2.3-0.3-6.2-1.5-7 1.7-2 5.8-2 12.2-2.2 18.3 0 5.6-0.5 11.3 0.3 16.9-0.1 2.1 2.2 2.8 3.8 3.5 9.9 3.4 19.6 7.7 30.2 8.5 0.7 7.7 0.3 15.4 0.6 23-6.6-2.6-13.4-4.5-19.7-7.7-3.4-1.8-7-3.2-10.7-4.2 0.4 7.8 3.4 15.2 6.6 22.2-7.9-5.1-15.9-10.1-24.7-13.7 0.2-6.6-3.2-12.4-5.3-18.5 7.6 1.4 13.6 6.9 21.3 8-0.9-6.5-0.9-13.5-3.9-19.4-5.6-4.3-12.7-5.6-19.3-7.8-1.1 5.8-0.4 11.7 1.3 17.3-4.3-0.5-8.4-2.1-12.3-4.1-10.2-5.1-21.1-8.5-31-14.2-2-1.2-4.3-1.8-6.6-2.2 0.2 5.4 0.8 10.8 1 16.2-6.6-2.8-13-5.9-19.5-9.1 0.3-5.6 0.9-12.1-2.9-16.7-6.8-4.3-14.3-7.3-21.6-10.6-8.7-3.8-17.3-8-25.6-12.5-1.2 4.4-1.2 9-1 13.6-5.3-2.7-10.6-5.5-15.9-8.2 0.8-0.1 2.4-0.4 3.2-0.5-0.2-4 1.6-9.8-2.9-12-7.5-3.9-15.5-7-23.7-8.9 0.3 3.7 1.2 7.3 2.6 10.8-3.4-1.9-6.9-3.7-10.4-5.4-0.7-3.1-1-6.4-2.8-9.1-3-2.1-6.7-2.9-10.1-4.2-5.7-2-11.4-4-17.3-5.2-0.3 1.4-0.5 2.7-0.8 4.1-1.5-0.8-3-1.4-4.6-2-1.4-2.5-2.8-5.4-5.7-6.5-6.4-2.8-12.9-5.5-19.7-7.1-2-0.6-4-1.1-6-1.9 1.4-0.3 2.9-0.6 4.4-0.9-0.8-2.6-1.5-5.4-3-7.8-1.8-2.3-4.8-3.2-7.3-4.4-0.7-2.6-1.5-5.2-2.3-7.8l-0.4-1.6c3 2.1 6.5 3.3 10.1 4-0.1-1.8 1.2-4.3-0.7-5.6-2.5-1.9-5.7-2.3-8.6-3.1 0-0.3 0.1-1 0.2-1.3 0.4-2.6 0.6-5.2 0.9-7.8 3.1 0.3 6.3 0.3 9.5 0.5 0.5 0.1 1.6 0.2 2.1 0.3-0.7 3.5-4 8.7-0.2 11.4 7 2.8 14.8 3.7 22.4 3.4 1.5-4.4 2.7-8.8 3.5-13.4-4.7-0.3-9.6-1.1-14.2-2.6m15 2c3.4 2.1 7.3 3.1 11.3 2.5-2.6 4-4.4 8.5-5 13.2 4.2 1.3 8.5 2.3 12.9 2.3 5.3 0 10.6 1 15.9 0.3 3-3.3 4.3-7.7 6.2-11.6-5.6-1.3-11.3-2.3-17-2.4-4.1 0-7.9-1.5-11.9-1.7 0.2-1.2 0.5-2.3 0.8-3.4-2.4-1.2-4.8-2.9-7.6-2.5-2.5-0.1-4.1 1.8-5.6 3.3m-4.9 16.2c0.2 2.5-0.5 5.7 1.8 7.4 2.5 1.4 6.4 2.3 8.4-0.5 1-1.6 2.6-4.2 0.8-5.7-3.1-2.7-7.4-1.7-11-1.2m169.5 1.4c-2.3 1.1-2.2 3.9-2.5 6 6.7 0.9 13.4 2.5 20.2 2.7-4.2 5.1-8.4 10.5-10.6 16.9 2.1 1.2 4.2 2.3 6.6 2.7 7.9 1.5 15.6 3.6 23.4 5.6 2.7 0.7 5.6 0.7 8.4 0.6 2.4-5.5 4.8-11.1 7.8-16.4 1.3-2.2 1.5-4.7 1.7-7.2-7.4-0.2-14.8-0.6-22.3-0.7-4.8 0-9.4-1.5-14.2-1.9 2.8-1.8 5.3-4 8-5.9-0.5-1-0.9-2-1.4-3.1-8.3-1.1-17.4-3.4-25.1 0.7m-194.6 0.6c0.6 2.6 0.7 5.6 2.7 7.6 1.7 1.2 3.7 1.8 5.6 2.4 6 1.8 11.7 4 17.7 5.8-0.2-3.1 0-6.4-1.1-9.4-1.1-2.7-4.4-3.2-6.9-3.9-4.4-0.8-8.6-2.3-12.9-3.6-1.8-0.7-3.5 0.5-5.1 1.1m132.3 9.1l1.2 2.4c4.6 0.5 9.2 1.3 13.7 2.4 7.1 1.8 14.5 2.8 21.6 4.8 3.2 0.7 6.7 1.8 9.9 0.6 4-3.6 6.6-8.5 9.3-13.2-0.3-0.5-0.8-1.4-1-1.9-13.9-0.4-27.4-5-41.3-5-6.2 0-9.4 6.3-13.4 9.9m-67.4-6.4c-1.7 2.6-2.5 5.8-2.3 8.9 1.8 3.5 6 3 9.1 2.2 0.4-4 0.9-7.9 1.3-11.9-2.6 0-5.6-0.6-8.1 0.8m44.6 7.5c-1.9 3.3-3.5 6.9-4.1 10.7 0.9 3.2 5.1 3.2 7.7 4.3 2.8 0.5 6.7 2.5 8.8-0.5 3.1-4.6 6.5-9.1 8.4-14.4-4.5-0.8-9-1.9-13.5-2.6-2.6-0.5-5.9 0-7.3 2.5m-74.3-2.2c-0.1 3.8-2.5 9.9 2.3 11.6 8.1 3 16 6.7 24.5 8.6 0.5-5.1 0.7-10.3 0-15.5-9-1.6-17.8-4.3-26.8-4.7m-8.7 8.2c0.1 2.5-0.3 5.3 1 7.6 1.2 2.2 2.8 4.1 4.2 6.1 3.9-2.1 3.9-7.1 2.4-10.8-1.5-2.6-4.9-2.7-7.6-2.9m43.9-0.3c0 4.8-0.8 9.7 0.6 14.4 2.2 2.8 5.9 3.6 9.2 4.7 6.7 1.9 13 5.2 20.1 5.5 1.9-5.8 3.2-11.8 3.7-18-4.4-1.8-9.2-2.5-13.9-3.4-6.5-1.2-12.9-3.3-19.7-3.2m106.4 6.6c-2.8 4-5.1 8.6-5.7 13.4-0.3 2.9 3.1 3.3 5.2 3.9 4.6 0.8 9 2.7 13.8 2.9 2.2-2 3.2-4.9 4.7-7.5 1.5-3.1 3.9-6 3.4-9.7-7.3-0.2-14.3-5-21.4-3m-113.5 5.4c-0.5 2.9-1.6 6.2 0 9 1.7 3.2 5.5 4.1 8.7 5.2 0.8-2.8 1.1-5.9-0.5-8.4-1.4-3.4-5.1-4.5-8.2-5.8m57.3 1.7c-2.3 4.5-4.2 9.3-4.8 14.4 0.7 1.4 2.1 2.2 3.5 3 6.2 3.2 12.9 5.4 19.5 7.7 8.4 3.1 16 8.6 25.1 9.6 0.4-4.8 0.8-9.6 2.4-14.2 1-3.4 2.7-6.8 2.4-10.4-3.2-3.5-8.5-3.3-12.8-4.5-9.5-2.6-19.1-4.9-28.6-7.2-2.3-0.4-5.6-1.2-6.7 1.6m119.1 6.9c-2.8 3.2-3 7.8-4.3 11.7-0.5 2.8-2.2 6.7 1 8.5 3.6 1.8 7.6 2.5 11.3 3.8 2.3 0.6 5.6 2.1 7.3-0.5 2.6-4.2 3.5-9.2 5.4-13.7 0.3-1.7 1.9-3.6 0.6-5.2-3.5-2.5-7.8-3.2-11.9-4.1-3-0.6-6.3-1.4-9.4-0.5m-139.2 5.5c-0.2 3.9-1.3 8.3 0.8 11.9 2.6 1.9 5.7 2.9 8.6 4.2 1.4 1 3-0.4 3.5-1.8 1.4-3.4 2.2-7.9-0.5-11-3.7-2.1-8.2-2.5-12.4-3.3m92.1 2.4c-3 1.7-3.4 5.7-4.5 8.7-1.6 6.6-4.3 13.1-4.2 19.9 1.5 2 4 3 6.2 4 10.8 4.4 21.3 9.4 32 14 2.4 1.1 5.1 1.4 7.7 1.7 0.3-3.6 0.5-7.2 0.5-10.8 0-7.5 1.7-15 2.5-22.4 0-1.2 0.5-2.8-0.8-3.5-2.4-1.7-5.3-2.2-8.1-3-6.3-1.6-12.3-4.2-18.7-5.4-4.2-0.8-8.2-2.9-12.6-3.2m-30.1 21.6c0 4.5-0.5 9.1 0.3 13.6 0.5 2.7 3 4.3 5.2 5.5 4.7 2.4 9.6 4.7 14.9 5 0.3-4.9 1.3-9.8 0.8-14.7-0.9-2.1-3.2-2.9-5-3.9-5.2-2.4-10.3-5.6-16.2-5.5z" fill="#AC6331" stroke="#AC6331"/>
  <path d="m472 628.1c2.8-1.6 6.1-1.8 9.2-2.4 0.7 2.8 1.5 5.6 2.4 8.4-1.5 2.1-2.9 5-5.8 5.5-2.3 0.6-4.4-1-5.2-3.1-1.1-2.6-2.2-5.9-0.6-8.4z" fill="#806F32" stroke="#806F32"/>
  <path d="m590.7 627.7c10-2.3 20.6-1.9 30.5 0.7 0.6 3.1 0.8 6.3 2.4 9.1 1.2 1.5 3.2 2 4.9 2.8 0.9-1.8 1.9-3.5 2.8-5.3-0.1 3.9-0.4 7.9-0.4 11.8-0.1 4.3 3.1 7.5 5.8 10.4 3 3.3 6.1 6.4 9.6 9.1-0.8 0.2-2.3 0.7-3.1 0.9-0.1 3-0.9 6.2 0.4 9.1 2 2.2 4.9 3.3 7.5 4.7 5.5 2.7 10.3 6.6 15.6 9.8 4.1 15.7 7 31.8 9 47.9 0.8 6.1 0.8 12.2 1.8 18.2-3.5-2-6.9-4-10.4-6.1-0.3 5.4-1.3 11-0.2 16.4 1.5 5.2 7 7.4 11.3 9.8 0.2 9.2 3 18.3 1 27.4-3.9-2.3-7.6-5.7-12.3-6.1-2.4 0-1.9 3-2.2 4.6 0 5.5-1.2 11.3 0.5 16.8 3.7 3.9 9.6 4 14.6 3.3 0.1-4 0.6-8 1.9-11.8 0.3 0.9 0.7 1.9 1.1 2.8-2.3 3.6-1.8 8-1.5 12.1-1.9 7.2-0.5 14.6-1.7 21.9-5.4 0.4-10.8 0.4-16.2 0.4 0.6-9.7 1.1-19.4 0.3-29.1-6.5-1-13.1-2.2-19.2-4.6 0.6-8.5 1.2-17 1.5-25.6 6.5 2 12.4 5.4 18.7 7.8 1.1-7.1 1.6-14.3 1.9-21.5 0.1-3 0.1-6.5-2.7-8.3-5.5-4.1-12.1-6.6-17.8-10.6-0.8-7.1-1.5-14.3-1.5-21.5 4 1.5 8.1 3.1 11.4 5.8 3.7 3 7.1 6.4 11.5 8.4 1.5-8.4 1.3-16.9 1.1-25.3 0.3-5.1-4.8-7.7-8.3-10.4-5.8-3.7-11.2-8.4-17.8-10.7-0.7 3-1.5 5.9-2.3 8.9-2-4.8-3.9-9.8-6.4-14.4 2.6 1.8 5.5 2.9 8.6 3.8 0.3-7.3 1-14.6 0.1-21.8-0.3-2.5-2.6-4.1-4.6-5.2-4-2.1-8.3-3.3-12.4-4.9-1.8 4.5-2 9.3-1.8 14-2.6-4.7-5.3-9.4-6.4-14.8 2.2 0.2 4.4 0.3 6.7 0.5 0.8-6.6-0.6-13.2-0.6-19.8-0.1-3.2 0.2-6.6-0.9-9.7-1-2.7-4.3-3.3-6.8-4-7.2-1.6-14.2-4.4-21.7-4.3-1.2 5.9-1.8 11.9-2.2 17.9-8.2-0.5-16.4-1.4-24.5-3.2 0.4-4.8 0.5-9.5 0.6-14.3 7.8-0.4 15.3-2.1 22.8-3.8z" fill="#884D27" stroke="#884D27"/>
  <path d="m520.8 628.7c3.8-0.7 7.6-1.4 11.5-1.6 0.5 0 1.5-0.1 1.9-0.1 0.1 1.2 0.1 2.4 0.2 3.6 0.1 9.5-2.3 19-0.7 28.4 10.7-0.3 21.5 0.4 32.2-0.1l1.5-11.7c0-0.3 0.1-0.9 0.1-1.2 8.1 1.7 16.3 2.7 24.5 3.2l-0.1 1c-0.5 4.2-0.5 8.4 0 12.6 6.3 0.4 12.6 1.6 18.8 3 2.3 0.9 4.5 2 6.8 2.8 1.1 5.3 3.8 10 6.4 14.8l0.1 0.8c0.3 3-0.1 6.1 1.2 8.9 2.2 2.3 5.5 2.7 8.3 3.9l0.5 0.5c2.6 4.6 4.4 9.5 6.4 14.4 1.5 5.9 0.5 12.1 0.9 18.1 0.1 2.3 1.8 3.9 3.4 5.3 0 7.2 0.7 14.3 1.5 21.5-2.1-0.5-4.3-1-6.4-1.5-0.5 9.5-2.1 19.1-1.2 28.7 0.1 3.5 4.1 4.2 6.6 5.2l0.8 0.3c-0.3 8.5-0.9 17-1.5 25.6 0 0.3-0.1 0.8-0.1 1.1-2.1-0.5-4.1-1.1-6.2-1.2-1.6 2.4-1.5 5.5-1.6 8.2 0 6.7-0.3 13.4-1 20.1l-0.7 0.7c-5.8-7.4-11-15.3-17.1-22.5 0.1-3.9 0-7.9-0.1-11.8-2.6-0.2-5.2-0.4-7.9-0.5-6.3-10.4-11.8-21.2-17.3-32 9.3-1.2 18.1 2.6 27.2 4 0.8-6.4 0.8-12.9 1.6-19.3 0.3-3.8 0.8-7.5 0.2-11.3-0.1-2.2-2.4-3.1-4.1-3.9-10.4-3.9-21.4-5.4-32.3-7.3-1.8 7.9-2.4 16.1-0.5 24-4.1-7.9-8-15.9-12.2-23.7 3.7-1.1 7.6-1.1 11.4-0.8 1.1-5.6 3-11.5 1.5-17.1-7.4-3.4-15.9-2.4-23.8-2.4-0.8-1.4-1.5-2.7-2.2-4 0.7-0.6 1.5-1.2 2.2-1.7 0.4-7.9 0.4-15.8 1.6-23.7 0.5-3.5 0.7-7 0.8-10.5-7.2-0.2-14.4-0.7-21.6-0.1-0.1 1.2-0.2 2.4-0.2 3.6-7.8-16.8-15.9-33.5-22.5-50.8 0.4-1.3 0.8-2.4 1.2-3.5m45.5 33.6c-1.3 5.4-0.6 11.1-0.4 16.6 8 0 15.8 3.1 23.9 2 0.7-6 0.5-11.9 0.9-17.9-6.8-1.7-13.8-2.7-20.7-2.5-1.3 0.3-3.4 0.2-3.7 1.8m22.8 21c-1.1 5.5-0.9 11.2-1.2 16.8-0.2 6.9-2 13.6-1.8 20.6 7.3 0.3 14.5 2 21.7 3 5.2 1.1 10.5 2.3 15.8 1.5-0.1-9.1 0.7-18.1 0.4-27.2-0.3-1.8 0-4.1-1.7-5.3-7.8-4.5-17-5.2-25.2-8.7-2.5-1-5.3-0.7-8-0.7m35 44.6c0.1 6.2-2.4 12.6-0.7 18.6 4.2 2.6 8.8 4.8 13.7 5.7 3.5 0.4 3.2-3.9 3.3-6.2-0.1-4.1 0.8-8.6-1-12.4-4.2-3.6-10.2-4-15.3-5.7m-4.3 54.8c-0.8 3-0.5 6.2-0.7 9.3-0.2 6.2-1.8 12.4-0.1 18.5 5.9 0.7 11.8 2.5 17.8 2.4 0.7-6.8 1.5-13.6 1.9-20.4 0.1-2.3 0.1-5.5-2.5-6.6-4.3-1.8-8.7-3.5-13.3-4.6-1.3-0.3-2.4 0.4-3.1 1.4z" fill="#AB6331" stroke="#AB6331"/>
  <path d="m534.2 627c5-0.2 10-0.5 15-0.1 6 2.5 12.2 5.2 18.8 4.8-0.1 4.8-0.3 9.5-0.6 14.3 0 0.3-0.1 0.9-0.1 1.2-4.8-1.6-9.8-2.4-14.6-3.9-7.3-2.3-11.7-9.1-18.3-12.6 0-1.3-0.1-2.5-0.2-3.7z" fill="#C73722" stroke="#C73722"/>
  <path d="m696.4 632.1c2.7-3.2 6.4-5.7 10.7-5.5 8.4 0.3 16.8 1.7 25.2 2.6-1.7 2.6-3.5 5.2-5.5 7.7h-1c-6-0.2-11.9-1.4-17.9-1.8-4-0.3-7.8-1.5-11.5-3z" fill="#F7472D" stroke="#F7472D"/>
  <path d="m386 633.4c11.4-3.9 23.6-0.9 35.2-3.8 2.8-0.4 7.1-1.6 8.4 1.8 0.3 2.3 0 4.8-1.4 6.7-2.6 2-6 2.3-9.1 2.9-6.4 1.2-13 1.9-19.3 3.3-3.8 0.8-7.6 0.7-11.5 0.5-1.4-3.7-2.2-7.5-2.3-11.4z" fill="#E34129" stroke="#E34129"/>
  <path d="m621.2 628.4c3.6 0.8 7.1 1.7 10.7 2.6-0.2 1.4-0.5 2.7-0.7 4.1-0.9 1.8-1.8 3.5-2.8 5.3-1.7-0.9-3.7-1.4-4.9-2.8-1.5-2.9-1.7-6.1-2.3-9.2z" fill="#685828" stroke="#685828"/>
  <path d="m258.3 632.3c0.6-2.1 3-1.6 4.6-1.8 6.4 0 12.7 0.7 19.1 0.6 6.7 0 13.2 1.8 19.9 2-0.1 7.8-0.4 15.7-0.2 23.5-7.4-0.1-14.5 2-21.8 2.4-6.4 0.5-12.6 2.4-19 2.2-1.6-0.2-4.1 0.3-4.5-1.9-1.4-4.3-0.8-9-0.6-13.5 0.5-4.4 0.6-9.2 2.5-13.5z" fill="#E64029" stroke="#E64029"/>
  <path d="m534.4 630.6c6.6 3.5 11 10.4 18.3 12.6 4.8 1.5 9.8 2.3 14.6 3.9l-1.5 11.7c-10.7 0.6-21.5-0.1-32.2 0.1-1.5-9.4 0.9-18.8 0.8-28.3z" fill="#FB472D" stroke="#FB472D"/>
  <path d="m594.1 631.1c7.5-0.1 14.5 2.7 21.7 4.3 2.5 0.7 5.7 1.3 6.8 4 1.1 3.1 0.8 6.5 0.9 9.7 0 6.6 1.3 13.2 0.6 19.8-2.2-0.1-4.5-0.2-6.7-0.5-2.3-0.8-4.5-1.9-6.8-2.8 1.5-0.2 3-0.5 4.5-0.8-2.3-4.4-4.7-9.1-9.1-11.8-4.2-2.7-9.4-2.7-14.2-3l0.1-1c0.4-6 0.9-12 2.2-17.9z" fill="#C83723" stroke="#C83723"/>
  <path d="m631.9 631c0.6 0.1 1.7 0.4 2.2 0.5-0.9 2.2-1.7 4.4-2.5 6.6 3.6 1.9 7.4 3 11.5 3.2-0.1 0.3-0.2 1-0.2 1.3-0.3 1.5-0.6 3.1-0.9 4.7-3.4-1-6.9-1.8-10.4-2.4 0.7 2.9 0.8 6.3 3.2 8.4 1.9 1.8 4.8 1.8 7.3 2.4 0.2-2.3 0.3-4.5 0.4-6.8 0.8 2.6 1.6 5.2 2.3 7.8-1.3 1.1-2.5 2.3-3.7 3.4-1.5-0.9-2.9-1.7-4.3-2.6-2.7-2.9-6-6.2-5.8-10.4 0-4 0.3-7.9 0.4-11.8 0-1.6 0.2-3 0.5-4.3z" fill="#B85B2D" stroke="#B85B2D"/>
  <path d="m681.8 634.8c1.6-1.5 3.1-3.4 5.5-3.5 2.8-0.3 5.2 1.3 7.6 2.5-0.3 1.1-0.5 2.3-0.8 3.4h-1c-4 0.7-7.9-0.4-11.3-2.4z" fill="#8B6C31" stroke="#8B6C31"/>
  <path d="m743.8 632.8c3.4-2.1 7.6-2 11.4-2.1 4.9 0.6 9.8 1.8 14.7 2.2s9.8 0.5 14.6 1.5c-1.6 2.1-3.2 4.3-4.6 6.5l-0.8 0.4c-6.1 0.2-12.2-0.2-18.2-1.1-7.1-1.1-14.3-0.8-21.5-1.6 1.3-2.2 2.2-4.6 4.4-5.8z" fill="#F6482E" stroke="#F6482E"/>
  <path d="m634.1 631.5c0.7 0.1 2 0.4 2.6 0.5 2.4 0.5 4.7 1 7.2 1.4-0.2 2.6-0.5 5.2-0.9 7.8-4-0.2-7.9-1.3-11.5-3.2 0.9-2.2 1.8-4.3 2.6-6.5z" fill="#F8442C" stroke="#F8442C"/>
  <path d="m322.2 633.3c15.8 0.1 31.6 0.1 47.4 0.1 0.9 5 2.7 10.1 1.2 15.2-9.4 0-18.5 2.3-27.8 2.7-7.1 1.4-14.3 2.5-21.5 1.7-0.4-6.7-0.3-13.3 0.7-19.7z" fill="#E64029" stroke="#E64029"/>
  <path d="m652.6 633.8c4.7-0.2 9.5-0.7 14.2-0.9 4.7 1.5 9.5 2.3 14.4 2.7-0.8 4.5-2 9-3.5 13.4-7.6 0.3-15.3-0.6-22.4-3.4-3.8-2.7-0.5-7.8 0.2-11.4-0.5-0.1-1.6-0.2-2.1-0.3l-0.8-0.1z" fill="#FA462D" stroke="#FA462D"/>
  <path d="m100.3 658.3c30.6-18.1 66.9-24.1 102.1-24-3.6 11.3-4.8 23.2-4.7 35.1-0.6 0-1.9-0.2-2.6-0.2-3.1-0.8-6.1-2-9.1-3.1-7.1-2.4-14.6-3.1-21.9-4.3-5-0.9-10-1.2-15.1-1.1 0 0.5 0.1 1.6 0.1 2.1 0 7.5-0.2 15.1 0.7 22.6 0.1 2.4 2.3 3.7 4.1 4.9 5.9 3.5 13 3.7 19.7 2.8-4.7 4.4-10.9 6.5-15.7 10.8-12.4 10.3-22.7 24.1-26 40-2.1 7.7-1.3 15.8-1.9 23.6 0.1 10 0.3 20.1 2 30 1.2 7.3 1.4 14.8 4 21.8 0.3 2.1 0.5 4.2 0.6 6.3-2.9-2.1-5.6-4.5-7.5-7.6-5.8-9.1-12.5-17.8-17.5-27.4-4.2-8.5-6.8-17.6-9.3-26.7s-1.8-18.6-1.9-27.9c-0.3-13.8 4.9-26.9 7.3-40.3-2.6 1.6-5 3.5-7.1 5.8-5.6 6.1-11.7 11.7-16.3 18.7-5.1 7-8.5 14.9-11.5 23-4.2 10.8-4.8 22.5-5.1 33.9 0.5 9.8 1 19.7 3.1 29.3 0.5 2.5 0.8 5.1 1.2 7.6-1.1-0.6-2.1-1.2-3.2-1.8-3.3-11.4-6-22.9-9.3-34.3-3.4-11.6-3.4-23.8-3.6-35.8 0-8.2 1.7-16.3 3.2-24.3 1.7-4.2 3.5-8.3 5.5-12.3 1.7-3.5 4.7-7.1 2.7-11.2-5.4 4.4-8.9 10.5-13.5 15.6-3.6 4-6.6 8.5-8.7 13.5-2.5 4.3-4.9 8.8-8.2 12.6 2.3-5 4.2-10.2 7-15 13.3-25.1 31.8-48.2 56.4-62.7z" fill="#DDB54F" stroke="#DDB54F"/>
  <path d="m431.5 637.7c3.4-0.9 8.3-2.5 10.8 0.9 1.9 2.1 3.8 4.5 4.6 7.3-0.5 2.1-3 2.6-4.7 3.3-3.9 1.3-8 0.3-11.8-0.5-0.2-3.6-2-8.2 1.1-11z" fill="#7E6F33" stroke="#7E6F33"/>
  <path d="m726.9 636.8c3.2 0 6.3 0.1 9.5 0.3 0.4 1.3 0.9 2.6 1.3 3.9-1.9 0.6-3.8 1.3-5.8 1.8-2.2 0-4.4-0.2-6.5-0.4 0.1-1.9 0.3-3.8 0.5-5.7l1 0.1z" fill="#8C6C32" stroke="#8C6C32"/>
  <path d="m693.1 637.3h1c4 0.2 7.9 1.7 11.9 1.7 5.8 0.1 11.4 1.1 17 2.4-1.8 4-3.1 8.4-6.2 11.6-5.3 0.7-10.6-0.3-15.9-0.3-4.4 0-8.7-1.1-12.9-2.3 0.7-4.7 2.5-9.2 5.1-13.1z" fill="#F9462E" stroke="#F9462E"/>
  <path d="m812.2 637.2c1.2 0.1 2.4 0.2 3.7 0.3 6.2 1.1 12.5 1.3 18.7 1.8 8.3 2.3 17 1.1 25.5 2.3-4.4 3-8 8.3-14 7.6-13.9-0.5-27.6-3.1-41.4-4.9 2.2-2.6 4.7-5 7.5-7.1z" fill="#F8472D" stroke="#F8472D"/>
  <path d="m449.9 647.7c4.8-4.4 11.4-4.5 17.4-6.2 2.9-0.9 6-0.8 9-0.3-1.2 3.4-5 3.9-8 5-4.9 1.5-9.5 3.8-14.6 4.8-0.7 0.1-2 0.4-2.6 0.5-0.4-1.4-0.8-2.6-1.2-3.8z" fill="#D9432A" stroke="#D9432A"/>
  <path d="m477.4 643.3c1.5-3 6-3.1 7.7-0.3 1.8 1.5 1.3 3.8 1 5.8-2.6-0.1-5.3-0.1-7.9-0.1-0.3-1.8-0.7-3.6-0.8-5.4z" fill="#816D31" stroke="#816D31"/>
  <path d="m731.9 642.9c2-0.5 3.9-1.2 5.8-1.8 1.8 1.3 4 1.9 6.3 2 9.1 0.7 18.2 2 27.1 4.3-2.3 4.1-4.2 8.8-8.2 11.6-4.3 1-8.8-0.2-13.1-0.8-7.7-1.6-16-0.6-23.3-4 1.6-3.9 3.5-7.6 5.4-11.3z" fill="#FA462E" stroke="#FA462E"/>
  <path d="m779.2 641.1l0.8-0.4c5.4 0.8 10.8 1.3 16.2 2.2 2.2 0.2 4 1.6 5.7 2.9-2.9 2.2-6 4.7-9.9 4.6-5.3 0-10.6-0.5-15.7-1.9-1.8-0.5-2.5-2.4-3.5-3.8 2-1.1 4.2-2.4 6.4-3.6z" fill="#886E33" stroke="#886E33"/>
  <path d="m965.9 642.3l4.2-0.9c3.7 3.2 7.2 6.7 10.2 10.6-1.1 0.3-2.3 0.6-3.4 0.9-6 0.9-12.1 0.8-18.1 0.4 2.7-3.4 5.2-7 7.1-11z" fill="#B3321D" stroke="#B3321D"/>
  <path d="m642 647.2c0.3-1.6 0.6-3.1 0.9-4.7 2.9 0.8 6.1 1.2 8.6 3.1 1.8 1.3 0.6 3.8 0.7 5.6-3.7-0.7-7.2-1.9-10.2-4z" fill="#8B6C33" stroke="#8B6C33"/>
  <path d="m893.5 643.4c3.2-0.3 6.5-0.7 9.7-0.8 6.4 0.4 12.9 0.6 19.3 0.7 4.4 0 8.7-0.2 13.1-0.1 1.9 0 3.8 0.1 5.7 0.2-0.3 0.5-0.8 1.5-1.1 1.9-8.6-0.4-17.2-0.1-25.8-0.1-5.7-0.2-11.5-0.3-17.2-0.6-1.2-0.4-2.4-0.9-3.7-1.2z" fill="#BF7D64" stroke="#BF7D64"/>
  <path d="m941.4 643.3c8.2 0.3 16.4-0.3 24.5-1-1.9 3.9-4.4 7.6-7.2 10.9-0.5 0.6-0.9 1.2-1.3 1.8-7.5-0.8-15 0.2-22.5-0.7 1.8-3 3.6-6 5.4-9.1 0.2-0.4 0.8-1.4 1.1-1.9z" fill="#F9472D" stroke="#F9472D"/>
  <path d="m375.2 647.4c3.9-1 8-2.2 12.1-1.8 4.1 3.2 6.5 8.2 7.8 13.1-6 2-12.4 2.9-18.7 2-1.2-3.1-2.8-6-3.8-9.2-0.6-1.7 0.7-3.8 2.6-4.1z" fill="#806F33" stroke="#806F33"/>
  <path d="m631.5 644.8c3.5 0.6 7 1.4 10.4 2.4l0.4 1.6c0 2.3-0.2 4.5-0.4 6.8-2.5-0.6-5.3-0.5-7.3-2.4-2.2-2.1-2.4-5.5-3.1-8.4z" fill="#F8452D" stroke="#F8452D"/>
  <path d="m875.5 652.4c1.9-3 4.4-5.8 7.9-7 4.5-1.4 9.2-0.9 13.8-0.9 5.7 0.3 11.5 0.4 17.2 0.6-1.3 3.5-3.2 6.8-5.5 9.7h-1.1c-10.8 0.6-21.5-2.1-32.3-2.4z" fill="#F9462E" stroke="#F9462E"/>
  <path d="m488.6 646.6c3 5.3 5.5 10.9 7.9 16.5-2.6 0.8-5.2 1.6-7.7 2.3l0.6 1.5c-1.9-0.1-3.8-0.2-5.6-0.2 0.8-2.6 1.7-5.2 2.5-7.8 1.2-4 2.1-8.1 2.3-12.3z" fill="#F7462D" stroke="#F7462D"/>
  <path d="m591.8 650c4.8 0.3 10 0.3 14.2 3 4.3 2.7 6.8 7.4 9.1 11.8-1.5 0.3-3 0.5-4.5 0.8-6.2-1.4-12.4-2.5-18.8-3-0.5-4.2-0.5-8.4 0-12.6z" fill="#F9462E" stroke="#F9462E"/>
  <path d="m676.9 651c3.6-0.5 7.9-1.6 10.9 1.2 1.8 1.5 0.2 4.1-0.8 5.7-1.9 2.8-5.9 1.9-8.4 0.5-2.2-1.7-1.5-4.9-1.7-7.4z" fill="#866F34" stroke="#866F34"/>
  <path d="m846.4 652.4c7.8-4.1 16.8-1.8 25-0.7 0.4 1 0.9 2 1.4 3.1-2.7 1.9-5.2 4.1-8 5.9l-0.7 0.4c-6.8-0.2-13.5-1.7-20.2-2.7 0.3-2.1 0.2-4.8 2.5-6z" fill="#876F34" stroke="#876F34"/>
  <path d="m415 654.8c6.9-1 13.5-4.4 20.7-3.5 0 1.7 0.1 3.5 0.1 5.2-6 2.2-12.5 2.8-18.6 4.9-4.7 1.3-9.3 3.2-14.2 3.5-3.3 0.5-4.7-2.9-6.3-5 5.4-3.5 12.1-4 18.3-5.1z" fill="#DF412A" stroke="#DF412A"/>
  <path d="m440.4 654.4c3.4-1.7 7.1-2.5 10.8-3.1 0.7-0.1 2-0.3 2.6-0.5 1.8 1.8 3.6 3.6 5.5 5.3-2.2 3.4-5.9 5.9-10.1 5.7-3.4-0.3-8-0.7-9.5-4.5-0.8-0.9-0.6-2.4 0.7-2.9z" fill="#806D33" stroke="#806D33"/>
  <path d="m462.7 657.7c6.3-4 13.3-7.5 21-6.9 0.4 1.1 0.8 2.3 1.2 3.5-5.5 2.6-11 5.1-16.6 7.2-1.3-0.3-2.6-0.6-3.9-0.9-0.6-1-1.2-1.9-1.7-2.9z" fill="#DF422B" stroke="#DF422B"/>
  <path d="m651.8 653c1.6-0.6 3.4-1.8 5.2-1.1 4.3 1.3 8.5 2.8 12.9 3.6 2.5 0.7 5.7 1.2 6.9 3.9 1.2 3 0.9 6.2 1.1 9.4-6-1.8-11.7-4-17.7-5.8-1.9-0.6-4-1.2-5.6-2.4-2.1-2-2.2-5.1-2.8-7.6z" fill="#F8462D" stroke="#F8462D"/>
  <path d="m784.1 662.1c4-3.6 7.2-9.9 13.4-9.7 13.9 0 27.4 4.6 41.3 5 0.3 0.5 0.8 1.4 1 1.9-2.7 4.6-5.3 9.5-9.3 13.2-3.2 1.1-6.7 0.1-9.9-0.6-7.1-2.1-14.4-3.1-21.6-4.8-4.5-1.2-9.1-1.9-13.7-2.4-0.4-1-0.8-1.8-1.2-2.6z" fill="#FB462D" stroke="#FB462D"/>
  <path d="m306.2 655.5c4.5-0.7 9-1.3 13.6-1.2 1.8 0 2.6 2.1 3.3 3.5 1.7 4.3 3.3 8.6 4.9 13-7.1 1.5-14.4 2.7-21.7 2.1-1.5-4.2-3.9-8.2-4.2-12.7-0.2-2.4 1.8-4.5 4.1-4.7z" fill="#7F6F33" stroke="#7F6F33"/>
  <path d="m908.9 654.8c8.1-0.4 16.2-0.8 24.2 0.4-1.9 4-3.5 9.7-8.7 10.1-7.2 0.5-14.6 0.1-21.6-2.2 1.5-2.8 3.2-5.6 5-8.3h1.1z" fill="#867034" stroke="#867034"/>
  <path d="m716.7 655.7c2.5-1.5 5.4-0.8 8.2-0.8-0.5 4-1 7.9-1.3 11.9-3.2 0.8-7.4 1.4-9.1-2.2-0.2-3.1 0.6-6.3 2.2-8.9z" fill="#856F33" stroke="#856F33"/>
  <path d="m636.6 657.3c1.4 0.9 2.9 1.8 4.3 2.6 1.2-1.1 2.5-2.3 3.7-3.4 2.6 1.2 5.5 2 7.3 4.4 1.6 2.3 2.2 5.1 3 7.8-1.5 0.3-2.9 0.6-4.4 0.9-1.5-1-3-2.1-4.4-3.2-3.3-2.7-6.5-5.8-9.5-9.1z" fill="#857033" stroke="#857033"/>
  <path d="m951.1 669c1.5-3.7 3.1-7.4 4.7-11 0.2 0.7 0.5 2.1 0.6 2.8 4.2-0.2 8.4-0.4 12.5-0.7 13.9-1 27.9 0.1 41.8 1 3 0.4 6.1 0.5 8.8 1.9-8.2 0.7-16.5 0.1-24.6 1-8.5 0.7-17.1 1.8-24.6 6.1 7.5 1.8 15.2 1.8 22.8 2.5 11.8 1 23.6 1.6 35.3 3.8 17.1 3 33.4 9.4 48.6 17.4 6.7 3.3 12.9 7.8 20.1 10 12.7 3.6 25.5 7.7 37.3 13.8 0.6 2.1 1.5 4.2 3.2 5.6 7.8 7.2 14.9 15.3 21.2 23.8 4 5.2 6.4 11.4 10.7 16.4l1.5 3c4.5 9.3 7.6 19.3 8.7 29.6 0.9 9.6 0.9 19.2-0.2 28.8-0.5-0.2-1.4-0.5-1.9-0.7-0.3-10.9-2.8-21.6-7.1-31.6-2.2-7.1-6.1-13.5-10.5-19.5-1.7-3-3-6.3-5.7-8.5-2.1-1.8-4.8-2.3-7.4-3-4.5-8.7-10.1-16.9-15.8-24.8-4.9-7-10.9-13.1-17.1-18.9-4.4-4.2-9.5-7.5-14.9-10.1-28.2-15.3-60.1-23.3-92-25.1-8.4-0.6-16.9 0.1-25.3 0.5-12.4 0.7-24.9 2.1-37.1 4.7 1.9-6.4 4.1-12.6 6.4-18.8z" fill="#DCB54E" stroke="#DCB54E"/>
  <path d="m761.3 663.2c1.4-2.5 4.7-3 7.3-2.5 4.5 0.8 9 1.8 13.5 2.6-1.9 5.3-5.3 9.8-8.4 14.4-2.1 3-6 1-8.8 0.5-2.6-1-6.8-1.1-7.7-4.3 0.6-3.8 2.1-7.4 4.1-10.7z" fill="#857134" stroke="#857134"/>
  <path d="m148.9 660.6c5-0.1 10.1 0.2 15.1 1.1 7.3 1.3 14.8 1.9 21.9 4.3 3.1 1 6 2.3 9.1 3.1l1.6 0.4c1.1 3.3 1.9 6.6 2.4 10-1.4 0.9-2.9 1.8-4.3 2.7-5.3-4.1-11.1-7.5-17.5-9.5-8.7-3.1-18.1-3.2-27.2-3.9-0.4-2-0.8-4-1.1-6 0.1-0.6 0-1.7 0-2.2z" fill="#8D5917" stroke="#8D5917"/>
  <path d="m566.3 662.3c0.3-1.6 2.4-1.5 3.7-1.7 7-0.2 14 0.8 20.7 2.5-0.4 6-0.2 11.9-0.9 17.9-8.1 1.1-15.8-2.1-23.9-2-0.2-5.5-1-11.2 0.4-16.7z" fill="#857236" stroke="#857236"/>
  <path d="m687 661c9.1 0.4 17.8 3.2 26.8 4.7 0.8 5.1 0.6 10.3 0 15.5-8.5-2-16.4-5.6-24.5-8.6-4.9-1.7-2.5-7.9-2.3-11.6z" fill="#F9472D" stroke="#F9472D"/>
  <path d="m864 661.1l0.7-0.4c4.8 0.4 9.4 2 14.2 1.9 7.4 0 14.8 0.5 22.3 0.7-0.2 2.5-0.5 5-1.7 7.2-2.9 5.3-5.3 10.8-7.8 16.4-2.8 0.1-5.7 0.2-8.4-0.6-7.8-2-15.5-4.1-23.4-5.6-2.4-0.4-4.5-1.5-6.6-2.7 2.3-6.3 6.5-11.7 10.7-16.9z" fill="#FB462E" stroke="#FB462E"/>
  <path d="m229.1 665.4c8.1-0.1 15.8-2.7 23.8-2.9 3.9 0 4 5 4.9 7.8 0.3 3.1 2.2 6.9 0 9.6-3.7 1.9-8 2.1-11.9 3-4.6 0.7-9 2.2-13.6 2.6-2.7 0.1-4.1-2.8-4.4-5-0.6-5.1-0.9-10.4 1.2-15.1z" fill="#7F6F34" stroke="#7F6F34"/>
  <path d="m149 662.7c0.3 2 0.7 4 1.1 6 9.1 0.7 18.5 0.8 27.2 3.9 6.4 2 12.2 5.5 17.5 9.5l0.6 0.4c-1 0.4-2 0.7-2.9 1.1-13.5-0.4-26.8 2-40.2 3.3 0.5 1.1 1 2.1 1.4 3.2-1.8-1.2-4-2.5-4.1-4.9-0.8-7.4-0.6-15-0.6-22.5z" fill="#B57830" stroke="#B57830"/>
  <path d="m361.6 664.8c5.1-0.5 10.1-2.7 15.2-1.5 2.9 1 4 4.2 4.1 7-11.2 3.4-22.6 5.6-33.8 8.9-2.9 0.8-6.3 2-9-0.1-3.3-2.4-7.1-5.1-8.1-9.3 10.7-0.7 20.9-4.2 31.6-5z" fill="#E44029" stroke="#E44029"/>
  <path d="m441.6 663.8c4.5-1.7 9.6-0.6 12.9 2.9-11.7 4.7-23.5 8.9-35.3 13-3.1-1.1-6.3-2.5-7.5-5.8 10-3.1 20-6.3 29.9-10.1z" fill="#E04228" stroke="#E04228"/>
  <path d="m488.7 665.5c2.6-0.7 5.2-1.5 7.7-2.3 1.7 3.6 3.9 7 5.6 10.7-0.5-0.1-1.7-0.3-2.2-0.4 1.4 3.7 2.9 7.4 4.2 11.2-10.2 2.9-20.1 6.9-29.1 12.4 2.6-10.2 5.8-20.2 8.8-30.2 1.9 0.1 3.7 0.1 5.6 0.2-0.2-0.6-0.4-1.1-0.6-1.6z" fill="#AB6331" stroke="#AB6331"/>
  <path d="m396.6 666.3c3.8-0.9 7.2 1.8 10.1 4 1.8 1.1 2 3.3 2.3 5.2-5.4 2-11 5.1-16.9 3.6-4.1-0.8-7.6-4.5-7.8-8.7 3.1-3.6 8.2-3.2 12.3-4.1z" fill="#806F33" stroke="#806F33"/>
  <path d="m926.5 667.4c1.4-1.8 3.8-1.2 5.7-1.1 6.3 0.8 12.8 0.7 18.9 2.6-2.2 6.2-4.5 12.4-6.2 18.8-0.8 3-1.6 6-2.1 9.1l-0.2 0.8c-7.6-0.4-15.1-2-22.6-3-1.8-0.4-4.3-0.7-4.8-2.8 0.2-4.6 2.9-8.6 4.9-12.7 2-3.9 3.4-8.3 6.4-11.7z" fill="#FB462D" stroke="#FB462D"/>
  <path d="m643.2 667.3c0.8-0.2 2.3-0.7 3.1-0.9 1.4 1.1 2.9 2.2 4.4 3.2 2 0.8 4 1.3 6 1.9 2.8 2.3 5.1 5 7.1 8 1.2 3.7 1.9 7.6 2.8 11.4-5.3-3.2-10-7.1-15.6-9.8-2.6-1.4-5.5-2.5-7.5-4.7-1.3-2.8-0.4-6.1-0.3-9.1z" fill="#C63723" stroke="#C63723"/>
  <path d="m1044.9 668.1c5.2-1 10.5 0 15.7 0.5 11.5 1.1 22.6 4.5 33.4 8.5 4.3 1.3 8.6 2.9 12.3 5.6 5.4 3.9 11.6 6.8 16.4 11.6 2.6 2.6 5.7 4.5 8.8 6.3 3.2 1.6 3.4 5.5 4.4 8.5-10.1-5.6-17.9-14.5-28.2-19.7-6-3-11.6-7-18.2-9-9.3-2.9-18.7-6-28.4-7.5-5.6-1-11.5-1.5-16.2-4.8z" fill="#FDE784" stroke="#FDE784"/>
  <path d="m625.6 669.1c4.1 1.6 8.4 2.9 12.4 4.9 2 1.1 4.3 2.7 4.6 5.2 0.9 7.2 0.2 14.6-0.1 21.8-3-0.9-6-2-8.6-3.8l-0.5-0.5c-3.2-4.2-6.4-8.5-9.5-12.8l-0.1-0.8c-0.2-4.7 0-9.5 1.8-14z" fill="#675929" stroke="#675929"/>
  <path d="m678.3 669.2c2.7 0.3 6 0.3 7.6 3 1.5 3.6 1.5 8.7-2.4 10.8-1.5-2-3-4-4.2-6.1-1.2-2.4-0.9-5.2-1-7.7z" fill="#866E33" stroke="#866E33"/>
  <path d="m722.2 668.9c6.7-0.2 13.2 2 19.7 3.2 4.7 0.9 9.5 1.5 13.9 3.4-0.5 6.1-1.9 12.1-3.7 18-7.1-0.3-13.4-3.6-20.1-5.5-3.2-1.1-6.9-2-9.2-4.7-1.4-4.7-0.5-9.6-0.6-14.4z" fill="#FA462E" stroke="#FA462E"/>
  <path d="m656.7 671.4c6.8 1.5 13.3 4.3 19.7 7.1 2.9 1.1 4.3 4 5.7 6.5-6.3-1.5-11.6-6.9-18.3-5.6-2-3-4.3-5.7-7.1-8z" fill="#E3513E" stroke="#E3513E"/>
  <path d="m303.6 673.9c2.4-0.6 3.8 1.9 5.1 3.4 2.5 3.7 6.3 6.7 7.4 11.2-8.8 2.9-17.2 6.9-26.1 9.7-4.3 1.4-8.1 4.6-12.8 4.6-4.7-2.4-7.6-7.1-10.9-11.2-2.9-3.5-4.8-7.7-5.4-12.2 14.4-0.6 28.4-3.9 42.7-5.5z" fill="#E64029" stroke="#E64029"/>
  <path d="m499.9 673.4c0.6 0.1 1.7 0.3 2.2 0.4 10.1 21.5 21.8 42.2 32.5 63.3-3.7 0.2-7.5 0-11.2-0.1 0.2-3.9 0.6-8-0.6-11.8-0.8-2.6-2.8-4.6-4.4-6.7-2.5-3.8-3.8-8.2-5.5-12.4-2.1-5.3-4.8-10.5-6.8-15.8-0.7-1.9-1.3-3.9-2-5.8-1.4-3.7-2.9-7.4-4.2-11.1z" fill="#8A4E24" stroke="#8A4E24"/>
  <path d="m828.6 675.5c7.1-2 14.1 2.8 21.3 3.1 0.6 3.7-1.9 6.6-3.4 9.7-1.4 2.6-2.4 5.5-4.7 7.5-4.7-0.2-9.2-2.1-13.8-2.9-2.1-0.5-5.4-1-5.2-3.9 0.7-4.9 3-9.5 5.8-13.5z" fill="#847135" stroke="#847135"/>
  <path d="m542.3 679.2c7.2-0.5 14.4-0.1 21.6 0.1-0.2 3.5-0.4 7-0.8 10.5-1.1 7.8-1.1 15.8-1.6 23.7-0.7 0.6-1.5 1.1-2.2 1.7-5.7-10.9-11.5-21.7-17.3-32.5 0.2-1.1 0.3-2.3 0.3-3.5z" fill="#FA462D" stroke="#FA462D"/>
  <path d="m332 682.9c2.9-0.8 6.1-2.2 9.1-0.9 5.6 2.2 10.8 5.6 15.2 9.7-5.7 2.6-11.8 4.4-17.2 7.6-1.6-0.2-3.2-0.3-4.8-0.4-4.5-2-9.1-4.2-12.9-7.3-1.6-1-1.6-3.3-0.6-4.7 3.5-1.9 7.4-2.7 11.2-4z" fill="#7F6F33" stroke="#7F6F33"/>
  <path d="m381.1 684.2c4.7-1.8 10-4.4 15-2.3 2.1 0.6 2.7 2.8 3.3 4.6-9.4 2.9-19 5.4-28.2 9-4.3 0.3-8.4-1.1-11.8-3.6 6.8-3.8 14.7-4.6 21.7-7.7z" fill="#E24128" stroke="#E24128"/>
  <path d="m715.1 680.9c3.1 1.3 6.8 2.3 8.3 5.7 1.5 2.6 1.3 5.6 0.5 8.4-3.2-1.1-7-2-8.7-5.2-1.7-2.7-0.6-6-0.1-8.9z" fill="#866E34" stroke="#866E34"/>
  <path d="m772.4 682.6c1.1-2.7 4.3-2 6.6-1.6 9.6 2.3 19.1 4.5 28.6 7.2 4.3 1.2 9.6 1 12.8 4.5 0.3 3.6-1.4 7-2.4 10.4-1.7 4.5-2 9.4-2.4 14.2-9-1-16.7-6.4-25.1-9.6-6.6-2.3-13.2-4.5-19.5-7.7-1.4-0.7-2.8-1.6-3.5-3 0.7-5.1 2.6-9.9 4.9-14.4z" fill="#FB462E" stroke="#FB462E"/>
  <path d="m195.4 682.6c1.1-0.2 2.3-0.3 3.4-0.5 1.4 3.9 2.8 7.9 4.5 11.7 1.5 3.1 3.2 6.1 5.3 8.8-9.2 15-16.3 31.6-18.1 49.3-2.7 16.3 1.3 32.5 2.5 48.6-1-1.9-2.1-3.7-3.1-5.5-1.1-2-2-4-2.9-6.1-4-10.8-6.9-22.3-7-33.9-0.3-8.7 0.9-17.3 2.2-25.8 1.5-6.2 3.3-12.6 7.2-17.8 2.1-2.9 4.4-5.7 6.5-8.6-10.2 3-17.6 11-24.9 18.3-10.2 9.4-15.4 23.1-17.6 36.6-1.1 8-1 16.1-2.9 24-0.5-2.4-1.2-4.9-1.7-7.3-0.5-3.3-0.7-6.5-0.8-9.8 0.1-11.9-0.1-24.1 3.8-35.5 5.8-14.6 17.3-25.8 27.9-37.1 4-3 8.3-5.6 12.6-8.2 1.2-0.5 2.1-0.8 3.1-1.2z" fill="#FCEC8D" stroke="#FCEC8D"/>
  <path d="m982 683.1c8.4-0.4 16.9-1.1 25.3-0.5 31.9 1.9 63.8 9.8 92 25.1 5.4 2.6 10.6 5.9 14.9 10.1 6.2 5.8 12.2 11.9 17.1 18.9 5.7 8 11.3 16.1 15.8 24.8 1.5 3.2 3.1 6.4 4.8 9.5 8.8 16 13.5 33.7 18 51.3 1.9 14 4.7 28.1 3 42.3-1.1-2.2-2.1-4.4-2.8-6.6-3.2-14.6-8.3-28.7-14.7-42.2-10.7-23.7-25.4-47.1-48.5-60.4-5.9-6.5-14.1-10.2-21.5-14.8-13.9-8.5-28.1-16.5-43.1-23-8.9-3.8-18.1-6.7-27.7-8.3-16.8-2.7-33.7-4.3-50.7-5.2-7.1-0.2-14.2 0-21.3-0.9 0-2.1-0.1-4.3 0-6.4 0.6-3.1 1.4-6.1 2.1-9.1 12.4-2.6 24.8-3.9 37.3-4.6m29.8 8.4c2.5 1.3 5.2 2.2 8 2.7 18.5 3.4 36.5 9.1 54 16 17 7 32.1 18 45.4 30.7 5.5 6.2 11.6 11.9 16.4 18.6 3 3.7 5.2 8.3 9.6 10.6-1-5.3-4.6-9.5-7.3-14-10-15.3-22-29.3-36.2-40.7-14.7-12.4-33.6-18.5-52.2-21.7-12.4-2.6-25.2-4.5-37.7-2.2z" fill="#FCD465" stroke="#FCD465"/>
  <path d="m152.3 687c13.4-1.4 26.7-3.7 40.2-3.3-4.3 2.6-8.6 5.2-12.6 8.2-2.1 0.4-4.3 0.8-6.5 1-6.7 0.9-13.7 0.8-19.7-2.8-0.4-1-0.9-2-1.4-3.1z" fill="#8C5917" stroke="#8C5917"/>
  <path d="m589.1 683.3c2.7 0 5.5-0.3 8.1 0.7 8.2 3.5 17.4 4.2 25.2 8.7 1.7 1.2 1.4 3.5 1.7 5.3 0.3 9.1-0.5 18.1-0.4 27.2-5.3 0.9-10.6-0.4-15.8-1.5-7.2-1.1-14.4-2.8-21.7-3-0.2-6.9 1.6-13.7 1.8-20.6 0.2-5.6 0-11.3 1.1-16.8z" fill="#FC462E" stroke="#FC462E"/>
  <path d="m687.5 683c5.9 1.2 11.6 3.1 17.3 5.2 3.4 1.3 7.1 2.1 10.1 4.2 1.8 2.7 2.1 6 2.8 9.1-6.6-2.8-12.9-6.3-19.7-8.5-4.1-1.2-7.6-3.7-11.2-5.9 0.2-1.4 0.5-2.8 0.7-4.1z" fill="#F4482E" stroke="#F4482E"/>
  <path d="m623.9 684c3.1 4.3 6.2 8.6 9.5 12.8-2.8-1.2-6.1-1.6-8.3-3.9-1.3-2.8-0.9-6-1.2-8.9z" fill="#846E31" stroke="#846E31"/>
  <path d="m474.9 697c9.1-5.5 19-9.5 29.1-12.4 0.7 1.9 1.3 3.9 2 5.8-4.8 10.2-2.8 22.3-8.5 32.1-2.8 2.8-7.2 3-10.8 4.2-6.6 1.6-12.8 4.7-19.4 6.5-0.1-1.8-0.2-3.5-0.2-5.3 2.1-10.4 4.3-20.9 7.8-30.9z" fill="#FB462D" stroke="#FB462D"/>
  <path d="m217.7 688.4c3.9-0.7 7.9-2.2 11.9-1.3 3.2 3.7 4.7 8.6 7.9 12.4 4.5 6.1 11.2 9.9 17 14.7-5.4 4.3-11.9 7.1-17.7 10.9-0.9-0.5-1.7-1-2.6-1.4-9.7-5.5-18.2-12.9-25.6-21.1-2.1-2.7-3.8-5.7-5.3-8.8 3.6-4.2 9.5-4.2 14.4-5.4z" fill="#E64029" stroke="#E64029"/>
  <path d="m891.5 689.5c3.1-0.9 6.4 0 9.5 0.5 4.1 0.9 8.4 1.7 11.9 4.1 1.3 1.5-0.3 3.5-0.6 5.2-1.9 4.5-2.8 9.5-5.4 13.7-1.8 2.6-5 1.1-7.3 0.5-3.8-1.3-7.8-2-11.3-3.8-3.2-1.8-1.6-5.7-1-8.5 1.2-3.9 1.4-8.5 4.2-11.7z" fill="#857135" stroke="#857135"/>
  <path d="m1011.8 691.5c12.5-2.3 25.3-0.4 37.7 2.1 18.7 3.2 37.6 9.3 52.2 21.7 14.3 11.4 26.3 25.4 36.2 40.7 2.7 4.5 6.3 8.7 7.3 14-4.4-2.3-6.6-6.9-9.6-10.6-4.9-6.8-10.9-12.4-16.4-18.6-13.2-12.7-28.4-23.6-45.4-30.7-17.5-6.8-35.5-12.5-54-16-2.8-0.4-5.5-1.3-8-2.6z" fill="#FCEC8C" stroke="#FCEC8C"/>
  <path d="m497.5 722.4c5.8-9.8 3.8-22 8.5-32.1 2 5.4 4.7 10.5 6.8 15.8 1.7 4.2 3.1 8.6 5.5 12.4-5.9 1.5-12.1 1.9-17.8 4.1-1.7 0.5-2.5 2.3-3 3.8-1.6 4.7-2 9.6-2.5 14.5 9.6-0.1 19.1-1.5 28.4-3.9-0.2 0.3-0.5 1-0.7 1.4-1.8 5.2-2.5 10.7-3.5 16.1-1.2 6.8-3.1 13.4-4.1 20.3 5.6 0.4 11.2 0.2 16.8 0.1 4 0 8 0 12-0.2 2.8 8.7 7.1 16.9 10 25.6 1.7 5.3 4.2 10.4 4.7 15.9 0.2 4.2-4 6.5-6.6 9.1 0-1.8-0.1-3.6 0-5.4 1.2-5.4 2.2-10.9 2-16.5-12.6-0.9-25.3-0.5-38-0.3-2.8 0.2-6.6-0.2-8.1 2.9-3.3 5.8-4 12.5-5.8 18.8-8.6-0.4-17.3-0.5-25.9-0.3 2.1-5.7 4.2-11.4 4.9-17.4-10-0.9-19.8 2-29.6 3.5 2.1-9.1 3.9-18.3 6-27.3 10.1 0.6 20-2.1 29.6-5 2.3-11.8 4.5-23.6 7.2-35.3-10.7-0.8-20.4 4.3-30.8 5.8 1.6-6.8 2.2-13.9 3.7-20.7 0 1.8 0.1 3.5 0.2 5.3 6.6-1.8 12.7-4.9 19.4-6.5 3.5-1.5 7.8-1.7 10.7-4.5m-4.6 55.5c-2 0.5-4.3 0.7-5.8 2.2-1.7 2.3-1.7 5.2-2.2 7.9-0.6 5.9-2.3 11.7-2.6 17.7 5.6 0.1 11.2-0.6 16.8-0.9 3.4-0.2 7.1-0.7 9.6-3.1 1.4-2.4 1.5-5.3 2.2-7.9 1-6.2 3.6-12.4 2.2-18.7-6.8 0.8-13.5 1.7-20.2 2.8z" fill="#AC6331" stroke="#AC6331"/>
  <path d="m53.8 709.8c4.6-5.1 8.1-11.2 13.5-15.6 2 4-1 7.7-2.7 11.2-0.2-1.5-0.4-3-0.7-4.5-7 6.9-11.8 15.6-18.9 22.4 2.3-5 5.3-9.5 8.8-13.5z" fill="#D0B36E" stroke="#D0B36E"/>
  <path d="m752.3 695c4.2 0.8 8.7 1.1 12.4 3.3 2.6 3 1.8 7.6 0.5 11-0.5 1.4-2.1 2.7-3.5 1.8-2.9-1.3-6-2.3-8.6-4.2-2.1-3.6-1-8-0.8-11.9z" fill="#857034" stroke="#857034"/>
  <path d="m725.4 696c8.2 1.9 16.2 5 23.7 8.9 4.5 2.2 2.6 8 2.9 12-0.8 0.1-2.4 0.3-3.2 0.5-6.9-3.5-13.9-7-20.7-10.6-1.5-3.5-2.4-7.1-2.7-10.8z" fill="#F8472D" stroke="#F8472D"/>
  <path d="m844.4 697.4c4.4 0.3 8.4 2.5 12.7 3.2 6.4 1.2 12.4 3.8 18.7 5.4 2.7 0.8 5.7 1.3 8.1 3 1.3 0.7 0.9 2.3 0.8 3.5-0.8 7.5-2.5 14.9-2.5 22.4 0 3.6-0.2 7.2-0.5 10.8-2.6-0.3-5.3-0.6-7.7-1.7-10.7-4.7-21.2-9.6-32-14-2.2-1-4.7-2-6.2-4 0-6.9 2.7-13.3 4.2-19.9 1.1-3.1 1.5-7 4.4-8.7z" fill="#FC462E" stroke="#FC462E"/>
  <path d="m295.4 714.2c12.1-7 25.7-10.7 38.9-15.3 1.6 0.1 3.2 0.2 4.8 0.4 3.4 1 6.6 2.5 9.8 4-13.5 5.3-27 10.9-39.7 18-4.9-1.6-9.9-3.6-13.8-7.1z" fill="#E44129" stroke="#E44129"/>
  <path d="m171.1 721.1c7.3-7.3 14.7-15.3 24.9-18.3-2.1 2.9-4.4 5.7-6.5 8.6-3.9 5.2-5.7 11.5-7.2 17.8-0.4-1.5-0.9-3-1.4-4.5-5.9 5.9-12.1 12-15.7 19.7-3.5 7.3-4.3 15.6-4.7 23.6-0.4 7-1.3 14.1-0.8 21.1 0.5 6.8 1.1 13.6 0.1 20.4-2-2.7-3.7-5.6-4.5-8.9-1.6-6.3-3.6-12.5-4.7-19 1.8-7.9 1.7-16 2.9-24 2.2-13.4 7.4-27.1 17.6-36.5z" fill="#FBD365" stroke="#FBD365"/>
  <path d="m208.6 702.6c7.5 8.2 15.9 15.7 25.6 21.1-17.7 11.8-28.9 31.9-31.5 52.8-0.9 8.1-0.7 16.3-0.3 24.5 0.5 8.8 4.6 16.6 6.4 25.1-6.2-7.9-11.5-16.5-15.9-25.6-1.2-16.2-5.2-32.4-2.5-48.6 2-17.7 9-34.4 18.2-49.3z" fill="#FDD465" stroke="#FDD465"/>
  <path d="m642.7 702.8c6.6 2.3 12 7 17.8 10.7 3.5 2.7 8.5 5.3 8.3 10.4 0.1 8.4 0.3 17-1.1 25.3-4.4-2-7.9-5.4-11.5-8.4-3.3-2.8-7.4-4.3-11.4-5.8-1.6-1.4-3.3-3-3.4-5.3-0.5-6 0.6-12.2-0.9-18.1 0.7-2.8 1.5-5.8 2.2-8.8z" fill="#C83724" stroke="#C83724"/>
  <path d="m266.6 708.6c3.7-1.3 7.3-3.5 11.3-3.4 5 2.1 9.4 5.5 14.2 8.2-0.9 1.8-1.4 4.3-3.6 4.9-5.2 2-10.3 6.5-16.2 4.3-4.7-2.1-9.2-4.9-14.3-6-0.5-5.1 4.9-6.5 8.6-8z" fill="#7E6F33" stroke="#7E6F33"/>
  <path d="m765.8 712c8.4 4.5 17 8.7 25.6 12.5 7.3 3.3 14.9 6.2 21.6 10.6 3.7 4.6 3.2 11.1 2.9 16.7-6.8-3-13.2-6.7-20-9.7-1.1-0.5-2.2-1-3.3-1.5-8.8-5.8-18.7-9.8-27.9-15-0.2-4.5-0.1-9.1 1.1-13.6z" fill="#FA462D" stroke="#FA462D"/>
  <path d="m905.8 718.7c0.8-3.2 4.7-2 7-1.7 8.9 2.3 17.5 5.7 26.3 8.1-0.9 8.5-0.7 17-1 25.5 0 0.7-0.1 2.2-0.1 2.9-0.1 2.5-0.3 5-0.3 7.6 0 1.6 0 3.2 0.1 4.8-10.6-0.8-20.3-5.1-30.2-8.5-1.6-0.7-3.9-1.4-3.8-3.5-0.8-5.6-0.3-11.3-0.3-16.9 0.3-6.1 0.3-12.4 2.3-18.3z" fill="#FC462E" stroke="#FC462E"/>
  <path d="m500.5 722.7c5.7-2.2 11.9-2.6 17.8-4.1 1.6 2.1 3.6 4.1 4.4 6.7 1.2 3.8 0.8 7.8 0.6 11.8-9.3 2.4-18.8 3.7-28.4 3.9 0.6-4.9 1-9.8 2.5-14.5 0.7-1.6 1.5-3.3 3.1-3.8z" fill="#847135" stroke="#847135"/>
  <path d="m561.6 719.3c7.9 0 16.4-1.1 23.8 2.4 1.5 5.7-0.4 11.5-1.5 17.1-3.8-0.4-7.7-0.4-11.4 0.8-3.7-6.8-7.3-13.6-10.9-20.3z" fill="#857135" stroke="#857135"/>
  <path d="m814.3 719c5.9-0.1 11 3 16.2 5.5 1.8 1 4.1 1.9 5 3.9 0.5 4.9-0.5 9.8-0.8 14.7-5.3-0.3-10.2-2.6-14.9-5-2.2-1.3-4.8-2.8-5.2-5.5-0.8-4.5-0.3-9.1-0.3-13.6z" fill="#857035" stroke="#857035"/>
  <path d="m262.3 735.8c4.6-4 8.9-8.9 14.8-10.9 6.7-0.5 13 2.6 19.1 5-3.2 2.5-5.9 5.5-8.7 8.4-1.5 1.4-3.1 3.3-5.4 3-6.1-0.2-12-2.3-18-3.3-0.6-0.7-1.2-1.5-1.8-2.2z" fill="#E64029" stroke="#E64029"/>
  <path d="m624.1 727.9c5.1 1.6 11.1 2.1 15.3 5.7 1.8 3.8 0.8 8.3 1 12.4-0.1 2.3 0.2 6.6-3.3 6.2-4.9-0.9-9.5-3.1-13.7-5.7-1.7-6 0.7-12.4 0.7-18.6z" fill="#857136" stroke="#857136"/>
  <path d="m1156.5 731.9c-4.9-8.5-10.2-16.7-15.8-24.7-3-3.7-6.3-7.1-9.3-10.8-9.9-9.8-21.1-18.2-33.4-24.7-15.4-7.9-31.8-13.8-48.9-16.4-7-0.6-14-1.6-20.9-2.3-15.8-0.8-31.7 0.1-47.6-0.6-1.2 0.2-2.4 0.4-3.6 0.5-6 0.9-12.1 0.8-18.1 0.4-0.5 0.6-0.9 1.2-1.3 1.8-0.6 1-1.1 2-1.6 3 0.2 0.7 0.5 2.1 0.6 2.8 4.2-0.2 8.4-0.4 12.5-0.7 13.9-1 27.9 0.1 41.8 1 3 0.4 6.1 0.5 8.8 1.9-8.2 0.7-16.5 0.1-24.6 1-8.4 0.7-17.1 1.8-24.6 6.1 7.5 1.8 15.2 1.8 22.8 2.5 11.8 1 23.7 1.6 35.3 3.8 17.1 3 33.4 9.4 48.6 17.4 6.7 3.3 12.9 7.8 20.1 10 12.7 3.6 25.5 7.7 37.3 13.8 7.9 4.1 14.9 10.1 19.8 17.6 3.7 5.5 6.8 11.3 10.5 16.8 0.1-0.7 0.3-2.2 0.4-3-2.5-6.1-5.6-11.7-8.8-17.2zm-48.9-42.5c-6-3-11.6-7-18.2-9-9.3-2.9-18.7-6-28.4-7.5-5.5-1-11.4-1.5-16.2-4.8 5.2-1 10.5 0 15.7 0.5 11.5 1.1 22.6 4.5 33.4 8.5 4.3 1.3 8.6 2.9 12.3 5.6 5.4 3.9 11.6 6.8 16.4 11.6 2.6 2.6 5.7 4.5 8.8 6.3 3.2 1.6 3.4 5.5 4.4 8.5-10.1-5.6-17.9-14.5-28.2-19.7z" fill="#FCD365" stroke="#FCD365"/>
  <path d="m952.5 737.9c6.2-1.3 12.5-2.2 18.9-2.5 4.4-0.3 8.5 1.2 12.6 2.6 9.4 3 18.6 6.6 27.2 11.3-2.4 0.7-4.7 1.6-6.9 2.7 3.7 7.3 12.7 8.2 18.3 13.5 8.5 7.6 19.3 12.4 26.9 21.1 2.3 2.7 5.2 4.8 8.3 6.6 0.5-1.4 1-2.8 1.6-4.1 2.2 2.3 4.3 4.8 6.3 7.3 4.8 6.2 10.1 12.2 12.4 19.7-9-5.9-17-13.1-26.1-18.9-4.4-3-9-5.9-13.7-8.4-7.2-5-14.8-9.3-22.5-13.6-4-3.4-8-6.9-12.5-9.6-9.5-5.8-19-11.8-28.8-17.2-7.1-4-14.9-6.4-22-10.5z" fill="#FCD364" stroke="#FCD364"/>
  <path d="m982 735.3c16.7-0.3 33.4-0.4 50 1.7 8.7 1.3 17.6 1.8 26.1 3.9-2.1-0.2-4.3-0.3-6.4-0.4-1 4.2-1.9 8.5-2.4 12.8-0.9 7.2-3 14.4-2.6 21.7-10.2-10.7-22.6-18.8-35.5-25.8-8.7-4.7-17.9-8.3-27.2-11.3-0.7-0.9-1.4-1.7-2-2.6z" fill="#B57930" stroke="#B57930"/>
  <path d="m523.4 737c3.7 0.1 7.5 0.3 11.2 0.1 7 12 13.7 24.1 19.9 36.6-3.5 0.4-7.1 0.8-10.6 0.9-4 0.2-8 0.1-12 0.2-0.1-0.4-0.3-1.2-0.5-1.6 3.8 0 7.7 0 11.5-0.2-1.5-4-3.2-8-5.1-11.9-3.7-7.4-6.5-15.3-10.6-22.5-1.5-0.1-3-0.2-4.5-0.2l0.7-1.4z" fill="#C83622" stroke="#C83622"/>
  <path d="m522.7 738.4c1.5 0.1 3 0.1 4.5 0.2 4.2 7.2 7 15 10.6 22.5 1.9 3.9 3.6 7.9 5.1 11.9-3.8 0.2-7.7 0.2-11.5 0.2 0.1 0.4 0.4 1.2 0.5 1.6-5.6 0.1-11.2 0.3-16.8-0.1 1-6.8 3-13.5 4.1-20.3 1-5.3 1.8-10.8 3.5-16z" fill="#FB462E" stroke="#FB462E"/>
  <path d="m585.2 739.2c10.9 1.9 21.9 3.5 32.3 7.3 1.7 0.7 3.9 1.7 4.1 3.9 0.6 3.7 0.1 7.5-0.2 11.3-0.7 6.4-0.8 12.9-1.6 19.3-9-1.5-17.8-5.2-27.2-4-2.6-4.6-5.6-9-7.9-13.7-2-8-1.4-16.2 0.5-24.1z" fill="#FC462E" stroke="#FC462E"/>
  <path d="m1049.2 753.3c0.5-4.3 1.4-8.6 2.4-12.8 2.1 0.1 4.3 0.2 6.4 0.4 0.4 0.1 1.3 0.2 1.7 0.3-1.5 13-3.4 26-5.6 38.8-1.2-0.2-2.4-0.4-3.6-0.5l-3.9-4.5c-0.4-7.3 1.8-14.5 2.6-21.7z" fill="#8D5817" stroke="#8D5817"/>
  <path d="m463.4 748.6c10.4-1.5 20.1-6.6 30.8-5.8-2.7 11.7-5 23.5-7.2 35.3-9.6 2.9-19.5 5.5-29.6 5 0.4-3.1 0.7-6.3 0.9-9.5 0.4 0.2 0.9 0.5 1.3 0.7 0.2-8.6 1.4-17.3 3.8-25.7z" fill="#FC462E" stroke="#FC462E"/>
  <path d="m834.3 744.7c2.3 0.4 4.6 1 6.6 2.2 9.9 5.6 20.8 9.1 31 14.2 3.8 2 7.9 3.6 12.3 4.1 0.2 0.5 0.5 1.5 0.7 2 2.1 6 5.5 11.9 5.3 18.5-3.1-1.4-6.2-2.9-9.2-4.4-5-2.5-10.5-3.7-15.4-6.3-8.2-3.8-16.1-8.7-25-10.4-1.7-1.3-3.4-2.5-5.2-3.5-0.2-5.6-0.8-11-1.1-16.4z" fill="#FA462D" stroke="#FA462D"/>
  <path d="m882.9 747.9c6.5 2.2 13.7 3.6 19.3 7.8 3 5.9 3 12.9 3.9 19.4-7.6-1.2-13.7-6.7-21.3-8-0.2-0.5-0.5-1.5-0.7-2-1.6-5.6-2.3-11.5-1.2-17.2z" fill="#857135" stroke="#857135"/>
  <path d="m1004.3 751.9c2.2-1.1 4.5-2 6.9-2.7 12.9 7 25.3 15.1 35.5 25.8 1.3 1.4 2.7 2.9 3.9 4.5 2.7 3.4 5.7 6.5 8.7 9.6-0.5 1.4-1.1 2.7-1.6 4.1-3-1.8-5.9-3.9-8.3-6.6-7.6-8.7-18.4-13.5-26.9-21.1-5.5-5.4-14.5-6.3-18.2-13.6z" fill="#FBDD74" stroke="#FBDD74"/>
  <path d="m667 751c3.5 2 6.9 4.1 10.4 6.1 0.7 2.1 1.6 4.1 2.6 6.1-1 2.4-1.9 4.9-1.8 7.6-0.1 2.1-0.1 4.3 0 6.5-4.3-2.4-9.7-4.7-11.3-9.8-1.2-5.6-0.2-11.1 0.1-16.5z" fill="#695827" stroke="#695827"/>
  <path d="m938.2 750.6c8.2 0.7 16.4 2.1 24.5 3.7 18.6 4.3 35.9 12.8 53.1 20.9 7.6 4.3 15.3 8.5 22.5 13.6-19.1-5.3-37.4-13.2-56.2-19.9-7.3-2.6-14.6-5.3-21.8-8.1-7.3-2.6-14.5-5.8-22.2-7.3 0-0.7 0.1-2.1 0.1-2.9z" fill="#B4782F" stroke="#B4782F"/>
  <path d="m938.1 753.6c7.7 1.5 14.8 4.6 22.2 7.3 7.3 2.7 14.5 5.5 21.8 8.1 18.7 6.6 37 14.5 56.2 19.9 4.7 2.5 9.3 5.3 13.7 8.4-0.3 3.4-0.8 6.8-1.3 10.2-10-3-19.6-7.4-29.6-10.4-8-2.7-16-5.5-24-8.1-18.7-11.4-38.4-21.1-59.3-27.7 0-2.7 0.2-5.2 0.3-7.7z" fill="#8C5917" stroke="#8C5917"/>
  <path d="m639.7 755.1c2.2 0.4 4.3 0.9 6.4 1.5-0.1 10.8 0.7 21.7-1 32.5-2.6-1.1-6.6-1.8-6.6-5.2-0.8-9.7 0.8-19.3 1.2-28.8z" fill="#F7462E" stroke="#F7462E"/>
  <path d="m646.2 756.6c5.6 4 12.2 6.5 17.8 10.6 2.8 1.8 2.8 5.4 2.7 8.3-0.3 7.2-0.8 14.4-1.9 21.5-6.4-2.3-12.3-5.7-18.7-7.8l-0.8-0.3c1.5-10.6 0.7-21.5 0.9-32.3z" fill="#C93724" stroke="#C93724"/>
  <path d="m258.6 748.9c0.9-4 3.2-7.4 5.4-10.8-0.6-0.8-1.2-1.5-1.7-2.3-1.4-0.3-2.8-0.7-4.1-1-2-0.3-4-0.5-5.9-0.7-0.7 3-1.4 6-1.8 9.1-1.1 9.7 1.9 19.2 5.4 28.2 1.1 3.5 3.1 6.6 5.7 9.2-0.6-6-2.3-11.8-3.6-17.7-0.6-4.8-0.4-9.5 0.6-14z" fill="#FAD266" stroke="#FAD266"/>
  <path d="m678.1 770.7c-0.1-2.7 0.8-5.2 1.8-7.6 5.5 11.2 10.4 22.7 16.3 33.8 7.7 14.5 15.5 28.8 24 42.9 7 10.8 13.2 22.1 20 33 7.8 13.9 17.3 26.9 28.2 38.6-1.6 0.8-3.1 1.7-4.6 2.5-5.9-5.4-10.3-12.3-15.4-18.4-7.1-10-14.7-19.5-21-30-7.9-11.2-13.9-23.5-20.6-35.4-5.3-9.8-10.4-19.7-15.4-29.6-5.4-9.5-8.5-20-13.3-29.8z" fill="#593A17" stroke="#593A17"/>
  <path d="m678.1 770.7c4.8 9.7 8 20.3 13.4 29.7 5 9.9 10.1 19.8 15.4 29.6 6.7 11.9 12.7 24.2 20.6 35.4 6.2 10.5 13.9 20.1 21 30 5.1 6.1 9.5 13 15.4 18.4 1.5-0.9 3-1.7 4.6-2.5 0.3 0.3 0.8 0.9 1.1 1.1-5.3 2.3-10.7 5.1-14 10.1-3 4.6-7.1 8.4-10.9 12.4-4.5-6.3-7.5-13.6-11.6-20.1-5.9-8.8-9.7-18.7-15-27.7-1.7-3-3.2-6.1-4.8-9.1-6-14-13.8-27.1-20.3-40.8-3.8-7.5-7-15.2-10.3-23-0.4-1-0.7-1.9-1.1-2.8-0.8-2.3-1.7-4.6-2.5-6.8 1.9-9.2-0.9-18.3-1-27.4-0.1-2.2-0.1-4.3 0-6.5z" fill="#6C461C" stroke="#6C461C"/>
  <path d="m543.9 774.7c3.6-0.2 7.1-0.6 10.6-0.9 1 1.9 2.1 3.8 3.2 5.7-3.2 5.3-2.8 11.7-2.7 17.6 0.2 1.9 0.1 4 1.4 5.5 4.3 2.5 9.8 1.6 14.1-0.4 2.6 4.5 4.9 9 7.4 13.5-2.4 7-2.8 14.5-4 21.7-8.5-1.8-17-3.7-25.6-5.3 1-2.4 2-4.8 3.5-6.9 2.6-2.6 6.8-4.9 6.6-9.1-0.5-5.6-3-10.7-4.7-15.9-2.7-8.7-7-16.8-9.8-25.5z" fill="#894E27" stroke="#894E27"/>
  <path d="m492.9 777.9c6.7-1.1 13.4-2 20.2-2.8 1.4 6.3-1.1 12.5-2.2 18.7-0.7 2.6-0.8 5.5-2.2 7.9-2.6 2.4-6.3 2.9-9.6 3.1-5.6 0.3-11.2 0.9-16.8 0.9 0.3-6 2-11.8 2.6-17.7 0.5-2.7 0.5-5.6 2.2-7.9 1.5-1.5 3.8-1.7 5.8-2.2z" fill="#857136" stroke="#857136"/>
  <path d="m908.2 777c3.7 1 7.3 2.4 10.7 4.2 6.3 3.3 13.1 5.2 19.7 7.7 0.1 0.6 0.2 1.9 0.3 2.5 0.2 1.5 0.4 2.9 0.5 4.4-0.3 8.1 1.6 16.1 2.6 24.1-1.8-0.8-3.6-1.7-5.4-2.6-5.2-8.2-14.4-12.2-21.8-18-3.2-7.1-6.3-14.4-6.6-22.3z" fill="#FA462D" stroke="#FA462D"/>
  <path d="m555 797c-0.1-5.9-0.6-12.3 2.7-17.6 4.4 7.5 8.5 15.2 12.9 22.8-4.4 1.9-9.8 2.9-14.1 0.4-1.3-1.6-1.3-3.7-1.5-5.6z" fill="#695828" stroke="#695828"/>
  <path d="m619.8 782.7c0.7-1 1.8-1.7 3.1-1.3 4.6 1 9 2.8 13.3 4.6 2.6 1.1 2.5 4.2 2.5 6.6-0.4 6.8-1.2 13.6-1.9 20.4-6 0.1-11.9-1.7-17.8-2.4-1.7-6.1-0.1-12.4 0.1-18.5 0.1-3.2-0.2-6.4 0.7-9.4z" fill="#857136" stroke="#857136"/>
  <path d="m190 795c-1.1-2-2-4-2.9-6.1-4-10.8-7-22.3-7-33.9-0.3-8.7 0.9-17.3 2.2-25.8-0.4-1.5-0.9-3-1.4-4.5-6 5.9-12.1 12-15.7 19.7 1.7 5.4 0.6 11 1 16.5 0.4 6.1 1.6 12.1 2.6 18.1 1 5.7 1.6 11.4 3.3 16.9 3.7 10.8 7 21.7 11.9 32 0.9 1.8 2.2 3.3 3.6 4.7 0.5-10.8-1.7-21.6-1.1-32.4-0.2-2.4 1.8-3.9 3.5-5.2z" fill="#DCB54F" stroke="#DCB54F"/>
  <path d="m997.1 788.9c8 2.6 16 5.4 24 8.1 3.7 6.8 8.9 12.6 12.8 19.2-7.3-4.6-13.7-10.4-20.8-15.3-5.5-3.8-10.4-8.3-16-12z" fill="#DAB44E" stroke="#DAB44E"/>
  <path d="m938.8 791.4c19.1 6.8 38 14.2 56.3 23.1-0.7 0.1-2.1 0.4-2.8 0.6 1.8 6.2 3.8 12.3 4 18.8 0.2 7 0.1 14-0.2 21.1-0.7 7.7-0.6 15.8-4.2 22.8-2.1-5.6-1.1-11.7-2.3-17.4-2-10.2-6.2-19.9-10.5-29.2-2.9-6.3-7.5-11.6-12.3-16.5-7.3-8.5-17.3-14.2-27.3-18.9-0.3-1.5-0.5-2.9-0.7-4.4z" fill="#DCB450" stroke="#DCB450"/>
  <path d="m941.9 819.9c-1-8-2.8-16-2.6-24.1 10.1 4.7 20 10.4 27.3 18.9-6.1 5.2-13.1 11.1-21.7 10.5-4.4-0.3-6.5-4.5-8.5-7.8 1.9 0.8 3.7 1.6 5.5 2.5z" fill="#B3321E" stroke="#B3321E"/>
  <path d="m664.6 803.1c0.3-1.6-0.2-4.6 2.2-4.6 4.7 0.4 8.4 3.8 12.3 6.1 0.8 2.3 1.6 4.5 2.5 6.8-1.3 3.8-1.8 7.8-1.9 11.8-5 0.7-10.9 0.5-14.6-3.3-1.6-5.4-0.4-11.2-0.5-16.8z" fill="#685829" stroke="#685829"/>
  <path d="m507.9 805.9c1.5-3 5.2-2.6 8.1-2.9 12.7-0.2 25.3-0.6 38 0.3 0.2 5.6-0.8 11.1-2 16.5-1.5 3.4-2.6 8.4-7 8.9-3 0.6-6.2 0.8-9.3 0.9-6.1-1-12.3-2.1-18.5-2.8-5-1-10.1-1.8-15.2-2.1 1.9-6.3 2.6-13 5.9-18.8z" fill="#FC472D" stroke="#FC472D"/>
  <path d="m451.4 810.4c9.8-1.5 19.6-4.4 29.6-3.5-0.7 6-2.7 11.8-4.9 17.4-7.8 0.1-15.7 0.4-23.4 2.2-1.6 0.2-3.2 0.4-4.8 0.7 1.1-5.5 2.2-11.2 3.5-16.8z" fill="#FA472D" stroke="#FA472D"/>
  <path d="m609.9 809c2.6 0.1 5.2 0.3 7.9 0.5 0.2 3.9 0.2 7.8 0.1 11.8-3.4-3.6-5.9-8-8-12.3z" fill="#EA4730" stroke="#EA4730"/>
  <path d="m638.1 814.7c2.1 0.1 4.2 0.7 6.2 1.2-0.7 7.2-1.6 14.5-4.2 21.3-0.9 2.4-2.8 4.1-4.6 5.8 0.6-6.7 0.9-13.4 1-20.1 0.2-2.7 0-5.7 1.6-8.2z" fill="#F6462E" stroke="#F6462E"/>
  <path d="m644.3 815.9c0-0.3 0.1-0.8 0.1-1.1 6.1 2.5 12.7 3.6 19.2 4.6 0.8 9.7 0.3 19.4-0.3 29.1-8.5-0.1-17 0.3-25.5-0.6-1-1.4-1.9-2.8-2.9-4.2l0.7-0.7c1.8-1.7 3.7-3.5 4.6-5.8 2.5-6.8 3.4-14.1 4.1-21.3z" fill="#C83723" stroke="#C83723"/>
  <path d="m578 815.7c4.8 8 9.9 15.9 13.9 24.4-1.7 0-3.3 0-5-0.1-4.3-0.8-8.6-1.7-12.9-2.6 1.2-7.2 1.6-14.6 4-21.7z" fill="#C63721" stroke="#C63721"/>
  <path d="m544.9 828.7c4.3-0.5 5.5-5.5 7-8.9-0.1 1.8 0 3.6 0 5.4-1.6 2.1-2.6 4.5-3.5 6.9-4.3-0.7-8.5-1.7-12.7-2.6 3.1 0 6.2-0.2 9.2-0.8z" fill="#CE3A24" stroke="#CE3A24"/>
  <path d="m452.7 826.6c7.7-1.8 15.5-2.1 23.4-2.2 8.6-0.2 17.3-0.1 25.9 0.3 5.1 0.2 10.2 1.1 15.2 2.1-11.1-0.1-22.1-2.1-33.2-1.6-10.5-0.1-20.8 1-31.3 1.4z" fill="#E69248" stroke="#E69248"/>
  <path d="m452.7 826.6c10.4-0.4 20.8-1.5 31.3-1.5 11.1-0.4 22.1 1.5 33.2 1.6 6.2 0.8 12.3 1.9 18.5 2.8 4.2 0.9 8.5 1.9 12.7 2.6 8.6 1.5 17.1 3.5 25.6 5.3 4.3 0.9 8.6 1.9 12.9 2.6 7.9 1.6 10.6 10 14.1 16.2-9.1-1.1-17.9-3.7-27.1-4.1-0.6-0.1-1.8-0.3-2.4-0.5-9.7-1.9-19.4-3.8-29.2-5.4-14.6-2.5-29.3-4.8-44.1-5.7-5.6-0.3-11.3-0.7-16.9-0.2-13.4 0.3-27.2 0.1-39.9 5-2.3-1.6-4.8-3.7-4.1-6.8-0.1-6.1 5.8-9.3 10.8-11.2 1.5-0.3 3-0.5 4.6-0.7z" fill="#FBD364" stroke="#FBD364"/>
  <path d="m679.5 848.2c1.2-7.2-0.2-14.7 1.7-21.9 1 7.1 1.9 14.1 3.2 21.2-1.7 0.3-3.3 0.5-4.9 0.7z" fill="#B0472C" stroke="#B0472C"/>
  <path d="m262 839.2c-7.4-5.3-12.2-13.2-16.4-21.1-2.7-5-5.7-10-7.2-15.6-2.1-7.6-3-15.6-2.9-23.5-0.1-13.7 5.5-26.9 13.3-37.8l1.6 2c0.4-3.1 1.1-6.1 1.8-9.1 2 0.2 4 0.4 5.9 0.7-7.3-2.7-14.5-5.9-21.3-9.7-0.9-0.5-1.7-1-2.5-1.4-17.7 11.8-28.9 31.9-31.5 52.8 6.5 6.3 7.1 16 12.9 22.8 5.6 7.3 10.6 15.3 17.7 21.3 6.4 5.6 12.5 11.5 19.3 16.6 2.5 1.9 5 3.9 7.3 6 3 2.8 6.4 5.1 10.2 6.7-1.2-4.5-4.3-8.2-8.2-10.7z" fill="#DCB54F" stroke="#DCB54F"/>
  <path d="m441.3 845.3c12.7-4.9 26.5-4.8 39.9-5-9.9 1-19.8 1.7-29.5 4 5.5-0.5 11.1-0.9 16.7-0.3-0.4 3-0.8 5.9-1.2 8.9 9.1 0.4 18.3 0.8 27.5-0.1 0.7-2.4 1.5-4.7 2.1-7.1 14.3-0.6 28.2 3.3 41.8 7.1 0.2 1.6 0.3 3.3 1 4.8 4.8 2.8 10.4 3.1 15.7 4.3 5.3 1.3 10.7 1.2 16.1 0.7 1.8 0.5 3.5 1.2 5.3 1.7-2.7 0.3-5.4 0.7-8.1 1.1-1.8 7.9-3.8 15.8-5.6 23.8-0.9 3.7-1 7.6-0.9 11.4 7.6 0.3 15 2.4 22.4 3.9 8.2 1.2 16.3 3.4 24.6 2.9 2.1-9.8 1.7-19.9 3.3-29.7 6.2 9.9 11.1 20.4 16.5 30.7-6.1 0.9-12.7-1.2-18.5 1.3-1.4 6.9-2.1 14.4-0.1 21.3 7.2 3.4 15.7 2.4 23.5 2-0.1-5 0-10-0.4-15 2.5 4.8 4.8 9.8 7.2 14.6-1.8 0.4-3.6 0.7-5.5 1.1-0.1 8.1 2.3 15.9 3.9 23.8 0.1 0.3 0.2 1 0.3 1.3-9.3 3.1-18.6 6.6-28.3 8.4-0.2-2.1-0.5-4.1-0.8-6.2-1.3-9.8 0-19.6-1.3-29.3-12.5-1.5-24.9-4.3-37-7.5-5.1-1.6-10.3-3.2-15.7-3.3-1.3 10.7-3.7 21.1-6 31.6-0.8 3.3-0.8 6.8 0 10.2-5.1-1.5-10.2-3-15.2-4.7-7.7-2.6-15.4-5.2-22.9-8.1 4.7-3 6.1-8.6 8.2-13.4 3-8.1 7.1-16.1 7.4-24.9-17.8-4.1-35.5-8.8-53.8-10.5-2.2-0.3-4.5 0.4-5.6 2.4-5.7 8.3-11.3 16.8-16.8 25.3-12.6-1.6-25-4.7-37.7-5.8-0.5-0.1-1.4-0.2-1.8-0.3-0.3-0.3-0.8-0.7-1.1-1 8.5-5.9 15.1-13.9 22.9-20.6 0.4-0.2 1.3-0.7 1.7-1 0.2-0.9 0.3-1.8 0.5-2.7-10.8-0.7-21.6 0-32.4-0.7 0.2-0.4 0.6-1.1 0.9-1.5 5.7-4.9 7.7-12.5 12.9-17.8 3.7 1.7 7.7 1.9 11.7 1.6 7.7-0.4 15.3 0.2 23-0.1-2.5 7-8.7 11.6-13.2 17.4 0.4 0.4 1.1 1.2 1.5 1.6 7.9 0 15.8 0.9 23.7 1.5 2.8-0.1 6.4 0.5 8.1-2.3 3.2-5.1 7.3-10 8-16.2-9.1-0.6-18-3.5-27.2-2 0.2-0.4 0.6-1.1 0.8-1.5 3.5-8.2 10.6-14.9 11.5-24.1-9.1 1.6-18.5 1.9-27.7 1.6 1.3-3.2 2.5-6.4 3.7-9.6m52 10.9c-2.4 3.8-3.9 8-6 12-1.6 3.4-3.7 6.6-4.8 10.2-0.8 1.9 0.5 4.4 2.7 4.2 9.4 0.4 18.6 2.7 27.8 4.6 6.4 1.2 12.4 4.1 19 4.1 2.6-11.2 4.6-22.5 6.2-33.8-3.4-0.2-6.8-0.4-10.1-1-9.6-1.9-19.4-1.7-29.2-1.9-1.9 0.2-4.6-0.5-5.6 1.6m40 37c-2.3 5.4-2.9 11.3-3.7 17 3.8 3.3 9 3.3 13.6 4.8 3.8 1.1 7.6 3 11.7 2.7 1.5-1.1 1.9-3.1 2.3-4.8 0.9-4 1.5-8.1 2.4-12.1-5.1-3.4-11.3-4.2-16.8-6.5-3-1.3-6.3-1.2-9.5-1.1z" fill="#AC6331" stroke="#AC6331"/>
  <path d="m481.2 840.3c5.6-0.5 11.3-0.1 16.9 0.2-0.4 1.5-0.8 2.9-1.2 4.4-9.5-0.2-19.1-0.1-28.6-0.9-5.5-0.5-11.1-0.2-16.7 0.3 9.8-2.4 19.7-3.1 29.6-4z" fill="#6C5B28" stroke="#6C5B28"/>
  <path d="m498.1 840.5c14.8 0.9 29.5 3.3 44.1 5.7-0.6 2.3-1.1 4.6-1.7 7-0.5-0.1-1.5-0.4-2-0.5-13.6-3.8-27.6-7.7-41.8-7.1l0.2-0.7c0.5-1.5 0.9-3 1.2-4.4z" fill="#864D24" stroke="#864D24"/>
  <path d="m468.4 843.9c9.5 0.9 19.1 0.8 28.6 0.9l-0.2 0.7c-0.7 2.4-1.4 4.7-2.1 7.1-9.1 0.9-18.3 0.5-27.5 0.1 0.4-2.9 0.8-5.8 1.2-8.8z" fill="#857034" stroke="#857034"/>
  <path d="m540.5 853.2c0.6-2.3 1.1-4.7 1.7-7 9.8 1.7 19.5 3.6 29.2 5.4-0.4 3.4-1.2 6.8-2.6 9.9-9.5-2.6-18.8-5.7-28.3-8.3z" fill="#675927" stroke="#675927"/>
  <path d="m630.6 847.6c2.4 0.1 4.8 0.2 7.2 0.4 8.5 0.9 17 0.6 25.5 0.6 5.4 0 10.8 0 16.2-0.4 1.6-0.2 3.2-0.5 4.9-0.7 1.5 2 3.4 3.9 3.8 6.4 0.3 2.8 0 5.6-0.2 8.3-14.3 0.5-28.7 0.4-43.1 0.3-2.5-0.3-5.8 0.3-7.5-2-2.9-3.9-4.8-8.5-6.8-12.9z" fill="#FBD365" stroke="#FBD365"/>
  <path d="m571.4 851.7c0.6 0.1 1.8 0.3 2.4 0.5 7.9 2.2 16.1 3.1 24.2 4.7 6.2 0.8 7.3 8 10.3 12.3-10.9 1.3-21.3-2.6-31.7-5-1.8-0.5-3.5-1.2-5.3-1.7-0.9-0.3-1.7-0.6-2.5-0.9 1.4-3.2 2.2-6.5 2.6-9.9z" fill="#884D27" stroke="#884D27"/>
  <path d="m437.4 854.8c9.3 0.3 18.6 0 27.7-1.6-0.9 9.2-8 15.9-11.5 24.1-10.8-0.7-21.6-0.4-32.4-0.6 0.2-1.3 0.3-2.6 0.5-3.9 2.3-2.4 4.4-5 6.4-7.7 3.2-3.3 6.8-6.4 9.3-10.3z" fill="#FA472E" stroke="#FA472E"/>
  <path d="m538.6 852.7c0.5 0.1 1.5 0.4 2 0.5 9.5 2.6 18.8 5.7 28.3 8.4 0.8 0.3 1.7 0.6 2.5 0.9-5.4 0.5-10.8 0.5-16.1-0.7s-11-1.5-15.7-4.3c-0.8-1.5-0.8-3.2-1-4.8z" fill="#886C34" stroke="#886C34"/>
  <path d="m493.3 856.2c1.1-2.1 3.8-1.4 5.7-1.7 9.7 0.2 19.6 0 29.2 1.9 3.3 0.6 6.7 0.8 10.1 1-1.6 11.3-3.6 22.6-6.2 33.8-6.6 0.1-12.7-2.9-19-4.1-9.2-2-18.4-4.2-27.8-4.6-2.2 0.2-3.5-2.3-2.7-4.2 1.2-3.6 3.3-6.8 4.8-10.2 1.9-3.9 3.4-8.2 5.9-11.9z" fill="#FC472E" stroke="#FC472E"/>
  <path d="m1056.2 903.5c-0.8-10 0.2-20-0.8-29.9-0.4-3.8-0.1-7.6 0.7-11.2-0.9-1.3-1.8-2.6-2.7-3.9-6.6-8.6-14.1-16.6-23-22.8 4.3 9.9 8.5 19.8 11.8 30.1 2.2 7.4 4.9 14.8 5.7 22.5 0.3 1.1 0.5 2.3 0.8 3.4 1.3 5.9 3 11.7 3.6 17.7-0.3 5.3 0.2 10.7 3 15.3 1.3-6.9 0.8-14.1 0.9-21.2z" fill="#DCB451" stroke="#DCB451"/>
  <path d="m1158.3 903c-0.5-10.7-2.1-21.2-3.7-31.7-0.6-3.7-1.7-7.2-2.8-10.7-2-11.7-5.6-23.1-9.1-34.4-5.5-11-9.4-22.8-15.5-33.4-7.4-13.2-16.4-25.9-28.1-35.7-3.6-1.4-7-3.4-8.6-7 3 0.5 5.9 1.3 8.6 2.6 2.5 1.1 5.1 1.9 7.7 2.8-5.9-6.5-14.1-10.2-21.5-14.8-13.9-8.5-28.1-16.5-43.1-23-8.9-3.8-18.1-6.7-27.7-8.3-16.8-2.7-33.7-4.3-50.7-5.2-7.1-0.2-14.2 0-21.3-0.9 0-2.1-0.1-4.3 0-6.4l-0.2 0.8c-1.5 9.1-2.5 18.3-3.4 27.4-0.9 8.5-0.7 17-1 25.5 8.2 0.7 16.4 2.1 24.5 3.7 18.6 4.3 35.9 12.8 53.1 20.9-4-3.4-8-6.9-12.5-9.6-9.5-5.8-19-11.8-28.8-17.2-7.1-4-15-6.5-22.1-10.5 6.2-1.3 12.5-2.2 18.9-2.5 4.4-0.3 8.5 1.2 12.6 2.6-0.7-0.9-1.3-1.8-1.9-2.7 16.7-0.3 33.4-0.4 50 1.7 8.7 1.3 17.6 1.8 26.1 3.9 0.4 0.1 1.3 0.2 1.7 0.3-1.5 13-3.4 26-5.6 38.8-1.2-0.2-2.4-0.4-3.6-0.5 2.7 3.4 5.7 6.5 8.7 9.6 2.2 2.3 4.3 4.8 6.3 7.3 4.8 6.2 10.1 12.2 12.4 19.7-9-5.9-17-13.1-26.1-18.9-0.3 3.4-0.8 6.8-1.3 10.2 7.3 3.3 13.7 8.2 20.3 12.7 8.3 6.2 16.9 12.3 23.4 20.6 6.1 7.2 10.2 15.7 13.9 24.3 3.2 8.1 6.3 16.2 8.4 24.7 0.5 1.6 1.1 3.3 1.6 4.9 0.1 4.9 0.7 9.8 3 14.2 2.7-12.4-0.6-25-0.4-37.6-0.9-8.3-2.4-16.7-5.6-24.4-1.8-5.7-3.6-11.4-6.3-16.7-4.9-9.5-12.8-17.1-16.7-27.1 4.9 4 9.5 8.4 13.6 13.3 9.9 12.1 19.5 24.6 26.9 38.4 11.2 17.9 18.1 38.2 21.8 58.9 0.1 1.7 0.2 3.5 0.3 5.3 0.9 5.3 0.1 11.9 4.5 15.9 0.6-10.6 0.7-21.3-0.7-31.8z" fill="#DCB54F" stroke="#DCB54F"/>
  <path d="m640 863.2h5.7c6 0.2 12 0.5 18 0.7 0.8 3.8 1.7 7.5 2.5 11.2 4.7-0.3 9.5-0.8 13.6-3.3 3.7-1.4 1.7-5.9 1.5-8.8 2.2 0 4.4 0.1 6.7 0.2 0 1.2 0.1 2.4 0.3 3.6-1.9 2.2-5.3 4.1-4.8 7.5 0.8 6.2 2.4 12.5 5.3 18 3.4 0.6 6.5-1.4 9.5-2.5 2 3.3 4.3 6.3 6.5 9.5 2 3.7 4 7.4 6.5 10.8-3.7 1.9-7.8 3.7-10.3 7.2 0.7 4.5 3.6 8.2 5.7 12.1 3.2 5.8 6.4 11.5 10.6 16.6-0.9 0.6-1.8 1.3-2.7 2-5.9 3.8-12.3 6.8-18.7 9.7-5.2-10.6-7.5-22.5-14-32.5-2.4 0.9-4.8 1.7-7.1 2.5-0.2 1-0.4 2-0.5 3.1-2.1-5.4-4-10.9-6.8-16-2.7-5.5-6.7-10.2-9.5-15.6 3.1 5.1 9.6 2.9 13.5 0 0.6-2.2-0.4-4.4-1-6.5-2-5.6-3.4-11.4-4.8-17.2-6.2-0.4-12.5-0.4-18.7-0.1 0.3 1.9 0.6 3.8 1 5.7-3.5-5.7-5.4-11.9-8-17.9m34.5 36.4c-2.1 2-0.2 5 0.7 7.1 3 5.5 4.1 11.8 7.8 17 5.2-1.1 10-3.7 14.1-6.9 1.8-2.4-0.2-5.3-1.3-7.5-2.8-4.8-4.3-10.3-7.6-14.9-4.5 2-9.4 3.1-13.7 5.2z" fill="#884D27" stroke="#884D27"/>
  <path d="m645.7 863.2c11.9-0.7 23.7 0.1 35.6-0.2 0.2 2.9 2.2 7.4-1.5 8.8-4.1 2.5-8.9 3.1-13.6 3.3-0.9-3.8-1.7-7.5-2.5-11.2-6-0.2-12-0.5-18-0.7z" fill="#695828" stroke="#695828"/>
  <path d="m568.5 865.2c2.7-0.4 5.4-0.8 8.1-1.1 10.4 2.4 20.9 6.3 31.7 5 1.5 2.7 2.8 5.5 4 8.3-1.6 9.9-1.2 20-3.3 29.7-8.3 0.5-16.4-1.7-24.6-2.9-7.4-1.5-14.8-3.6-22.4-3.9-0.1-3.8 0-7.7 0.9-11.4 1.8-7.9 3.8-15.8 5.6-23.7z" fill="#FD462E" stroke="#FD462E"/>
  <path d="m688.3 866.8c2.9 7.8 6 15.7 10.1 23-3.1 1-6.2 3.1-9.5 2.5-2.9-5.6-4.5-11.8-5.3-18-0.6-3.4 2.8-5.3 4.7-7.5z" fill="#C73725" stroke="#C73725"/>
  <path d="m417.4 877.4c1.4-1.5 2.9-3 4.4-4.5-0.2 1.3-0.3 2.6-0.5 3.9 10.8 0.2 21.6-0.1 32.4 0.6-0.2 0.4-0.6 1.1-0.8 1.5l-0.8 0.1c-7.7 0.3-15.3-0.3-23 0.1-4.1 0.2-8.1 0-11.7-1.7z" fill="#CC5731" stroke="#CC5731"/>
  <path d="m646.9 875.3c6.2-0.3 12.5-0.2 18.7 0.1 1.4 5.8 2.8 11.6 4.8 17.2 0.6 2.1 1.6 4.3 1 6.5-3.9 2.9-10.4 5.1-13.5 0-2.8-6.3-6.2-12.4-9.9-18.1-0.5-1.9-0.8-3.8-1.1-5.7z" fill="#C73724" stroke="#C73724"/>
  <path d="m452.8 878.8c9.2-1.4 18.1 1.5 27.2 2-0.7 6.2-4.8 11.2-8 16.2-1.7 2.8-5.3 2.2-8.1 2.3-7.9-0.6-15.7-1.5-23.7-1.5-0.4-0.4-1.1-1.2-1.5-1.6 4.5-5.7 10.6-10.3 13.2-17.4h0.9z" fill="#857136" stroke="#857136"/>
  <path d="m533.3 893.2c3.2-0.1 6.5-0.2 9.5 1.1 5.5 2.4 11.7 3.2 16.8 6.5-0.9 4-1.5 8.1-2.4 12.1-0.5 1.7-0.8 3.7-2.3 4.8-4.1 0.3-7.8-1.6-11.7-2.7-4.6-1.5-9.8-1.5-13.6-4.8 0.7-5.8 1.4-11.6 3.7-17z" fill="#857236" stroke="#857236"/>
  <path d="m674.5 899.6c4.4-2.1 9.2-3.2 13.7-5.1 3.3 4.5 4.8 10 7.6 14.9 1.1 2.2 3 5.1 1.3 7.5-4.2 3.2-9 5.8-14.1 6.9-3.7-5.1-4.8-11.5-7.8-17-1-2.3-2.9-5.2-0.7-7.2z" fill="#68592A" stroke="#68592A"/>
  <path d="m402.5 898.7c0.3-0.5 0.9-1.5 1.1-2 10.8 0.7 21.6-0.1 32.4 0.7-0.2 0.9-0.3 1.8-0.5 2.7-0.4 0.2-1.3 0.7-1.7 1-2.4-1.3-5-2.3-7.7-2.1-7.9 0-15.7 0.1-23.6-0.3z" fill="#D55230" stroke="#D55230"/>
  <path d="m394.5 908.5c2.7-3.2 5.6-6.4 8-9.8 7.9 0.4 15.7 0.3 23.6 0.2 2.8-0.2 5.4 0.8 7.7 2.1-7.8 6.7-14.4 14.7-22.9 20.6-9.1-0.2-18.2-0.4-27.3-1.3 2.6-4.8 7.4-7.7 10.9-11.8z" fill="#FA462D" stroke="#FA462D"/>
  <path d="m468.3 903.4c1.1-2 3.4-2.7 5.6-2.4 18.2 1.7 36 6.4 53.8 10.5-0.3 8.8-4.4 16.8-7.4 24.9-2 4.8-3.5 10.4-8.2 13.4-13.5-5.7-27.1-11.5-41.3-15.5-6.5-1.8-12.7-4.4-19.4-5.5 5.6-8.7 11.2-17.1 16.9-25.4z" fill="#FC462E" stroke="#FC462E"/>
  <path d="m610.4 909.4c5.8-2.4 12.4-0.3 18.5-1.3 1.6 3.1 3.1 6.3 4.5 9.5 0.4 5 0.3 10 0.4 15-7.8 0.4-16.3 1.5-23.5-2-2-6.8-1.3-14.3 0.1-21.2z" fill="#857135" stroke="#857135"/>
  <path d="m701 917.3c2.5-3.5 6.6-5.3 10.3-7.2 5.6 6.9 10.2 14.5 15.6 21.6 1.2 1.8 2.1 3.8 3.1 5.7-4.3 2.8-8.7 5.5-12.8 8.5-4.3-5.1-7.5-10.8-10.6-16.6-2-3.9-4.9-7.6-5.6-12z" fill="#C73723" stroke="#C73723"/>
  <path d="m769.5 912.5c10.3-2 22.1 0.7 29.2 8.7 4.7 5.2 6.6 12.1 10.3 17.8 2.4 3.6 4.5 7.4 6.6 11.2-0.8 0.1-2.2 0.3-3 0.4 1.9 7.5 4.9 14.7 6.3 22.3 3.6 18 6.6 37.1 1.1 55-2 6.8-4.2 14.3-10.1 18.9-3.5 2.6-7 5.6-11.2 6.9-7.7 1.1-15.4-1.5-21.7-5.9 7.5 2.4 15.6 6.3 23.6 3.5-6-2.1-12.5-2.1-18.3-4.8-7.5-3.5-14.2-8.3-20.9-13.1-11.2-8.7-22.4-17.6-32.3-27.7-6.1-5.9-12.1-11.9-18-18-5.8-5.6-11.4-11.9-19.2-14.5-4.9-3.1-5.3-9.3-5.7-14.5 0.4 1 0.8 2 1.3 3 1.2 2.5 2.3 5 3.5 7.6 12.9-2.9 25.9-7.6 36.1-16.3 6.4-5.5 12.8-11.1 17.6-18.2 3.8-4 7.9-7.7 10.9-12.4 3.3-4.8 8.7-7.6 13.9-9.9z" fill="#7C4D17" stroke="#7C4D17"/>
  <path d="m556.3 920.6c5.4 0 10.6 1.6 15.7 3.3 12.2 3.2 24.5 6 37 7.5 1.3 9.7 0 19.6 1.3 29.3-0.1 2-0.4 3.9-0.6 5.9-9.5 2.7-19.5 1.6-29.2 2.1-9.9-1.2-19.6-3.7-29.3-6.2l-1-0.3c-0.8-3.3-0.8-6.8 0-10.2 2.4-10.2 4.8-20.7 6.1-31.4z" fill="#FC462E" stroke="#FC462E"/>
  <path d="m366.8 962.5c15.4-13 32.5-24.1 45.2-40 0.4 0.1 1.4 0.2 1.8 0.3 2.2 0.5 4.3 1.2 6.5 1.9-7.9 9.5-16.4 18.6-25.9 26.6-9.3 7.1-19.7 12.6-29.8 18.5l3.9 1.8c-0.9 0.4-1.9 0.7-2.8 1.1-4.5 1.4-9.2 2.1-13.9 2.2 4.6-4.5 10-8.3 15-12.4z" fill="#F9D365" stroke="#F9D365"/>
  <path d="m1092.4 923.4l-0.1-0.8c-0.9-6.2-1.3-12.4-2.4-18.5-3.5-18.3-11.2-35.7-21.9-51-4.4-6.2-9.4-11.9-14.5-17.5-6.2-6.8-13.5-12.5-19.5-19.5-7.3-4.6-13.7-10.4-20.8-15.3-5.5-3.8-10.5-8.3-16-12-18.7-11.4-38.4-21.1-59.3-27.7 0 1.6 0 3.2 0.1 4.8 0.7 7.7 0.3 15.4 0.6 23 0.1 0.6 0.2 1.9 0.3 2.5 19.1 6.8 38 14.2 56.3 23.1 12.2 6.2 24.8 12.1 35.2 21.2 8.9 6.2 16.4 14.2 23 22.8 0.9 1.3 1.8 2.5 2.7 3.9 14.3 19.8 24.5 42.4 31.9 65.6 0.3 1.7 0.5 3.5 0.8 5.2 0.7 3.5 1.8 7 3.1 10.3 1.7-6.6 1.5-13.4 0.5-20.1z" fill="#FCD465" stroke="#FCD465"/>
  <path d="m674.7 927.7c2.4-0.8 4.8-1.6 7.1-2.5 6.5 10 8.8 21.9 14 32.5-2.8 1.3-5.6 2.7-8.3 4.2-0.5-1-0.9-2-1.3-3-3-9.8-8-18.8-12.1-28.1 0.2-1.1 0.4-2.1 0.6-3.1z" fill="#C63723" stroke="#C63723"/>
  <path d="m635.1 933.4c1.8-0.4 3.6-0.7 5.5-1.1 3.6 6.1 5.7 13 8.7 19.4-3.2 2.2-6.6 4.1-10.2 5.4-1.7-7.7-4.1-15.5-4-23.7z" fill="#F9462D" stroke="#F9462D"/>
  <path d="m447.8 953.7c2.7-6.4 4-13.3 7-19.5 3.5 2 7.5 4.2 8.5 8.4 3.7 12.2 1.8 26-4.9 36.9-7.3 12.2-17.3 22.6-27.7 32.3-7.5 7.2-16.3 13-22.9 21.2-8.5 4.2-17.5 7.7-26.7 10-2.5-0.1-5-0.4-7.5-0.6 5.1-4.6 11.1-8 16.2-12.5 20.9-17.6 38.4-39.3 51.6-63.2 2.5-4.2 4.6-8.5 6.4-13z" fill="#FCD364" stroke="#FCD364"/>
  <path d="m695.8 957.6c6.4-2.9 12.8-5.9 18.7-9.7 4.1 1.9 8.3 3.6 12.6 5.2-10.2 8.7-23.2 13.3-36.1 16.3-1.2-2.5-2.3-5-3.5-7.6 2.7-1.5 5.5-2.9 8.3-4.2z" fill="#DCB44F" stroke="#DCB44F"/>
  <path d="m812.8 950.7c0.8-0.1 2.2-0.3 3-0.4 2.3 3.9 5.1 7.5 7.4 11.5 3.1 5.3 5.5 11 8.6 16.4 5.7 10.2 9.8 21.3 15.6 31.5 5 8.5 8 17.9 11.8 26.9 3.2 8.1 5.3 16.5 8.4 24.7 0.9 3 2.4 6.1 1.8 9.3-2.5 4.8-6.9 8.3-9.7 13-9.1 14.9-20.7 27.9-31.5 41.6-10.5 12.1-21.7 23.7-33.2 34.8-7.7 6.3-15.5 12.6-23.4 18.8-2.5-6.3-1.2-13.2-2.8-19.6-2.5-11.2-5-22.5-8.2-33.5-2.1-12.1-7.2-23.4-10.1-35.4-3.3-13.6-8.7-26.5-13.3-39.7-3.2-8.8-7.6-17-11.2-25.6-3.7-8.7-8.6-16.8-12.3-25.6 1.1 0.2 2.1 0.4 3.2 0.6 11.3 10.7 23.5 20.6 35.5 30.5 7.9 6.3 16 12.2 24.6 17.3 6.2 4.4 14 7 21.7 5.9 4.3-1.3 7.7-4.2 11.2-6.9 5.9-4.6 8-12.1 10.1-18.9 5.6-17.9 2.5-37-1.1-55-1.3-7.5-4.2-14.7-6.1-22.2z" fill="#714717" stroke="#714717"/>
  <path d="m489.4 951.9c2.7 3 5.4 6 7 9.8 3.3 7.2 3.3 15.5 2.3 23.3-2.1 13.7-8.3 26.5-15.7 38.1-5 8.5-10.9 16.3-16.8 24.2-6.6 9-14.7 16.9-20.9 26.2-6.2 5-13 9.2-19.7 13.5-3 1.8-6.3 3.1-9.6 4.2 2.3-4 5.1-7.7 8.1-11.2 7.2-8.6 13.2-18 19.8-27 6.1-9.1 13.1-17.8 17.3-28.1 1.5-2.2 3-4.4 4.3-6.6 2.9-6.3 4.6-13.1 4.5-20 0-4.4-0.4-9.2 2.1-13.1 6.4-10.9 11.1-22.5 17.3-33.3z" fill="#FDD465" stroke="#FDD465"/>
  <path d="m639 957.2c3.6-1.4 7-3.3 10.2-5.4 2.6 5.4 5 10.8 6.9 16.5-1 0.5-2 1.1-3 1.7-3.3 0.7-6.7 1.3-10.1 1.7-1.2-4.4-2.5-8.7-3.6-13-0.1-0.5-0.3-1.1-0.4-1.5z" fill="#C73723" stroke="#C73723"/>
  <path d="m532.4 958.4c0.7-0.2 2-0.5 2.7-0.6 5 1.6 10.1 3.2 15.2 4.7l1 0.3c-2 22.6-7.7 44.7-14 66.5-4.3 13.1-7.8 26.6-14.1 39-0.9 0.8-1.7 1.7-2.6 2.5-0.9-6.4 1.5-12.7 2.3-19 3.1-15.6 2.7-31.8 0.3-47.5-1-6.4-3.4-13.2-0.4-19.4 3.7-8.8 5.8-18 9.6-26.5z" fill="#FDD465" stroke="#FDD465"/>
  <path d="m611.1 967c9.7-1.9 18.9-5.3 28.3-8.4 1.1 4.4 2.5 8.7 3.6 13-10.9 1.3-21.8 1-32.8 0.8 0.3-1.8 0.7-3.6 0.9-5.4z" fill="#884D26" stroke="#884D26"/>
  <path d="m610.3 960.8c0.3 2.1 0.6 4.1 0.8 6.2-0.2 1.8-0.5 3.6-0.9 5.4-10.5-0.7-21-1.4-31.3-3.2l1.6-0.4c9.8-0.5 19.7 0.6 29.2-2.1 0.3-2 0.5-3.9 0.6-5.9z" fill="#C5391D" stroke="#C5391D"/>
  <path d="m692 973.3c7.9 2.6 13.5 8.9 19.2 14.5 5.9 6.1 11.9 12.1 18 18 10 10.1 21.1 19 32.3 27.7 6.7 4.8 13.4 9.7 20.9 13.1 5.8 2.7 12.3 2.7 18.3 4.8-8 2.8-16.1-1.1-23.6-3.5-8.6-5.1-16.8-11.1-24.6-17.3-12.1-9.9-24.2-19.8-35.5-30.5-3.9-3.5-8.2-6.4-11.8-10.1-2.4-2.5-5.3-4.3-8.3-6-2.9-2.9-3.9-6.9-4.9-10.7z" fill="#A16B2C" stroke="#A16B2C"/>
  <path d="m611.3 976.8c9.6 0.8 18.5 6 28.3 4.9-2.8 26.9-12.8 52.5-25.6 76.1-2.5 4.6-4.7 9.4-7.5 13.8-2 3.1-3.8 6.2-5.9 9.3-1.1 1.4-2.4 2.8-3.6 4.1 1-5 2.8-9.9 4.3-14.8 2.4-9.5 4.4-19 6.1-28.6 2.8-10.7 4.1-21.7 5-32.6 1.1-10.7 0.4-21.5-1.1-32.2z" fill="#FDD464" stroke="#FDD464"/>
  <path d="m650.1 985c-0.3-4.9 6-5 9.4-6.2 0.2 0.8 0.6 2.3 0.8 3.1-2 3-4.4 6-4.8 9.7-0.3 3.3 0.8 6.5 1.4 9.8 1.3 12.2 7.4 23 12.7 33.9 6.7 13.7 14.2 27 19.6 41.2-4.1-1.3-6.9-4.8-9.2-8.1-8.8-13.9-17.8-28.2-22.3-44.2-1.4-4.5-2.7-9.1-3.8-13.6-1.4-8.5-3.4-16.9-3.8-25.6z" fill="#F9D264" stroke="#F9D264"/>
  <path d="m696.8 983.9c3 1.7 5.9 3.5 8.3 6 3.6 3.7 8 6.6 11.8 10.1-1.1-0.2-2.2-0.4-3.2-0.6 3.7 8.7 8.6 16.8 12.3 25.6 3.6 8.6 8 16.8 11.2 25.6 4.6 13.2 9.9 26.1 13.3 39.7 2.9 11.9 8 23.2 10.1 35.4-1 7.6 1.8 14.9 2.2 22.5 0.4 7.5 0.8 15.1-0.1 22.6-0.8 5.9-3.4 12.2-9 15-4.8 2.4-10 3.7-15 5.5-10.4-0.1-22 2.2-31.3-3.7-3-2-7-4.4-7-8.5-0.6-12.8 0.9-25.7-0.9-38.4l-0.3-3.3c0.6-13.9-1.5-27.8-3.9-41.5-0.8-3.5-2-6.9-3.1-10.3-0.9-3-1.9-5.9-3-8.8-5.4-14.3-13-27.6-19.6-41.2-5.3-10.8-11.4-21.7-12.7-33.9 2.2-4.1 2.8-8.8 4.5-13 1.3-2.5 4.5-0.2 5.7 1.4 2.9 5.8 1.8 12.7 4.6 18.5 2.8 3.5 6.8 5.9 10.9 7.8 3.1 1.5 5.5-1.8 7.2-3.9 0.8 0.7 1.5 1.4 2.3 2.2 2-2.1 4.5-4.3 4.6-7.4 0.8-8-0.5-15.7 0.1-23.4z" fill="#955E20" stroke="#955E20"/>
  <path d="m532.4 958.4c0.7-0.2 2-0.5 2.7-0.6-7.7-2.6-15.4-5.2-22.9-8.1-13.5-5.7-27.1-11.5-41.3-15.5-6.5-1.8-12.7-4.4-19.4-5.5-12.6-1.6-25-4.7-37.7-5.8 2.2 0.5 4.3 1.2 6.5 1.9-7.9 9.5-16.4 18.6-25.9 26.6-9.3 7.1-19.7 12.6-29.8 18.5l3.9 1.8c5.4-2.2 10.8-4.6 16.1-7.1 6.6-3 12.5-7.6 19.5-9.7-1.5 3.2-3.1 6.3-5.1 9.1-8.6 11.6-18.3 22.7-29.9 31.3-5 4.4-10.2 8.6-16.3 11.6-3.3 1.7-6.6 3.4-9.9 5.2 5.5 1.8 11.3 1.3 16.7-0.5 13.8-2.8 26.3-9.7 38.3-16.8 10.6-7 21.1-14.2 31.5-21.5 3.8-2.6 7-7 12.1-6.6 2.3-4.2 4.4-8.5 6.2-13 2.7-6.4 3.9-13.3 7-19.5 3.5 2 7.4 4.2 8.5 8.4 3.7 12.2 1.8 26-4.9 36.9-7.3 12.2-17.3 22.6-27.7 32.3-7.5 7.2-16.3 13-22.9 21.2 4.6-2.4 9.4-4.3 14.2-6.2 2.9-2.6 6.3-4.6 9.9-6-3.4 10.2-12.1 17.4-16.2 27.2 7-2.1 13.6-5.5 19.8-9.3 10.5-6.1 20.1-13.6 28.5-22.3 0.3 0.5 1 1.4 1.3 1.8 2.8-6.3 4.6-13.1 4.5-20 0-4.4-0.4-9.2 2.1-13.1 6.5-10.6 11.2-22.3 17.4-33.1 2.7 3 5.4 6 7 9.8 3.3 7.2 3.3 15.5 2.3 23.3-2.1 13.7-8.3 26.5-15.7 38.1-5 8.5-10.9 16.3-16.8 24.2-6.6 9-14.7 16.9-20.9 26.2 8.2-5.8 15.5-12.6 22.4-19.7 1.6-1.5 3.5-2.7 5.3-3.9-3 13.7-10.8 25.5-16.3 38.1 3.2-1.8 6.4-3.7 9.4-6 5.4-7.2 12.2-13.2 17-20.9 5.6-7.9 8.7-17.2 14-25.3 1.1 3.7 2 7.4 1.8 11.3-0.4 14.3-4.9 28.5-13.7 39.8 0.7 0.2 2.2 0.5 2.9 0.6 4.9-2.8 10.4-4.3 15.5-6.6 5.8-3.1 11.6-6.1 16.7-10.2-0.9-6.4 1.5-12.7 2.3-19 3.1-15.6 2.7-31.8 0.3-47.5-1-6.4-3.4-13.2-0.4-19.4 4.2-8.8 6.3-18 10.1-26.5z" fill="#DDB54E" stroke="#DDB54E"/>
  <path d="m551.4 1024.4c3.8-6.1 8.3-12.1 15.3-14.8 4.3 16.1 5.8 32.8 11 48.7 4.5 14.7 9.7 30 20.9 41-1.2 8.2 0.6 16.7 5.5 23.4l0.6 4.5c-9.6-5-16.2-13.9-24.8-20.2-1.2-0.9-2.4-1.8-3.7-2.6-3.3-6.4-8.1-11.9-11.5-18.2-1.8-3.3-3.5-6.6-5.2-9.9-2.6-5.7-5-11.5-7.1-17.4-2.7-7-4.5-14.4-6.4-21.6-0.5 0.1-1.6 0.2-2.1 0.2 2.2-4.4 4.8-8.8 7.5-13.1z" fill="#B3903F" stroke="#B3903F"/>
  <path d="m644.7 1054.9c-2.7-15.1-0.1-31.9 9.3-44.3 1.1 4.6 2.5 9.1 3.8 13.6 4.5 16 13.5 30.2 22.3 44.2-0.8 8.1-1.2 16.3-1.4 24.4-0.1 4.1-0.7 8.2-2.7 11.8-1.1-0.6-1.8-1.5-1.9-2.7-1.1-5.3-0.9-10.9-3.1-16-3.1-7.1-8.1-13.2-12.9-19.2-3.9-4.4-7.6-9.7-13.4-11.8z" fill="#B2903F" stroke="#B2903F"/>
  <path d="m435.6 1038.6c10.5-6.1 20.1-13.6 28.5-22.3 0.3 0.5 1 1.4 1.3 1.8-1.3 2.3-2.8 4.5-4.3 6.6-2.9 1.5-5.8 3-8.2 5.2-8.1 7.3-16.6 14.4-26 19.9-9.5 5.6-20.7 9.4-31.8 7.4-1.6-0.4-2.8-1.7-4.1-2.7 11.6-7.6 24.4-15.1 31.1-27.8 2.9-2.6 6.3-4.6 9.9-6-3.4 10.2-12 17.4-16.2 27.2 7-2.1 13.6-5.4 19.8-9.3z" fill="#B2903F" stroke="#B2903F"/>
  <path d="m597.6 1027.6c4 4.2 6.3 9.5 9.7 14-1.8 9.6-3.8 19.2-6.1 28.6-0.5 0-1.6 0.1-2.1 0.1-1.1-7.4-1.2-14.9-1.2-22.4 0-6.7-0.6-13.5-0.3-20.3z" fill="#B2903C" stroke="#B2903C"/>
  <path d="m483.1 1061c5.6-7.9 8.7-17.2 14-25.3 1.1 3.7 2 7.4 1.8 11.3-0.4 14.3-4.9 28.5-13.7 39.8 0.7 0.2 2.2 0.5 3 0.6-4.6 3.2-8.6 7.3-13.3 10.5-7.9 5.7-17 11.1-27.1 11 6.3-8.9 14.6-16.5 18.2-27 5.4-7.2 12.3-13.2 17.1-20.9z" fill="#B2903E" stroke="#B2903E"/>
  <path d="m543.9 1037.7c0.5-0.1 1.6-0.2 2.1-0.2 1.9 7.3 3.7 14.6 6.4 21.6-3.2 6-8.5 10.4-12.7 15.6l-3.9 4.2c-3.1 3.2-6.7 6-10.4 8.4-1.5 0.9-3 1.8-4.5 2.8-4.5 3-9.7 4.7-15 5.6h-2.8l-0.3-4.8c0.3-3.4 0.6-6.7 0.9-10 5.8-3.1 11.6-6.1 16.7-10.2 0.9-0.8 1.8-1.7 2.6-2.5 9.6-8.2 16.1-19.1 20.9-30.5z" fill="#8C5917" stroke="#8C5917"/>
  <path d="m614 1057.8c0.6-0.2 1.7-0.5 2.2-0.7 5.5 5.9 10.3 12.6 16.6 17.8 0 8.1 3.3 15.7 4.4 23.7-2.9-1.1-5.7-2.7-7.9-4.9-4.3-4.1-9.5-7.1-13.4-11.6-3.1-3.6-6.2-7.1-9.5-10.5 2.8-4.4 5.1-9.2 7.6-13.8z" fill="#B2903E" stroke="#B2903E"/>
  <path d="m552.4 1059c2.1 5.9 4.5 11.7 7.1 17.4-3.8 4.6-3 11-3.4 16.5 0 11.4-1 22.7-2.1 34-1 8.7-0.8 17.5-2.8 26.1-0.6-10.5 1.6-20.9 1.4-31.4-3.9 6-4.6 13.3-7.1 20-3.3 8.9-6.4 18-10.1 26.8-2.8 6.3-5.5 12.6-7.9 19.1-3 7.6-7 14.7-9.6 22.4-8.1 21.5-17.3 42.9-21.2 65.8-3.7 17.5-4.8 35.4-5.8 53.3-0.4 9 0.9 18 0.9 27 0 7 0.5 13.9 1.4 20.8-4.6-1.7-9.1-3.4-13.7-5.2 1.1 0.1 2.3 0.2 3.4 0.3-1.6-11.3-3.4-22.5-3.6-33.9-0.4-22.7 1.2-45.6 7.2-67.6 2.2-10.5 6.3-20.4 9.6-30.5 2.5-7.2 5.8-14.2 8.9-21.2 10.1-21.3 18.1-43.6 26.1-65.8 5.2-16.7 11.2-33.4 13.5-50.8 1.1-9.7 1.6-19.5 0-29.1-1.6 0.5-3.1 1.1-4.7 1.7 4-5.3 9.3-9.7 12.5-15.7z" fill="#A0692A" stroke="#A0692A"/>
  <path d="m539.7 1074.7c1.5-0.6 3.1-1.1 4.7-1.7 1.6 9.6 1.1 19.4 0 29.1-2.3 17.4-8.3 34.1-13.5 50.8-8 22.2-16 44.5-26.1 65.8-3.1 7-6.4 13.9-8.9 21.2-3.3 10.2-7.4 20-9.6 30.5-5.9 22-7.6 44.9-7.2 67.6 0.2 11.4 2 22.7 3.6 33.9-1.1-0.1-2.3-0.2-3.4-0.3-2.9-0.9-5.7-1.8-8.6-2.7-0.3-10.5-0.2-21.1-0.4-31.6 0.3-6.3 0.8-12.5-0.2-18.8 0.3-5 0.7-9.9 1.5-14.8 2.8-10.1 4-20.6 5.9-30.9 1.7-8.3 2.2-16.8 4-25.1 0.2 1.8 0.6 3.7 0.9 5.5 3.9-6.4 5.5-13.8 8.3-20.6 4.5-10.9 8.6-22 13-33 3.1-7.6 5.5-15.6 8.7-23.2 4.5-10.9 7.9-22.2 11.7-33.4 6.5-20.9 9.1-42.6 11.6-64.3 1.4-1.2 2.7-2.6 4-4z" fill="#B57931" stroke="#B57931"/>
  <path d="m556.2 1093c0.4-5.6-0.5-11.9 3.4-16.5 1.7 3.3 3.4 6.6 5.2 9.9 3.4 6.3 8.2 11.8 11.5 18.2-3.1 20.7-3.2 41.7-5.2 62.5-1.9 27-3.8 54-6.2 81-1 10.9-1.3 21.9-2.5 32.8-1 10.2-1.8 20.4-2.6 30.7-0.2 4.5-0.4 8.9-0.9 13.4-0.3 2.8-0.6 5.5-0.8 8.3-0.2 3.9-0.4 7.8-0.7 11.7-1.2 10.7-2 21.5-2.5 32.2-0.3 2.7-0.2 5.6-1.7 7.9-1.7 1.9-4.2 2.8-6.5 3.8-3.1 1-6.1 2.6-8.9 4.2l-4.8 0.6c-0.3-1.8-0.5-3.5-0.6-5.2 2-11.9 2.2-23.9 3.4-35.9 1-10 0.9-20.1 1.9-30.2 0.7-7.1 1.2-14.2 1.8-21.3 1-8.6 1.4-17.2 2.4-25.7 1.9-13.8 1.9-27.7 3.4-41.5 1.4-15.9 2.5-31.9 4-47.8 0.8-10.7 2-21.4 2.3-32.1v-0.9c2-8.6 1.9-17.4 2.8-26.1 0.8-11.3 1.8-22.7 1.8-34z" fill="#8D5A18" stroke="#8D5A18"/>
  <path d="m525.3 1087.2c3.8-2.4 7.3-5.1 10.4-8.4-2.5 21.6-5.1 43.4-11.6 64.3-3.8 11.2-7.1 22.5-11.7 33.4-3.2 7.6-5.5 15.6-8.7 23.2-4.4 11-8.5 22.1-13 33-2.9 6.8-4.4 14.2-8.3 20.6-0.3-1.9-0.6-3.7-0.9-5.5 3.9-23.8 6.5-47.8 10.4-71.6 1.7-6.4 4.5-12.5 8.1-18.1 5.6-9.3 11.2-18.7 15.1-28.9 3.5-9.1 7.3-18.2 9.3-27.7 1.1-4.7 3.3-9.7 0.9-14.3z" fill="#A0692A" stroke="#A0692A"/>
  <path d="m682.7 1103c2.5-6.2 6.3-11.8 9.6-17.6 1.1 3.4 2.2 6.8 3.1 10.3-3.7 3.2-7.9 5.9-12.7 7.3z" fill="#D9B454" stroke="#D9B454"/>
  <path d="m520.9 1090c1.5-1 3-1.9 4.5-2.8 2.4 4.6 0.1 9.6-0.8 14.2-2.1 9.6-5.8 18.6-9.3 27.7-3.9 10.2-9.5 19.6-15.1 28.9-3.5 5.6-6.4 11.7-8.1 18.1 0.9-5.8 1.6-11.7 2-17.6 1.2-5.5 1.9-11.1 2.2-16.7 0.3-6.2 1.7-12.3 2.1-18.4 2.1-10.8 3.5-21.8 4.5-32.7 0 1.6 0.2 3.2 0.3 4.8h2.8c2 0.2 3.9 0.4 5.9 0.7-1.5 10.2-5.6 19.8-10.7 28.7-3 5.3-3.7 11.5-2.5 17.4 7.7-9.5 12.7-21 16.2-32.7 2.1-6.3 1.4-13.9 6-19.6z" fill="#B47831" stroke="#B47831"/>
  <path d="m505.9 1095.7c5.3-0.9 10.5-2.6 15-5.6-4.5 5.6-3.9 13.3-6.1 19.8-3.5 11.7-8.5 23.2-16.2 32.7-1.2-5.9-0.5-12.2 2.5-17.4 5-8.9 9.2-18.5 10.7-28.7-2-0.4-4-0.7-5.9-0.8z" fill="#A06829" stroke="#A06829"/>
  <path d="m661.3 1094.2c-1-2.6-2.2-5.1-3.9-7.2-0.3-0.5-1-1.4-1.4-1.9-6.5-8.7-10.2-19.4-11.3-30.2-2.7-15.1-0.1-31.9 9.3-44.3-1.5-8.5-3.5-17-3.8-25.6-0.3-4.9 6-5 9.4-6.2 0.2 0.8 0.6 2.3 0.8 3.1 0.9-3.1-0.1-6.2-1.1-9.1-1.7-1.7-3.8-2.7-6.2-2.9-3.3 0.7-6.7 1.3-10.1 1.7-10.9 1.3-21.8 1-32.8 0.8-10.5-0.7-21-1.4-31.3-3.2l1.6-0.4c-9.9-1.2-19.7-3.7-29.3-6.2-2 22.6-7.7 44.7-14 66.5-4.3 13.1-7.8 26.6-14.1 39 9.6-8.1 16.1-19 20.9-30.5 2.2-4.6 4.8-9 7.5-13.2 3.8-6.1 8.3-12.1 15.3-14.8 4.3 16.1 5.8 32.8 11 48.7 4.5 14.7 9.7 30 20.9 41 3.9 2.6 7.8 5.1 11 8.5 2.5 2.2 5.4 6.1 9 3.6-2.2-2.4-4.4-4.8-6.2-7.5-4.2-7.5-9.2-14.8-11.9-23-1.1 1.4-2.4 2.8-3.7 4.1 1-5 2.8-9.9 4.3-14.8-0.5 0-1.6 0.1-2.1 0.1-1.1-7.4-1.2-14.9-1.2-22.4 0.1-6.8-0.6-13.6-0.3-20.4 4 4.2 6.3 9.5 9.7 14 2.8-10.7 4.1-21.7 5-32.6 1.2-10.7 0.6-21.5-1-32.2 9.6 0.8 18.5 6 28.3 4.9-2.8 26.9-12.8 52.5-25.6 76.1 0.6-0.2 1.7-0.5 2.2-0.7 5.5 5.9 10.3 12.6 16.6 17.8 6.4 5.1 13.2 9.9 20.3 14.1l-0.6 0.7c2.6 2.1 5.6 3.6 8.8 4.6z" fill="#DCB54E" stroke="#DCB54E"/>
  <path d="m579.8 1107.1c8.6 6.3 15.3 15.2 24.8 20.2-0.2-1.5-0.3-3-0.6-4.5 3.6 3 6.6 6.7 8 11.2-6.6-2.5-12.4-6.7-17.9-11.1-4.5-5.4-10.2-9.8-14.3-15.8z" fill="#AF9A63" stroke="#AF9A63"/>
  <path d="m545.5 1141.6c2.5-6.6 3.2-13.9 7.1-20 0.2 10.5-2 20.9-1.4 31.4v0.9c-5.1 4.9-7.1 11.8-10.2 18-4.9 10-9.8 20.1-14.9 30.1-4.7 9.7-8.8 19.7-13.6 29.3-8.8 17.3-12.1 37.4-9.3 56.7 1.4 6.2 2.8 12.9 7.1 17.7 2 2.3 5.5 2.2 7.8 0.3 5.9-4.3 9-11.2 12.5-17.4 3.8-6.8 5.6-14.6 10.1-21.1 0.3 2.5 0.7 5.1 0.9 7.7-1 8.5-1.3 17.2-2.4 25.7-4.1 5.6-8.7 11-11.7 17.4-5.3 11.4-8.3 23.8-11 36-1.6 8.9-4.1 17.7-4.2 26.8 4-5.9 5.6-12.9 8.8-19.3 3.9-8.1 8.1-16.2 13.9-23 0 16.5-3.6 32.8-2.7 49.3 0.1 1.7 0.4 3.5 0.6 5.2-4.7 0.1-8.9-2.2-12.8-4.6-8.2-5.6-17.7-8.6-26.8-12.2-0.9-6.9-1.4-13.8-1.4-20.8 0-9-1.4-18-0.9-27 1-17.8 2.1-35.7 5.8-53.3 3.9-22.8 13.1-44.2 21.2-65.8 2.6-7.7 6.6-14.9 9.6-22.4 2.4-6.5 5.2-12.8 7.9-19.1 3.7-8.5 6.7-17.5 10-26.5z" fill="#B57931" stroke="#B57931"/>
  <path d="m762.8 1148.1c-0.4-7.6-3.2-14.9-2.2-22.5 3.2 11.1 5.7 22.3 8.2 33.5 1.6 6.5 0.3 13.3 2.8 19.6-4.6 3.7-9.2 7.6-14.6 10.2-5.7 2.8-12.2 2.2-18.3 2.3 5-1.8 10.2-3.1 15-5.5 5.5-2.8 8.2-9.1 9-15 0.9-7.4 0.6-15 0.1-22.6z" fill="#AA712C" stroke="#AA712C"/>
  <path d="m541 1171.9c3.1-6.2 5.1-13.1 10.2-18-0.2 10.7-1.5 21.4-2.3 32.1-0.4-0.4-1.1-1.3-1.5-1.7-7.4 5.7-12.5 13.8-17.5 21.6-8.2 14-13.6 29.8-14.8 46.1-0.8 10.8-2.2 22.1 2 32.4 4.8-1.2 7.9-5.1 9.8-9.4 6.7-13.4 12.5-27.2 18-41.2-1.4 13.8-1.5 27.7-3.4 41.5-0.2-2.6-0.5-5.1-0.9-7.7-4.5 6.5-6.3 14.3-10.1 21.1-3.5 6.2-6.6 13.1-12.5 17.4-2.3 1.9-5.8 2-7.8-0.3-4.4-4.8-5.8-11.6-7.1-17.7-2.9-19.2 0.5-39.3 9.3-56.7 4.9-9.6 9-19.6 13.6-29.3 5.2-10 10-20.1 15-30.2z" fill="#A06929" stroke="#A06929"/>
  <path d="m529.9 1205.9c5-7.8 10.1-15.8 17.5-21.6 0.4 0.4 1.1 1.3 1.5 1.7-1.5 15.9-2.6 31.9-4 47.8-5.4 14-11.2 27.8-18 41.2-1.9 4.3-5 8.2-9.8 9.4-4.3-10.3-2.9-21.6-2-32.4 1.2-16.3 6.6-32.1 14.8-46.1z" fill="#B57931" stroke="#B57931"/>
  <path d="m527.5 1318.4c3-6.4 7.6-11.8 11.7-17.4-0.5 7.1-1.1 14.2-1.8 21.3-1 10-0.8 20.1-1.9 30.2-1.1 11.9-1.4 24-3.4 35.9-0.8-16.5 2.7-32.8 2.7-49.3-5.8 6.9-10 14.9-13.9 23-3.1 6.3-4.8 13.3-8.8 19.3 0.1-9.1 2.6-17.9 4.2-26.8 2.9-12.4 5.9-24.7 11.2-36.2z" fill="#A06929" stroke="#A06929"/>
  <path d="m470 1309.5c0.5-1.9 1.1-3.8 1.7-5.8-0.8 4.9-1.1 9.9-1.5 14.8-2.7 8.6-3.9 17.5-6.5 26-2 6.7-3.4 13.6-3.8 20.6-0.7-0.3-2-0.7-2.6-1 1.4-8.3 4.4-16.1 5.7-24.4 1.6-6.8 3.4-13.6 4.9-20.5 0.7-3.2 1.3-6.5 2.1-9.7z" fill="#9D7A52" stroke="#9D7A52"/>
  <path d="m470.2 1318.5c1 6.2 0.4 12.5 0.2 18.8 0.3 10.5 0.1 21 0.4 31.6-1.6-0.5-3.2-1.1-4.8-1.5-2.1-0.7-4.1-1.5-6.1-2.2 0.4-7 1.8-13.9 3.8-20.6 2.6-8.6 3.9-17.5 6.5-26.1z" fill="#A0692A" stroke="#A0692A"/>
 </g>
</svg>
