<?xml version="1.0" encoding="UTF-8"?>
<svg version="1.1" viewBox="0 0 575 450" xmlns="http://www.w3.org/2000/svg">
 <g transform="translate(0 -602.36)">
  <path d="m206.71 716.51c30.388-87.149 114.92-141.11 157.86-2.1429 4.0968 6.2092 14.632 23.109 24.142-1.419 17.829-45.987 37.841-69.58 54.073-68.938 6.7025-1.0119 26.804 11.497 32.122 28.776 33.885 110.11 64.28 199.98 68.236 195.87-46.649 37.562-72.87 54.268-62.706 82.032 2.8114 7.68-3.581 12.174-10.151 17.968-21.451-10.874-94.921 13.304-89.633 32.464 2.0588 7.4604-4.896 14.036-11.795 16.107-12.237 1.0005-57.451-29.301-147.27-1.8274-31.259 9.5618-29.84-5.7213-30.083-6.9322 3.0816-58.396-26.137-63.542-67.003-57.748-8.7295 1.2376-13.568 0.56773-11.359-3.4922 15.797-38.251-45.582-29.078-67.143-22.857 10.034-24.495 35.532-165.43 53.571-247.14 8.8073-41.658 43.166-54.133 86.42 32.146 6.3304 12.627 17.874 10.448 20.723 7.1402z" fill="#d9d9d9"/>
 </g>
 <g transform="translate(0 -602.36)" fill="#5b5b5b">
  <path d="m246.13 691.19c0.0349-0.60524 1.2862-1.1862 7.2998-0.29183 13.584 2.0204 16.227 5.5255 20.347 10.954 1.6971 2.2364 4.5675 8.0388 3.6557 11.082-0.81595 2.149-13.434 5.5967-25.288-1.6489-5.1078-3.7847-7.3323-14.62-6.0139-20.095z"/>
  <path d="m326.42 691.07c-0.0349-0.60524-1.2862-1.1862-7.2998-0.29183-13.584 2.0204-16.227 5.5255-20.347 10.954-1.6971 2.2364-4.5675 8.0388-3.6557 11.082 0.81595 2.149 13.434 5.5967 25.288-1.6489 5.1078-3.7847 7.3323-14.62 6.0139-20.095z"/>
 </g>
 <g transform="translate(0 -602.36)">
  <path d="m119.52 738.98c9.6347 70.084-4.4727 147.67-3.7287 198.4-1.0197-8.2751-3.3099-14.691-17.009-17.445 8.3514-48.432 21.01-121.52 20.738-180.95z" fill="#d2d2d2"/>
  <path d="m118.5 745.04c28.692 77.12 29.169 150.84 29.944 203.81-27.59 3.5177-36.741 2.9756-35.992 0.0944 4.8679-40.728 14.265-148.63 6.0485-203.91z" fill="#ddd"/>
  <path d="m143.25 719.8c14.201 41.897 45.826 218.22 48.094 268.64-4.3027-18.503-14.558-34.776-27.118-37.532 8.3514-48.432-18.178-158.54-20.976-231.1z" fill="#d2d2d2"/>
  <path d="m146.32 728.67c28.692 77.12 87.001 230.13 87.775 283.11-27.868 9.344-43.194 8.4253-42.053-2.6836-0.1829-46.789-25.131-185.5-45.722-280.43z" fill="#ddd"/>
  <path d="m424.09 709.28c-14.201 41.897-41.785 239.43-44.053 289.85 6.8027-15.11 19.915-20.312 33.725-25.032-8.3514-48.432 7.5301-192.25 10.328-264.82z" fill="#d2d2d2"/>
  <path d="m452.48 687.17c-12.514 46.96 24.24 212.5 25.663 251.49 1.7134-16.36 12.514-26.278 24.003-36.981-8.3514-48.432-52.464-141.94-49.666-214.51z" fill="#d2d2d2"/>
  <path d="m423.73 710.93c-28.887 153.89-41.067 235.27-43.238 288.88 2.5605 6.7003-3.2984 16.118-12.206 17.426-11.433 1.6793-38.186-10.024-39.869-10.066 5.8885-43.574 74.488-203.33 95.313-296.24z" fill="#ddd"/>
  <path d="m450.62 738.09c11.649 115.86 25.788 157.1 27.544 201.6 1.2685 10.017 9.3876 17.333-8.2088 28.754-0.9676-0.0298-14.046-2.7256-26.443-1.8756 5.8885-43.574-13.718-135.57 7.1079-228.47z" fill="#ddd"/>
 </g>
</svg>
